<?xml version="1.0" encoding="utf-8"?>
<!-- Generator: Adobe Illustrator 23.0.4, SVG Export Plug-In . SVG Version: 6.00 Build 0)  -->
<svg version="1.1" id="Layer_1" xmlns="http://www.w3.org/2000/svg" xmlns:xlink="http://www.w3.org/1999/xlink" x="0px" y="0px"
	 viewBox="0 0 256 256" style="enable-background:new 0 0 256 256;" xml:space="preserve">
<style type="text/css">
	.st0{fill-rule:evenodd;clip-rule:evenodd;fill:url(#SVGID_1_);}
</style>
<linearGradient id="SVGID_1_" gradientUnits="userSpaceOnUse" x1="0" y1="128" x2="256" y2="128">
	<stop  offset="0.1" style="stop-color:#D8B66B"/>
	<stop  offset="0.1447" style="stop-color:#DAB971"/>
	<stop  offset="0.2032" style="stop-color:#E0C381"/>
	<stop  offset="0.2691" style="stop-color:#EAD39C"/>
	<stop  offset="0.32" style="stop-color:#F3E3B6"/>
	<stop  offset="0.42" style="stop-color:#F3E3B6"/>
	<stop  offset="0.55" style="stop-color:#CFB479"/>
	<stop  offset="0.7" style="stop-color:#CFB479"/>
	<stop  offset="0.78" style="stop-color:#FDEEC4"/>
	<stop  offset="0.9" style="stop-color:#CFB479"/>
</linearGradient>
<path class="st0" d="M128,0C57.3,0,0,57.3,0,128l0,0c0,70.7,57.3,128,128,128l0,0c70.7,0,128-57.3,128-128l0,0
	C256,57.3,198.7,0,128,0z M42.4,213.6C19.6,190.7,7,160.3,7,128l0,0c0-32.3,12.6-62.7,35.4-85.6l0,0C65.3,19.6,95.7,7,128,7l0,0
	c32.3,0,62.7,12.6,85.6,35.4l0,0C236.4,65.3,249,95.7,249,128l0,0c0,32.3-12.6,62.7-35.4,85.6l0,0C190.7,236.4,160.3,249,128,249
	l0,0C95.7,249,65.3,236.4,42.4,213.6L42.4,213.6z M111.4,43.4c0-1.1,0.9-1.9,1.9-1.9c0,0,3.7-0.9,3.7-3.3c-2.3,0-4.2-1.9-4.2-4.2
	c0-2.3,1.9-4.2,4.2-4.2h22.6c2.3,0,4.2,1.9,4.2,4.2c0,2.3-1.9,4.2-4.2,4.2c0,0,0.8,3.3,3.7,3.3c1.1,0,1.9,0.9,1.9,1.9
	c0,1.1-0.9,1.9-1.9,1.9h-30C112.3,45.3,111.4,44.4,111.4,43.4z M144.6,99.3l-4.1-49.7h-24.3l-3.7,49.5l-14.6,21.3v97.8
	c0,4.4,3.6,8,8,8h44.3c4.4,0,8-3.6,8-8v-97.8L144.6,99.3z M131.8,177.1c0,13.4-10.8,24.2-24.2,24.2h-4.4V128h4.4
	c13.4,0,24.2,10.8,24.2,24.2V177.1z M151.5,195.2h-4.2v-6.5h4.2V195.2z M151.5,183.8h-4.2v-60L134,103.9l-3-32.1l4.2-0.4l2.9,31
	l13.4,20.1V183.8z"/>
</svg>
