<?xml version="1.0" encoding="utf-8"?>
<!-- Generator: Adobe Illustrator 23.0.4, SVG Export Plug-In . SVG Version: 6.00 Build 0)  -->
<svg version="1.1" id="Layer_1" xmlns="http://www.w3.org/2000/svg" xmlns:xlink="http://www.w3.org/1999/xlink" x="0px" y="0px"
	 viewBox="0 0 256 256" style="enable-background:new 0 0 256 256;" xml:space="preserve">
<style type="text/css">
	.st0{fill-rule:evenodd;clip-rule:evenodd;fill:url(#SVGID_1_);}
</style>
<linearGradient id="SVGID_1_" gradientUnits="userSpaceOnUse" x1="0" y1="128" x2="256" y2="128">
	<stop  offset="0.1" style="stop-color:#D8B66B"/>
	<stop  offset="0.1447" style="stop-color:#DAB971"/>
	<stop  offset="0.2032" style="stop-color:#E0C381"/>
	<stop  offset="0.2691" style="stop-color:#EAD39C"/>
	<stop  offset="0.32" style="stop-color:#F3E3B6"/>
	<stop  offset="0.42" style="stop-color:#F3E3B6"/>
	<stop  offset="0.55" style="stop-color:#CFB479"/>
	<stop  offset="0.7" style="stop-color:#CFB479"/>
	<stop  offset="0.78" style="stop-color:#FDEEC4"/>
	<stop  offset="0.9" style="stop-color:#CFB479"/>
</linearGradient>
<path class="st0" d="M128,0C57.3,0,0,57.3,0,128l0,0c0,70.7,57.3,128,128,128l0,0c70.7,0,128-57.3,128-128l0,0
	C256,57.3,198.7,0,128,0z M42.4,213.6C19.6,190.7,7,160.3,7,128l0,0c0-32.3,12.6-62.7,35.4-85.6l0,0C65.3,19.6,95.7,7,128,7l0,0
	c32.3,0,62.7,12.6,85.6,35.4l0,0C236.4,65.3,249,95.7,249,128l0,0c0,32.3-12.6,62.7-35.4,85.6l0,0C190.7,236.4,160.3,249,128,249
	l0,0C95.7,249,65.3,236.4,42.4,213.6L42.4,213.6z M55.8,133.1v61.9c0,5.7,4.6,10.3,10.3,10.3h51.6v-72.2H55.8z M200.2,91.8h-32.6
	c2.3-1.6,4.4-3.2,5.8-4.6c8.3-8.4,8.3-22,0-30.3c-8.1-8.1-22.2-8.1-30.3,0c-4.5,4.5-16.3,22.8-14.7,35h-0.7
	c1.6-12.2-10.2-30.5-14.7-35c-8.1-8.1-22.2-8.1-30.3,0c-8.3,8.4-8.3,22,0,30.3c1.4,1.4,3.4,3,5.8,4.6H55.8
	c-5.7,0-10.3,4.6-10.3,10.3v15.5c0,2.8,2.3,5.2,5.2,5.2h67v-20.6h20.6v20.6h67c2.8,0,5.2-2.3,5.2-5.2v-15.5
	C210.5,96.4,205.9,91.8,200.2,91.8z M117.1,91.5c0,0-0.4,0.3-1.9,0.3c-7.1,0-20.7-7.4-25.2-11.9c-4.3-4.4-4.3-11.4,0-15.8
	c2.1-2.1,4.9-3.3,7.8-3.3c2.9,0,5.7,1.2,7.8,3.3C112.6,71.1,119.5,89,117.1,91.5z M140.8,91.8c-1.5,0-1.9-0.3-1.9-0.3
	c-2.4-2.5,4.5-20.3,11.5-27.3c4.2-4.2,11.4-4.2,15.6,0c4.3,4.4,4.3,11.4,0,15.8C161.6,84.4,148,91.8,140.8,91.8z M138.3,133.1v72.2
	h51.6c5.7,0,10.3-4.6,10.3-10.3v-61.9H138.3z"/>
</svg>
