<?xml version="1.0" encoding="utf-8"?>
<!-- Generator: Adobe Illustrator 23.0.4, SVG Export Plug-In . SVG Version: 6.00 Build 0)  -->
<svg version="1.1" id="Layer_1" xmlns="http://www.w3.org/2000/svg" xmlns:xlink="http://www.w3.org/1999/xlink" x="0px" y="0px"
	 viewBox="0 0 256 256" style="enable-background:new 0 0 256 256;" xml:space="preserve">
<style type="text/css">
	.st0{fill-rule:evenodd;clip-rule:evenodd;fill:url(#Fill-1_1_);}
</style>
<linearGradient id="Fill-1_1_" gradientUnits="userSpaceOnUse" x1="1.073" y1="253.6" x2="2.6245" y2="253.6" gradientTransform="matrix(165 0 0 -165 -177.0391 41972)">
	<stop  offset="0.1" style="stop-color:#D8B66B"/>
	<stop  offset="0.1447" style="stop-color:#DAB971"/>
	<stop  offset="0.2032" style="stop-color:#E0C381"/>
	<stop  offset="0.2691" style="stop-color:#EAD39C"/>
	<stop  offset="0.32" style="stop-color:#F3E3B6"/>
	<stop  offset="0.42" style="stop-color:#F3E3B6"/>
	<stop  offset="0.55" style="stop-color:#CFB479"/>
	<stop  offset="0.7" style="stop-color:#CFB479"/>
	<stop  offset="0.78" style="stop-color:#FDEEC4"/>
	<stop  offset="0.9" style="stop-color:#CFB479"/>
</linearGradient>
<path id="Fill-1" class="st0" d="M128,0C57.31,0,0,57.31,0,128l0,0c0,70.69,57.31,128,128,128l0,0c70.69,0,128-57.31,128-128l0,0
	C256,57.31,198.69,0,128,0z M42.44,213.56C19.59,190.71,7,160.32,7,128l0,0c0-32.32,12.59-62.71,35.44-85.56l0,0
	C65.29,19.59,95.68,7,128,7l0,0c32.32,0,62.71,12.59,85.56,35.44l0,0C236.41,65.29,249,95.68,249,128l0,0
	c0,32.32-12.59,62.71-35.44,85.56l0,0C190.71,236.41,160.32,249,128,249l0,0C95.68,249,65.29,236.41,42.44,213.56L42.44,213.56z
	 M142.44,95.29c-2.44,0.77-4.63,1.9-6.59,3.38l0,0c-1.96,1.48-3.56,3.31-4.81,5.5l0,0c-1.25,2.19-1.88,4.73-1.88,7.62l0,0v32.6
	c0,2.83,0.61,5.34,1.83,7.52l0,0c1.22,2.19,2.81,4,4.76,5.45l0,0c1.96,1.45,4.17,2.54,6.64,3.28l0,0c2.47,0.74,4.92,1.11,7.36,1.11
	l0,0c2.44,0,4.87-0.37,7.31-1.11l0,0c2.44-0.74,4.64-1.83,6.59-3.28l0,0c1.96-1.45,3.54-3.26,4.76-5.45l0,0
	c1.22-2.18,1.83-4.69,1.83-7.52l0,0v-32.6c0-2.89-0.61-5.43-1.83-7.62l0,0c-1.22-2.18-2.81-4.02-4.76-5.5l0,0
	c-1.96-1.48-4.15-2.6-6.59-3.38l0,0c-2.44-0.77-4.88-1.16-7.31-1.16l0,0C147.32,94.13,144.88,94.52,142.44,95.29L142.44,95.29z
	 M146.28,151.57c-1.19-0.35-2.28-0.93-3.28-1.73l0,0c-1-0.8-1.82-1.83-2.46-3.08l0,0c-0.64-1.25-0.96-2.81-0.96-4.67l0,0v-27.91
	c0-1.86,0.32-3.43,0.96-4.72l0,0c0.64-1.28,1.46-2.33,2.46-3.13l0,0c1-0.8,2.09-1.38,3.28-1.73l0,0c1.19-0.35,2.36-0.53,3.52-0.53
	l0,0c1.16,0,2.33,0.18,3.52,0.53l0,0c1.19,0.35,2.28,0.93,3.28,1.73l0,0c0.99,0.8,1.82,1.85,2.46,3.13l0,0
	c0.64,1.28,0.96,2.86,0.96,4.72l0,0v27.91c0,1.86-0.32,3.42-0.96,4.67l0,0c-0.64,1.25-1.46,2.28-2.46,3.08l0,0
	c-1,0.8-2.09,1.38-3.28,1.73l0,0c-1.19,0.35-2.36,0.53-3.52,0.53l0,0C148.65,152.1,147.47,151.92,146.28,151.57L146.28,151.57z
	 M87.02,96.11c-3.47,1.25-6.33,2.88-8.58,4.87l0,0c0.26,0.39,0.64,0.95,1.16,1.69l0,0c0.51,0.74,1.06,1.53,1.64,2.36l0,0
	c0.58,0.84,1.12,1.64,1.64,2.41l0,0c0.51,0.77,0.9,1.35,1.16,1.74l0,0c1.74-1.54,3.86-2.8,6.37-3.76l0,0
	c2.51-0.96,4.89-1.45,7.14-1.45l0,0c1.29,0,2.56,0.15,3.81,0.44l0,0c1.25,0.29,2.36,0.77,3.33,1.45l0,0
	c0.97,0.68,1.75,1.57,2.36,2.67l0,0c0.61,1.1,0.92,2.46,0.92,4.07l0,0c0,1.61-0.27,3.05-0.82,4.31l0,0
	c-0.55,1.26-1.27,2.31-2.17,3.15l0,0c-0.9,0.84-1.91,1.47-3.04,1.89l0,0c-1.13,0.42-2.27,0.63-3.42,0.63l0,0h-7.72v8.87h7.72
	c2.89,0,5.26,1,7.09,2.99l0,0c1.83,1.99,2.75,4.53,2.75,7.62l0,0c0,3.22-1.01,5.71-3.04,7.47l0,0c-2.03,1.77-4.84,2.65-8.44,2.65
	l0,0c-2.25,0-4.6-0.48-7.04-1.45l0,0c-2.44-0.96-4.57-2.19-6.37-3.67l0,0c-0.26,0.39-0.64,0.95-1.16,1.69l0,0
	c-0.51,0.74-1.06,1.53-1.64,2.36l0,0c-0.58,0.84-1.11,1.62-1.59,2.36l0,0c-0.48,0.74-0.85,1.3-1.11,1.69l0,0
	c2.25,1.99,5.06,3.62,8.44,4.87l0,0c3.38,1.25,7.06,1.88,11.04,1.88l0,0c2.7,0,5.34-0.42,7.91-1.25l0,0
	c2.57-0.83,4.84-2.08,6.8-3.75l0,0c1.96-1.67,3.55-3.79,4.77-6.36l0,0c1.22-2.57,1.83-5.59,1.83-9.05l0,0
	c0-3.15-0.79-6.13-2.36-8.96l0,0c-1.58-2.82-3.87-4.88-6.89-6.16l0,0c2.89-1.22,5.11-3.14,6.65-5.75l0,0
	c1.54-2.61,2.32-5.55,2.32-8.84l0,0c0-3.22-0.58-5.94-1.74-8.16l0,0c-1.16-2.22-2.7-4.04-4.63-5.46l0,0
	c-1.93-1.42-4.1-2.43-6.51-3.04l0,0c-2.41-0.61-4.87-0.92-7.38-0.92l0,0C94.22,94.23,90.49,94.86,87.02,96.11L87.02,96.11z
	 M203.21,121.73l-12.95,1.88l9.37,9.13l-2.21,12.9l11.58-6.09l11.58,6.09l-2.21-12.9l9.37-9.13l-12.95-1.88L209,110L203.21,121.73z
	 M41.21,121.73l-12.95,1.88l9.37,9.13l-2.21,12.9L47,139.56l11.58,6.09l-2.21-12.9l9.37-9.13l-12.95-1.88L47,110L41.21,121.73z"/>
</svg>
