<?xml version="1.0" encoding="utf-8"?>
<!-- Generator: Adobe Illustrator 23.0.4, SVG Export Plug-In . SVG Version: 6.00 Build 0)  -->
<svg version="1.1" id="Layer_1" xmlns="http://www.w3.org/2000/svg" xmlns:xlink="http://www.w3.org/1999/xlink" x="0px" y="0px"
	 viewBox="0 0 256 256" style="enable-background:new 0 0 256 256;" xml:space="preserve">
<style type="text/css">
	.st0{fill-rule:evenodd;clip-rule:evenodd;fill:url(#SVGID_1_);}
</style>
<linearGradient id="SVGID_1_" gradientUnits="userSpaceOnUse" x1="0" y1="128" x2="256" y2="128">
	<stop  offset="0.1" style="stop-color:#D8B66B"/>
	<stop  offset="0.1447" style="stop-color:#DAB971"/>
	<stop  offset="0.2032" style="stop-color:#E0C381"/>
	<stop  offset="0.2691" style="stop-color:#EAD39C"/>
	<stop  offset="0.32" style="stop-color:#F3E3B6"/>
	<stop  offset="0.42" style="stop-color:#F3E3B6"/>
	<stop  offset="0.55" style="stop-color:#CFB479"/>
	<stop  offset="0.7" style="stop-color:#CFB479"/>
	<stop  offset="0.78" style="stop-color:#FDEEC4"/>
	<stop  offset="0.9" style="stop-color:#CFB479"/>
</linearGradient>
<path class="st0" d="M128,0C57.3,0,0,57.3,0,128l0,0c0,70.7,57.3,128,128,128l0,0c70.7,0,128-57.3,128-128l0,0
	C256,57.3,198.7,0,128,0z M42.4,213.6C19.6,190.7,7,160.3,7,128l0,0c0-32.3,12.6-62.7,35.4-85.6l0,0C65.3,19.6,95.7,7,128,7l0,0
	c32.3,0,62.7,12.6,85.6,35.4l0,0C236.4,65.3,249,95.7,249,128l0,0c0,32.3-12.6,62.7-35.4,85.6l0,0C190.7,236.4,160.3,249,128,249
	l0,0C95.7,249,65.3,236.4,42.4,213.6L42.4,213.6z M101.7,99.3c10.4,0,18.8-8.4,18.8-18.8s-8.4-18.8-18.8-18.8s-18.8,8.4-18.8,18.8
	S91.3,99.3,101.7,99.3z M101.7,65c8.6,0,15.5,7,15.5,15.5s-7,15.5-15.5,15.5s-15.5-7-15.5-15.5S93.1,65,101.7,65z M101.7,89.1
	c4.8,0,8.6-3.9,8.6-8.6s-3.9-8.6-8.6-8.6c-4.8,0-8.6,3.9-8.6,8.6S96.9,89.1,101.7,89.1z M107.9,79.1c0.8,0,1.4,0.6,1.4,1.4
	s-0.6,1.4-1.4,1.4s-1.4-0.6-1.4-1.4S107.1,79.1,107.9,79.1z M93.9,80.5c0-1.5,1.2-2.6,2.6-2.6c1.5,0,2.6,1.2,2.6,2.6
	s-1.2,2.6-2.6,2.6C95,83.1,93.9,82,93.9,80.5z M128,135.4c-10.2,0-18.6,8.3-18.6,18.6s8.3,18.6,18.6,18.6s18.6-8.3,18.6-18.6
	S138.2,135.4,128,135.4z M116.8,159.7c-3.1,0-5.7-2.5-5.7-5.7c0-3.1,2.5-5.7,5.7-5.7c3.1,0,5.7,2.5,5.7,5.7
	C122.5,157.1,120,159.7,116.8,159.7z M144.4,154c0,1.7-1.4,3.1-3.1,3.1c-1.7,0-3.1-1.4-3.1-3.1c0-1.7,1.4-3.1,3.1-3.1
	C143.1,150.9,144.4,152.3,144.4,154z M181.5,45.9h-107c-3.1,0-5.7,2.5-5.7,5.7v152.8c0,3.1,2.5,5.7,5.7,5.7h107
	c3.1,0,5.7-2.5,5.7-5.7V51.6C187.2,48.4,184.6,45.9,181.5,45.9z M101.7,59.6c11.5,0,20.9,9.4,20.9,20.9s-9.4,20.9-20.9,20.9
	c-11.5,0-20.9-9.4-20.9-20.9S90.2,59.6,101.7,59.6z M128,198.9c-24.7,0-44.9-20.1-44.9-44.9s20.1-44.9,44.9-44.9
	s44.9,20.1,44.9,44.9S152.7,198.9,128,198.9z M128,113.6c-22.3,0-40.4,18.1-40.4,40.4s18.1,40.4,40.4,40.4s40.4-18.1,40.4-40.4
	S150.3,113.6,128,113.6z M128,187.4c-18.4,0-33.4-15-33.4-33.4s15-33.4,33.4-33.4s33.4,15,33.4,33.4S146.4,187.4,128,187.4z"/>
</svg>
