<?xml version="1.0" encoding="utf-8"?>
<!-- Generator: Adobe Illustrator 23.0.4, SVG Export Plug-In . SVG Version: 6.00 Build 0)  -->
<svg version="1.1" id="Layer_1" xmlns="http://www.w3.org/2000/svg" xmlns:xlink="http://www.w3.org/1999/xlink" x="0px" y="0px"
	 viewBox="0 0 1227 851" style="enable-background:new 0 0 1227 851;" xml:space="preserve">
<style type="text/css">
	.st0{fill-rule:evenodd;clip-rule:evenodd;fill:#D3BB75;}
	.st1{fill:url(#SVGID_1_);}
	.st2{fill:url(#SVGID_2_);}
	.st3{fill:url(#SVGID_3_);}
	.st4{fill:url(#SVGID_4_);}
	.st5{fill:url(#SVGID_5_);}
	.st6{fill:url(#SVGID_6_);}
	.st7{fill:url(#SVGID_7_);}
	.st8{fill:url(#SVGID_8_);}
	.st9{fill:url(#SVGID_9_);}
	.st10{fill:url(#SVGID_10_);}
	.st11{fill:url(#SVGID_11_);}
	.st12{fill:url(#SVGID_12_);}
	.st13{fill:url(#SVGID_13_);}
	.st14{fill:url(#SVGID_14_);}
	.st15{fill:url(#SVGID_15_);}
	.st16{fill:url(#SVGID_16_);}
	.st17{fill:url(#SVGID_17_);}
	.st18{fill:url(#SVGID_18_);}
	.st19{fill:url(#SVGID_19_);}
	.st20{fill:url(#SVGID_20_);}
	.st21{fill:url(#SVGID_21_);}
	.st22{fill:url(#SVGID_22_);}
	.st23{fill:url(#SVGID_23_);}
	.st24{fill:url(#SVGID_24_);}
	.st25{fill:url(#SVGID_25_);}
	.st26{fill:url(#SVGID_26_);}
	.st27{fill:url(#SVGID_27_);}
	.st28{fill:url(#SVGID_28_);}
	.st29{fill:url(#SVGID_29_);}
	.st30{fill:url(#SVGID_30_);}
	.st31{fill:url(#SVGID_31_);}
	.st32{fill:url(#SVGID_32_);}
	.st33{fill:url(#SVGID_33_);}
	.st34{fill:url(#SVGID_34_);}
	.st35{fill:url(#SVGID_35_);}
	.st36{fill:url(#SVGID_36_);}
	.st37{fill:url(#SVGID_37_);}
	.st38{fill:url(#SVGID_38_);}
	.st39{fill:url(#SVGID_39_);}
	.st40{fill:url(#SVGID_40_);}
	.st41{fill:url(#SVGID_41_);}
	.st42{fill:url(#SVGID_42_);}
	.st43{fill:url(#SVGID_43_);}
	.st44{fill:url(#SVGID_44_);}
	.st45{fill:url(#SVGID_45_);}
	.st46{fill:url(#SVGID_46_);}
	.st47{fill:url(#SVGID_47_);}
	.st48{fill:url(#SVGID_48_);}
	.st49{fill:url(#SVGID_49_);}
	.st50{fill:url(#SVGID_50_);}
	.st51{fill:url(#SVGID_51_);}
	.st52{fill:url(#SVGID_52_);}
	.st53{fill:url(#SVGID_53_);}
	.st54{fill:url(#SVGID_54_);}
	.st55{fill:url(#SVGID_55_);}
	.st56{fill:url(#SVGID_56_);}
	.st57{fill:url(#SVGID_57_);}
	.st58{fill:url(#SVGID_58_);}
	.st59{fill:url(#SVGID_59_);}
	.st60{fill:url(#SVGID_60_);}
	.st61{fill:url(#SVGID_61_);}
	.st62{fill:url(#SVGID_62_);}
	.st63{fill:url(#SVGID_63_);}
	.st64{fill:url(#SVGID_64_);}
	.st65{fill:url(#SVGID_65_);}
	.st66{fill:url(#SVGID_66_);}
</style>
<g>
	<path id="Fill-3" class="st0" d="M500.2,26.9c-0.9,0-2-0.8-2-2.4c0-1.5,1-2.3,1.9-2.3c1.2,0,2.4,1.4,2.4,3.9c0,3.1-3,6-3.4,6.2
		l-0.3-0.5c0.4-0.3,2.7-2.9,2.7-4.3c0-0.1,0-0.6-0.4-0.6H500.2z"/>
	<polygon id="Fill-1" class="st0" points="468,40.9 470.9,40.9 470.9,23.6 468,23.6 	"/>
	<polygon id="Fill-2" class="st0" points="492.5,23.6 492.5,27.1 486.3,27.1 486.3,40.9 482.9,40.9 482.9,27.1 476.6,27.1 
		476.6,23.6 	"/>
	<path id="Fill-5" class="st0" d="M507.1,36.1c3,2,5.9,2.7,8.9,2.7c1.7,0,4.7-0.4,4.7-2.4c0-1.4-1.5-1.8-2.6-1.8l-5.2-0.2
		c-4.3-0.1-6.3-2.6-6.3-5.3c0-2.6,1.9-5.4,8.1-5.4c4.6,0,7.3,1.8,8.4,2.3l-1.6,3.1c-1.4-0.7-3.9-1.9-7.3-1.9c-1.8,0-4.1,0.4-4.1,2
		c0,1.4,1.9,1.7,3.1,1.7l4.5,0.2c4,0.1,6.5,1.8,6.5,5.5c0,3.2-2.4,5.8-8.2,5.8c-4.7,0-8.1-1.2-10.6-3.1L507.1,36.1z"/>
	<polygon id="Fill-7" class="st0" points="702.8,23.6 702.8,27.1 696.6,27.1 696.6,40.9 693.2,40.9 693.2,27.1 687,27.1 687,23.6 	
		"/>
	<polygon id="Fill-9" class="st0" points="710,40.9 712.9,40.9 712.9,23.6 710,23.6 	"/>
	<polygon id="Fill-11" class="st0" points="725,29.9 725,29.9 725,40.9 721.6,40.9 721.6,23.6 725,23.6 730.9,32.3 736.9,23.6 
		740.3,23.6 740.3,40.9 736.9,40.9 736.9,29.9 736.8,29.9 730.9,38.6 	"/>
	<polygon id="Fill-12" class="st0" points="764.4,23.6 764.4,27.1 752.4,27.1 752.4,30.2 758.7,30.2 758.7,33.7 752.4,33.7 
		752.4,37.4 764.8,37.4 764.8,40.9 749,40.9 749,23.6 	"/>
	<path id="Fill-13" class="st0" d="M682,24.1c0.2,0,0.3-0.1,0.3-0.3c0-0.2-0.3-0.2-0.4-0.2l-0.3,0l0.1,0.5L682,24.1z M681.8,25.4
		l-0.5,0.1l-0.4-2.1l0.8-0.1c0.5-0.1,0.9,0,1,0.5c0.1,0.4-0.1,0.6-0.4,0.6l0.7,0.8l-0.5,0.1l-0.6-0.8l-0.2,0L681.8,25.4z
		 M681.7,22.7c-0.8,0.2-1.5,0.9-1.3,1.9c0.2,1,1,1.5,1.9,1.4l0,0c0.8-0.1,1.4-0.9,1.3-1.9C683.3,23.1,682.5,22.5,681.7,22.7
		L681.7,22.7z M682.3,26.5c-1.1,0.2-2.3-0.5-2.5-1.8c-0.2-1.2,0.6-2.3,1.8-2.5c1.1-0.2,2.3,0.5,2.5,1.7
		C684.3,25.2,683.4,26.2,682.3,26.5L682.3,26.5z"/>
	<path id="Fill-14" class="st0" d="M654.5,15.8c0-0.1,0-0.2,0-0.4c-0.1-0.4-0.2-0.7-0.3-0.8l-0.3-0.1c-1.7,0.1-4,4.8-4.2,8.6
		C653.2,21.2,654.6,17.7,654.5,15.8L654.5,15.8z M682.7,7.7l-0.1,0.2c0,0.2-1,3.8-4.3,5.4c-3,1.5-4.6,0-5.1-0.7
		c-0.5,0.6-1.6,2.1-3.3,4.7c-2.4,3.7-3.8,8.3-3.8,8.4l0,0.1l-5.4,1.8l-0.4-0.9c0,0,0.5-1.8,0.9-3.2c-2.6,3.7-6.4,7.7-10.9,7.9
		c-2.8,0.1-4.8-1.1-5.7-3.4c-2.6,5.6-6.1,8.8-10,9c-1.9,0.1-3.3-0.8-3.9-2.4c-3.1,5.7-6.6,7.1-8.9,7.2c-1.2,0.1-2.2-0.3-3-0.9
		c-0.5-0.5-0.8-1.1-1.1-1.9c-2.7,4.7-5.2,7.6-9.3,7.8c-1.7,0.1-3-0.7-3.7-2.2c-2.2,3.4-5.2,7.2-9.8,7.4c-0.8,0-2.4,0-3.6-1.1
		c-0.8-0.7-1.2-1.7-1.2-3c-0.1-2.6,1.3-7.1,2.6-11.4c1.3-4.1,2.4-8.1,2.4-10.1c0-0.7-0.2-1-0.3-1.2c0,0-0.2-0.1-0.4-0.1
		c-0.7,0-1.7,0.5-3,1.4c0,0-3.5,2.7-3.7,2.8c-1.1,9.2-3.2,17.8-6.8,27.7l0,0.1l-4.2,1.8l-2.8,1.2l-0.7-0.7l0.1-0.2
		c2.8-7,7.4-20.2,7.1-29.3c0-0.7-0.2-1.2-0.4-1.4c-0.2-0.2-0.4-0.2-0.6-0.2c-0.6,0-2.2,0.9-3.6,2.1c0,0-2.6,2.1-2.8,2.2
		c0,0.3,0,0.9,0,0.9c0.3,12.7-6.7,26.9-9.9,31.4l-0.1,0.1l-4.8,2l-3.8,1.6l-0.7-0.7l0.2-0.3c2.8-3.9,11.7-17.4,11.8-30.1
		c0-3.5-1.1-6.3-3.1-8.3c-2-1.9-4.9-2.8-8.2-2.6c-7.9,0.5-16.4,5.7-16.4,12.6c0,1.7,0.7,3.4,1.9,4.5c1.4,1.3,3.3,1.9,5.5,1.8
		c2.8-0.1,4.1-1.4,4.7-2.4c0.6-1,0.7-2,0.5-2.5l0-0.1l0.4-1c0,0,2.4-0.3,4.9-1c2.3-0.7,4.8-2,4.8-2l0.8,0.5l0.2,0.2l0,0.2
		c0,0,0,0.3,0,0.4c-0.3,5.3-5.2,10.9-14.2,11.4c-4,0.2-7.5-0.9-9.8-3.1c-1.8-1.7-2.8-4.1-2.8-6.9c0-9.8,12.2-15.6,20.5-16.4
		c9.5-1,15,2.6,17.1,6.4c0.5-0.5,12-11.4,12.5-11.9c0,0,0,0,0,0l0.2-0.2c0,0,0.2,0.2,0.7,0.7c1,0.8,2.4,2.5,2.6,5
		c0,0.7,0.1,2,0.1,2.4c3.4-2.9,13-11.5,13-11.5s0.3,0.3,0.7,0.8c1.6,1.6,2.8,4,1.8,8.6c-0.7,2.9-2.5,7.7-4.5,14.6
		c-1.3,4.5-2,7.8-1.9,8.6c0,0.4,0.1,0.6,0.2,0.8c0.1,0.1,0.3,0.2,0.7,0.2c2.7-0.1,5.7-5.2,7.2-10.2l3-10.1c0,0,4-1.6,5.7-2.7
		l0.5-0.3l1.1,1.4l-0.4,0.4c-0.2,0.2-0.5,0.8-0.7,1.5c-3.5,11.4-3.7,12.1-3.8,12.1c-0.2,0.7-0.3,1.2-0.3,1.7c0,0.1,0,0.2,0,0.2
		c0.1,0.4,0.2,0.6,0.3,0.8l0.5,0.2c2.1-0.1,4.6-4.1,7-11.3l5.1-17.1l0-0.1l0.2,0c0,0,0.3-0.1,0.2-0.1c1.3-0.6,3.6-1.7,5.5-2.8
		l0.4-0.3l1.2,1.4l-0.4,0.4c-0.1,0.1-0.3,0.4-0.6,1.4l-5.5,18.6c-0.7,2.3-0.7,3.3-0.7,3.8c0,0.1,0,0.1,0,0.2c0,0.4,0.2,0.7,0.3,0.8
		l0.4,0.1c2.4-0.1,4.6-3.7,7.4-12.1l4.6-15.4c0,0,3.8-1.7,5.7-2.9l0.2-0.2l0.2-0.1l1.1,1.4l-0.2,0.2c0,0-0.2,0.2-0.2,0.2
		c-0.1,0.1-0.3,0.5-0.6,1.4c0,0-5.5,18-5.6,18c-0.5,1.6-0.8,3.3-0.7,4c0,0.6,0.2,0.9,0.3,1l0.3,0.1c1.6-0.1,4.3-2.8,6.7-8.6
		c2.5-8,6-12,10.8-12.2c1.2-0.1,2.1,0.3,2.9,1c0.7,0.6,1.1,1.5,1.2,2.4c0,0.1,0,0.2,0,0.3c0.1,3.9-3.4,7.7-9,9.8c0,0.1,0,0.2,0,0.2
		c0.2,1.6,0.9,2.3,2.2,2.3c5.1-0.2,9.9-8.8,11.7-14.2l1.3-3.6l0.2-0.5l4.9-2l0.8,0.7c0,0-1.2,3.5-2,5.6c1.7-2.3,5.4-7.7,5.4-7.7
		l1.6,0.3L676,7c-0.2,0.6-0.5,2.3,0,2.9c0.2,0.2,0.5,0.3,0.9,0.3c2.1-0.2,4.3-3.4,4.3-3.4l0.4,0L682.7,7.7z M613.2,22.3
		c2.4-0.1,4-2.1,3.9-3.9c0-0.8-0.4-1.6-1-2.1c-0.6-0.6-1.5-0.8-2.4-0.8c-1.9,0.1-3.9,1.8-3.8,3.9c0,0.1,0,0.2,0,0.3
		c0.1,0.7,0.4,1.3,0.9,1.7C611.5,22.1,612.5,22.3,613.2,22.3L613.2,22.3z M676.6,25.1l0.1,0l1.7,1.3l-0.1,0.5
		c-34,10.6-84.6,34.5-96.5,48.2l-0.1,0.1l-0.2,0c-12.8-1.7-30.3,1.3-35,3.1l-0.2,0.1l-1.1-1.4l0.1-0.5
		C587,57.5,645.5,33.8,676.6,25.1L676.6,25.1z"/>
	<path id="Fill-15" class="st0" d="M772,39.5c0,0.8-0.6,1.4-1.4,1.4c-0.8,0-1.4-0.6-1.4-1.4s0.6-1.4,1.4-1.4
		C771.4,38,772,38.7,772,39.5"/>
</g>
<g>
	
		<radialGradient id="SVGID_1_" cx="45105.2891" cy="-216.3425" r="32.0942" gradientTransform="matrix(-0.1022 -2.549201e-04 -4.444468e-04 -0.5743 5086.9521 661.3392)" gradientUnits="userSpaceOnUse">
		<stop  offset="8.368941e-02" style="stop-color:#F4E4B6"/>
		<stop  offset="0.1256" style="stop-color:#EBD49D"/>
		<stop  offset="0.1826" style="stop-color:#E1C481"/>
		<stop  offset="0.2328" style="stop-color:#DBBA71"/>
		<stop  offset="0.2704" style="stop-color:#D8B66B"/>
		<stop  offset="0.47" style="stop-color:#D8B66B;stop-opacity:0.5"/>
		<stop  offset="0.6734" style="stop-color:#D8B66B;stop-opacity:0"/>
	</radialGradient>
	<path class="st1" d="M472.7,775.5c0-10.6,1.5-19.2,3.4-19.2c1.9,0,3.4,8.6,3.4,19.2c0,10.6-1.5,16.3-3.4,16.3
		C474.2,791.9,472.7,786.2,472.7,775.5z"/>
	
		<radialGradient id="SVGID_2_" cx="45062.7617" cy="-1222.2937" r="32.0942" gradientTransform="matrix(-0.1022 -3.642637e-04 -4.836090e-04 -0.805 5086.8071 -193.4066)" gradientUnits="userSpaceOnUse">
		<stop  offset="8.368941e-02" style="stop-color:#F4E4B6"/>
		<stop  offset="0.1256" style="stop-color:#EBD49D"/>
		<stop  offset="0.1826" style="stop-color:#E1C481"/>
		<stop  offset="0.2328" style="stop-color:#DBBA71"/>
		<stop  offset="0.2704" style="stop-color:#D8B66B"/>
		<stop  offset="0.47" style="stop-color:#D8B66B;stop-opacity:0.5"/>
		<stop  offset="0.6734" style="stop-color:#D8B66B;stop-opacity:0"/>
	</radialGradient>
	<path class="st2" d="M477.4,776.1c0-14.9,1.5-26.9,3.4-26.9c1.9,0,3.4,12.1,3.4,27s-1.5,22.9-3.4,22.8
		C478.9,799,477.4,791,477.4,776.1z"/>
	
		<radialGradient id="SVGID_3_" cx="45001.8086" cy="3180.3442" r="32.0942" gradientTransform="matrix(-0.1022 -1.210239e-04 -3.964910e-04 -0.2919 5087.1299 1707.8663)" gradientUnits="userSpaceOnUse">
		<stop  offset="8.368941e-02" style="stop-color:#F4E4B6"/>
		<stop  offset="0.1256" style="stop-color:#EBD49D"/>
		<stop  offset="0.1826" style="stop-color:#E1C481"/>
		<stop  offset="0.2328" style="stop-color:#DBBA71"/>
		<stop  offset="0.2704" style="stop-color:#D8B66B"/>
		<stop  offset="0.47" style="stop-color:#D8B66B;stop-opacity:0.5"/>
		<stop  offset="0.6734" style="stop-color:#D8B66B;stop-opacity:0"/>
	</radialGradient>
	<path class="st3" d="M482.1,774.8c0-5.4,1.5-9.8,3.4-9.8c1.9,0,3.4,4.4,3.4,9.8c0,5.4-1.5,8.3-3.4,8.3
		C483.6,783.1,482.1,780.2,482.1,774.8z"/>
	
		<radialGradient id="SVGID_4_" cx="44960.5898" cy="1792.782" r="32.0942" gradientTransform="matrix(-0.1022 -1.558071e-04 -4.089488e-04 -0.3653 5087.084 1435.9388)" gradientUnits="userSpaceOnUse">
		<stop  offset="8.368941e-02" style="stop-color:#F4E4B6"/>
		<stop  offset="0.1256" style="stop-color:#EBD49D"/>
		<stop  offset="0.1826" style="stop-color:#E1C481"/>
		<stop  offset="0.2328" style="stop-color:#DBBA71"/>
		<stop  offset="0.2704" style="stop-color:#D8B66B"/>
		<stop  offset="0.47" style="stop-color:#D8B66B;stop-opacity:0.5"/>
		<stop  offset="0.6734" style="stop-color:#D8B66B;stop-opacity:0"/>
	</radialGradient>
	<path class="st4" d="M486.8,775c0-6.8,1.5-12.2,3.4-12.2c1.9,0,3.4,5.5,3.4,12.2s-1.5,10.4-3.4,10.4
		C488.3,785.4,486.8,781.8,486.8,775z"/>
	
		<radialGradient id="SVGID_5_" cx="44928.4961" cy="-2272.0308" r="32.0942" gradientTransform="matrix(-0.1022 -6.394756e-04 -5.821779e-04 -1.3855 5086.4419 -2345.0588)" gradientUnits="userSpaceOnUse">
		<stop  offset="8.368941e-02" style="stop-color:#F4E4B6"/>
		<stop  offset="0.1256" style="stop-color:#EBD49D"/>
		<stop  offset="0.1826" style="stop-color:#E1C481"/>
		<stop  offset="0.2328" style="stop-color:#DBBA71"/>
		<stop  offset="0.2704" style="stop-color:#D8B66B"/>
		<stop  offset="0.47" style="stop-color:#D8B66B;stop-opacity:0.5"/>
		<stop  offset="0.6734" style="stop-color:#D8B66B;stop-opacity:0"/>
	</radialGradient>
	<path class="st5" d="M491.5,777.6c0-25.6,1.5-46.4,3.4-46.4c1.9,0,3.4,20.8,3.4,46.4c0,25.6-1.5,39.3-3.4,39.3
		C493,816.9,491.5,803.2,491.5,777.6z"/>
	
		<radialGradient id="SVGID_6_" cx="44880.6523" cy="-1752.7567" r="32.0942" gradientTransform="matrix(-0.1022 -4.667235e-04 -5.203056e-04 -1.0211 5086.6714 -994.6959)" gradientUnits="userSpaceOnUse">
		<stop  offset="8.368941e-02" style="stop-color:#F4E4B6"/>
		<stop  offset="0.1256" style="stop-color:#EBD49D"/>
		<stop  offset="0.1826" style="stop-color:#E1C481"/>
		<stop  offset="0.2328" style="stop-color:#DBBA71"/>
		<stop  offset="0.2704" style="stop-color:#D8B66B"/>
		<stop  offset="0.47" style="stop-color:#D8B66B;stop-opacity:0.5"/>
		<stop  offset="0.6734" style="stop-color:#D8B66B;stop-opacity:0"/>
	</radialGradient>
	<path class="st6" d="M496.2,776.7c0-18.9,1.5-34.2,3.4-34.2c1.9,0,3.4,15.3,3.4,34.2c0,18.9-1.5,29-3.4,29
		C497.7,805.7,496.2,795.6,496.2,776.7z"/>
	
		<radialGradient id="SVGID_7_" cx="44828.3828" cy="84.7374" r="32.0942" gradientTransform="matrix(-0.1022 -2.333805e-04 -4.367323e-04 -0.5289 5086.9814 829.3721)" gradientUnits="userSpaceOnUse">
		<stop  offset="8.368941e-02" style="stop-color:#F4E4B6"/>
		<stop  offset="0.1256" style="stop-color:#EBD49D"/>
		<stop  offset="0.1826" style="stop-color:#E1C481"/>
		<stop  offset="0.2328" style="stop-color:#DBBA71"/>
		<stop  offset="0.2704" style="stop-color:#D8B66B"/>
		<stop  offset="0.47" style="stop-color:#D8B66B;stop-opacity:0.5"/>
		<stop  offset="0.6734" style="stop-color:#D8B66B;stop-opacity:0"/>
	</radialGradient>
	<path class="st7" d="M500.9,775.4c0-9.8,1.5-17.7,3.4-17.7c1.9,0,3.4,7.9,3.4,17.7c0,9.8-1.5,15-3.4,15
		C502.4,790.5,500.9,785.2,500.9,775.4z"/>
	
		<radialGradient id="SVGID_8_" cx="44788.0781" cy="-1570.7489" r="32.0942" gradientTransform="matrix(-0.1022 -4.258249e-04 -5.056575e-04 -0.9348 5086.7261 -675.2154)" gradientUnits="userSpaceOnUse">
		<stop  offset="8.368941e-02" style="stop-color:#F4E4B6"/>
		<stop  offset="0.1256" style="stop-color:#EBD49D"/>
		<stop  offset="0.1826" style="stop-color:#E1C481"/>
		<stop  offset="0.2328" style="stop-color:#DBBA71"/>
		<stop  offset="0.2704" style="stop-color:#D8B66B"/>
		<stop  offset="0.47" style="stop-color:#D8B66B;stop-opacity:0.5"/>
		<stop  offset="0.6734" style="stop-color:#D8B66B;stop-opacity:0"/>
	</radialGradient>
	<path class="st8" d="M505.6,776.5c0-17.3,1.5-31.3,3.4-31.3c1.9,0,3.4,14,3.4,31.3c0,17.3-1.5,26.5-3.4,26.5
		C507.1,803,505.6,793.7,505.6,776.5z"/>
	
		<radialGradient id="SVGID_9_" cx="44743.4766" cy="-1978.7957" r="32.0942" gradientTransform="matrix(-0.1022 -5.292366e-04 -5.426951e-04 -1.153 5086.5889 -1483.6991)" gradientUnits="userSpaceOnUse">
		<stop  offset="8.368941e-02" style="stop-color:#F4E4B6"/>
		<stop  offset="0.1256" style="stop-color:#EBD49D"/>
		<stop  offset="0.1826" style="stop-color:#E1C481"/>
		<stop  offset="0.2328" style="stop-color:#DBBA71"/>
		<stop  offset="0.2704" style="stop-color:#D8B66B"/>
		<stop  offset="0.47" style="stop-color:#D8B66B;stop-opacity:0.5"/>
		<stop  offset="0.6734" style="stop-color:#D8B66B;stop-opacity:0"/>
	</radialGradient>
	<path class="st9" d="M510.3,777c0-21.3,1.5-38.6,3.4-38.6c1.9,0,3.4,17.3,3.4,38.6c0,21.3-1.5,32.7-3.4,32.7
		C511.8,809.8,510.3,798.3,510.3,777z"/>
	
		<radialGradient id="SVGID_10_" cx="44700.1445" cy="-2753.4177" r="32.0942" gradientTransform="matrix(-0.1022 -9.638327e-04 -6.983527e-04 -2.0697 5086.0107 -4881.4512)" gradientUnits="userSpaceOnUse">
		<stop  offset="8.368941e-02" style="stop-color:#F4E4B6"/>
		<stop  offset="0.1256" style="stop-color:#EBD49D"/>
		<stop  offset="0.1826" style="stop-color:#E1C481"/>
		<stop  offset="0.2328" style="stop-color:#DBBA71"/>
		<stop  offset="0.2704" style="stop-color:#D8B66B"/>
		<stop  offset="0.47" style="stop-color:#D8B66B;stop-opacity:0.5"/>
		<stop  offset="0.6734" style="stop-color:#D8B66B;stop-opacity:0"/>
	</radialGradient>
	<path class="st10" d="M515,779.4c0-38.3,1.5-69.3,3.4-69.3c1.9,0,3.4,31.1,3.4,69.3c0,38.3-1.5,58.8-3.4,58.7
		C516.5,838.2,515,817.7,515,779.4z"/>
	
		<radialGradient id="SVGID_11_" cx="44652.7852" cy="-2410.7375" r="32.0942" gradientTransform="matrix(-0.1022 -7.083665e-04 -6.068866e-04 -1.5308 5086.3696 -2884.6013)" gradientUnits="userSpaceOnUse">
		<stop  offset="8.368941e-02" style="stop-color:#F4E4B6"/>
		<stop  offset="0.1256" style="stop-color:#EBD49D"/>
		<stop  offset="0.1826" style="stop-color:#E1C481"/>
		<stop  offset="0.2328" style="stop-color:#DBBA71"/>
		<stop  offset="0.2704" style="stop-color:#D8B66B"/>
		<stop  offset="0.47" style="stop-color:#D8B66B;stop-opacity:0.5"/>
		<stop  offset="0.6734" style="stop-color:#D8B66B;stop-opacity:0"/>
	</radialGradient>
	<path class="st11" d="M519.7,778c0-28.3,1.5-51.2,3.4-51.2c1.9,0,3.4,23,3.4,51.3c0,28.3-1.5,43.5-3.4,43.4
		C521.3,821.5,519.7,806.3,519.7,778z"/>
	
		<radialGradient id="SVGID_12_" cx="44608.1523" cy="-2826.146" r="32.0942" gradientTransform="matrix(-0.1022 -1.042545e-03 -7.265442e-04 -2.2357 5085.9062 -5497.7969)" gradientUnits="userSpaceOnUse">
		<stop  offset="8.368941e-02" style="stop-color:#F4E4B6"/>
		<stop  offset="0.1256" style="stop-color:#EBD49D"/>
		<stop  offset="0.1826" style="stop-color:#E1C481"/>
		<stop  offset="0.2328" style="stop-color:#DBBA71"/>
		<stop  offset="0.2704" style="stop-color:#D8B66B"/>
		<stop  offset="0.47" style="stop-color:#D8B66B;stop-opacity:0.5"/>
		<stop  offset="0.6734" style="stop-color:#D8B66B;stop-opacity:0"/>
	</radialGradient>
	<path class="st12" d="M524.4,779.8c0-41.3,1.5-74.8,3.4-74.8c1.9,0,3.4,33.6,3.4,74.9c0,41.3-1.5,63.5-3.4,63.5
		C526,843.3,524.4,821.1,524.4,779.8z"/>
	
		<radialGradient id="SVGID_13_" cx="44561.4609" cy="-2690.9844" r="32.0942" gradientTransform="matrix(-0.1022 -9.043585e-04 -6.770917e-04 -1.9442 5086.1094 -4417.439)" gradientUnits="userSpaceOnUse">
		<stop  offset="8.368941e-02" style="stop-color:#F4E4B6"/>
		<stop  offset="0.1256" style="stop-color:#EBD49D"/>
		<stop  offset="0.1826" style="stop-color:#E1C481"/>
		<stop  offset="0.2328" style="stop-color:#DBBA71"/>
		<stop  offset="0.2704" style="stop-color:#D8B66B"/>
		<stop  offset="0.47" style="stop-color:#D8B66B;stop-opacity:0.5"/>
		<stop  offset="0.6734" style="stop-color:#D8B66B;stop-opacity:0"/>
	</radialGradient>
	<path class="st13" d="M529.1,779c0-36,1.5-65.1,3.4-65.1c1.9,0,3.4,29.2,3.4,65.1c0,36-1.5,55.2-3.4,55.2
		C530.7,834.3,529.2,815,529.1,779z"/>
	
		<radialGradient id="SVGID_14_" cx="44515.2188" cy="-2678.5847" r="32.0942" gradientTransform="matrix(-0.1022 -8.933548e-04 -6.731501e-04 -1.921 5086.124 -4331.6982)" gradientUnits="userSpaceOnUse">
		<stop  offset="8.368941e-02" style="stop-color:#F4E4B6"/>
		<stop  offset="0.1256" style="stop-color:#EBD49D"/>
		<stop  offset="0.1826" style="stop-color:#E1C481"/>
		<stop  offset="0.2328" style="stop-color:#DBBA71"/>
		<stop  offset="0.2704" style="stop-color:#D8B66B"/>
		<stop  offset="0.47" style="stop-color:#D8B66B;stop-opacity:0.5"/>
		<stop  offset="0.6734" style="stop-color:#D8B66B;stop-opacity:0"/>
	</radialGradient>
	<path class="st14" d="M533.9,779c0-35.5,1.5-64.3,3.4-64.3c1.9,0,3.4,28.8,3.4,64.4s-1.5,54.5-3.4,54.5
		C535.4,833.5,533.9,814.5,533.9,779z"/>
	
		<radialGradient id="SVGID_15_" cx="44468.125" cy="-2411.7756" r="32.0942" gradientTransform="matrix(-0.1022 -7.087512e-04 -6.070244e-04 -1.5316 5086.3691 -2888.2791)" gradientUnits="userSpaceOnUse">
		<stop  offset="8.368941e-02" style="stop-color:#F4E4B6"/>
		<stop  offset="0.1256" style="stop-color:#EBD49D"/>
		<stop  offset="0.1826" style="stop-color:#E1C481"/>
		<stop  offset="0.2328" style="stop-color:#DBBA71"/>
		<stop  offset="0.2704" style="stop-color:#D8B66B"/>
		<stop  offset="0.47" style="stop-color:#D8B66B;stop-opacity:0.5"/>
		<stop  offset="0.6734" style="stop-color:#D8B66B;stop-opacity:0"/>
	</radialGradient>
	<path class="st15" d="M538.6,778c0-28.3,1.5-51.3,3.4-51.3c1.9,0,3.4,23,3.4,51.3c0,28.3-1.5,43.5-3.4,43.5
		C540.1,821.5,538.6,806.3,538.6,778z"/>
	
		<radialGradient id="SVGID_16_" cx="44422.9297" cy="-2679.2966" r="32.0942" gradientTransform="matrix(-0.1022 -8.938526e-04 -6.733284e-04 -1.9221 5086.1235 -4335.9463)" gradientUnits="userSpaceOnUse">
		<stop  offset="8.368941e-02" style="stop-color:#F4E4B6"/>
		<stop  offset="0.1256" style="stop-color:#EBD49D"/>
		<stop  offset="0.1826" style="stop-color:#E1C481"/>
		<stop  offset="0.2328" style="stop-color:#DBBA71"/>
		<stop  offset="0.2704" style="stop-color:#D8B66B"/>
		<stop  offset="0.47" style="stop-color:#D8B66B;stop-opacity:0.5"/>
		<stop  offset="0.6734" style="stop-color:#D8B66B;stop-opacity:0"/>
	</radialGradient>
	<path class="st16" d="M543.3,779c0-35.5,1.5-64.3,3.4-64.3c1.9,0,3.4,28.8,3.4,64.4c0,35.5-1.5,54.6-3.4,54.6
		C544.8,833.6,543.3,814.5,543.3,779z"/>
	
		<radialGradient id="SVGID_17_" cx="44376.8164" cy="-2727.6157" r="32.0942" gradientTransform="matrix(-0.1022 -9.377177e-04 -6.891055e-04 -2.0146 5086.085 -4679.29)" gradientUnits="userSpaceOnUse">
		<stop  offset="8.368941e-02" style="stop-color:#F4E4B6"/>
		<stop  offset="0.1256" style="stop-color:#EBD49D"/>
		<stop  offset="0.1826" style="stop-color:#E1C481"/>
		<stop  offset="0.2328" style="stop-color:#DBBA71"/>
		<stop  offset="0.2704" style="stop-color:#D8B66B"/>
		<stop  offset="0.47" style="stop-color:#D8B66B;stop-opacity:0.5"/>
		<stop  offset="0.6734" style="stop-color:#D8B66B;stop-opacity:0"/>
	</radialGradient>
	<path class="st17" d="M548,779.2c0-37.3,1.5-67.4,3.4-67.4c1.9,0,3.4,30.2,3.4,67.5c0,37.3-1.5,57.2-3.4,57.2
		C549.6,836.4,548,816.5,548,779.2z"/>
	
		<radialGradient id="SVGID_18_" cx="44330.0078" cy="-2599.6392" r="32.0942" gradientTransform="matrix(-0.1022 -8.293971e-04 -6.502974e-04 -1.7861 5086.229 -3832.3413)" gradientUnits="userSpaceOnUse">
		<stop  offset="8.368941e-02" style="stop-color:#F4E4B6"/>
		<stop  offset="0.1256" style="stop-color:#EBD49D"/>
		<stop  offset="0.1826" style="stop-color:#E1C481"/>
		<stop  offset="0.2328" style="stop-color:#DBBA71"/>
		<stop  offset="0.2704" style="stop-color:#D8B66B"/>
		<stop  offset="0.47" style="stop-color:#D8B66B;stop-opacity:0.5"/>
		<stop  offset="0.6734" style="stop-color:#D8B66B;stop-opacity:0"/>
	</radialGradient>
	<path class="st18" d="M552.8,778.6c0-33,1.5-59.8,3.4-59.8c1.9,0,3.4,26.8,3.4,59.8s-1.5,50.7-3.4,50.7
		C554.3,829.3,552.8,811.6,552.8,778.6z"/>
	
		<radialGradient id="SVGID_19_" cx="44284.8984" cy="-2934.6536" r="32.0942" gradientTransform="matrix(-0.1022 -1.186573e-03 -7.781820e-04 -2.5395 5085.7349 -6625.936)" gradientUnits="userSpaceOnUse">
		<stop  offset="8.368941e-02" style="stop-color:#F4E4B6"/>
		<stop  offset="0.1256" style="stop-color:#EBD49D"/>
		<stop  offset="0.1826" style="stop-color:#E1C481"/>
		<stop  offset="0.2328" style="stop-color:#DBBA71"/>
		<stop  offset="0.2704" style="stop-color:#D8B66B"/>
		<stop  offset="0.47" style="stop-color:#D8B66B;stop-opacity:0.5"/>
		<stop  offset="0.6734" style="stop-color:#D8B66B;stop-opacity:0"/>
	</radialGradient>
	<path class="st19" d="M557.5,780.5c0-47,1.5-85,3.4-85c1.9,0,3.4,38.1,3.4,85.1c0,47-1.5,72.1-3.4,72.1
		C559,852.7,557.5,827.5,557.5,780.5z"/>
	
		<radialGradient id="SVGID_20_" cx="44238.7266" cy="-3000.6194" r="32.0942" gradientTransform="matrix(-0.1022 -1.295403e-03 -8.171654e-04 -2.7691 5085.5903 -7477.5317)" gradientUnits="userSpaceOnUse">
		<stop  offset="8.368941e-02" style="stop-color:#F4E4B6"/>
		<stop  offset="0.1256" style="stop-color:#EBD49D"/>
		<stop  offset="0.1826" style="stop-color:#E1C481"/>
		<stop  offset="0.2328" style="stop-color:#DBBA71"/>
		<stop  offset="0.2704" style="stop-color:#D8B66B"/>
		<stop  offset="0.47" style="stop-color:#D8B66B;stop-opacity:0.5"/>
		<stop  offset="0.6734" style="stop-color:#D8B66B;stop-opacity:0"/>
	</radialGradient>
	<path class="st20" d="M562.2,781.1c0-51.2,1.5-92.7,3.4-92.7c1.9,0,3.4,41.6,3.4,92.8s-1.5,78.6-3.4,78.6
		C563.8,859.7,562.3,832.3,562.2,781.1z"/>
	
		<radialGradient id="SVGID_21_" cx="44192.043" cy="-2929.0181" r="32.0942" gradientTransform="matrix(-0.1022 -1.177785e-03 -7.750340e-04 -2.521 5085.7466 -6557.8379)" gradientUnits="userSpaceOnUse">
		<stop  offset="8.368941e-02" style="stop-color:#F4E4B6"/>
		<stop  offset="0.1256" style="stop-color:#EBD49D"/>
		<stop  offset="0.1826" style="stop-color:#E1C481"/>
		<stop  offset="0.2328" style="stop-color:#DBBA71"/>
		<stop  offset="0.2704" style="stop-color:#D8B66B"/>
		<stop  offset="0.47" style="stop-color:#D8B66B;stop-opacity:0.5"/>
		<stop  offset="0.6734" style="stop-color:#D8B66B;stop-opacity:0"/>
	</radialGradient>
	<path class="st21" d="M567,780.5c0-46.6,1.5-84.4,3.4-84.4c1.9,0,3.4,37.8,3.4,84.4s-1.5,71.6-3.4,71.6
		C568.5,852.1,567,827.1,567,780.5z"/>
	
		<radialGradient id="SVGID_22_" cx="44144.5234" cy="-2583.4209" r="32.0942" gradientTransform="matrix(-0.1022 -8.171606e-04 -6.458571e-04 -1.7603 5086.2256 -3737.4094)" gradientUnits="userSpaceOnUse">
		<stop  offset="8.368941e-02" style="stop-color:#F4E4B6"/>
		<stop  offset="0.1256" style="stop-color:#EBD49D"/>
		<stop  offset="0.1826" style="stop-color:#E1C481"/>
		<stop  offset="0.2328" style="stop-color:#DBBA71"/>
		<stop  offset="0.2704" style="stop-color:#D8B66B"/>
		<stop  offset="0.47" style="stop-color:#D8B66B;stop-opacity:0.5"/>
		<stop  offset="0.6734" style="stop-color:#D8B66B;stop-opacity:0"/>
	</radialGradient>
	<path class="st22" d="M571.7,778.5c0-32.6,1.5-58.9,3.4-58.9c1.9,0,3.4,26.4,3.4,59c0,32.6-1.5,50-3.4,50
		C573.3,828.5,571.7,811.1,571.7,778.5z"/>
	
		<radialGradient id="SVGID_23_" cx="44099.1055" cy="-2803.2622" r="32.0942" gradientTransform="matrix(-0.1022 -1.015266e-03 -7.168191e-04 -2.1782 5085.9624 -5287.1079)" gradientUnits="userSpaceOnUse">
		<stop  offset="8.368941e-02" style="stop-color:#F4E4B6"/>
		<stop  offset="0.1256" style="stop-color:#EBD49D"/>
		<stop  offset="0.1826" style="stop-color:#E1C481"/>
		<stop  offset="0.2328" style="stop-color:#DBBA71"/>
		<stop  offset="0.2704" style="stop-color:#D8B66B"/>
		<stop  offset="0.47" style="stop-color:#D8B66B;stop-opacity:0.5"/>
		<stop  offset="0.6734" style="stop-color:#D8B66B;stop-opacity:0"/>
	</radialGradient>
	<path class="st23" d="M576.5,779.6c0-40.3,1.5-72.9,3.4-72.9c1.9,0,3.4,32.7,3.4,73c0,40.3-1.5,61.8-3.4,61.8
		C578,841.5,576.5,819.9,576.5,779.6z"/>
	
		<radialGradient id="SVGID_24_" cx="44051.5938" cy="-2431.2629" r="32.0942" gradientTransform="matrix(-0.1022 -7.192335e-04 -6.107792e-04 -1.5537 5086.356 -2971.7559)" gradientUnits="userSpaceOnUse">
		<stop  offset="8.368941e-02" style="stop-color:#F4E4B6"/>
		<stop  offset="0.1256" style="stop-color:#EBD49D"/>
		<stop  offset="0.1826" style="stop-color:#E1C481"/>
		<stop  offset="0.2328" style="stop-color:#DBBA71"/>
		<stop  offset="0.2704" style="stop-color:#D8B66B"/>
		<stop  offset="0.47" style="stop-color:#D8B66B;stop-opacity:0.5"/>
		<stop  offset="0.6734" style="stop-color:#D8B66B;stop-opacity:0"/>
	</radialGradient>
	<path class="st24" d="M581.2,778c0-28.7,1.5-52,3.4-52c1.9,0,3.4,23.3,3.4,52s-1.5,44.1-3.4,44.1
		C582.7,822.1,581.2,806.7,581.2,778z"/>
	
		<radialGradient id="SVGID_25_" cx="44006.7188" cy="-2797.7607" r="32.0942" gradientTransform="matrix(-0.1022 -1.009014e-03 -7.145504e-04 -2.165 5085.959 -5238.6099)" gradientUnits="userSpaceOnUse">
		<stop  offset="8.368941e-02" style="stop-color:#F4E4B6"/>
		<stop  offset="0.1256" style="stop-color:#EBD49D"/>
		<stop  offset="0.1826" style="stop-color:#E1C481"/>
		<stop  offset="0.2328" style="stop-color:#DBBA71"/>
		<stop  offset="0.2704" style="stop-color:#D8B66B"/>
		<stop  offset="0.47" style="stop-color:#D8B66B;stop-opacity:0.5"/>
		<stop  offset="0.6734" style="stop-color:#D8B66B;stop-opacity:0"/>
	</radialGradient>
	<path class="st25" d="M585.9,779.5c0-40,1.5-72.5,3.4-72.5c1.9,0,3.4,32.5,3.4,72.5c0,40-1.5,61.5-3.4,61.4
		C587.4,841,585.9,819.6,585.9,779.5z"/>
	
		<radialGradient id="SVGID_26_" cx="43959.1133" cy="-2397.5342" r="32.0942" gradientTransform="matrix(-0.1022 -7.004993e-04 -6.040686e-04 -1.5142 5086.3809 -2825.5039)" gradientUnits="userSpaceOnUse">
		<stop  offset="8.368941e-02" style="stop-color:#F4E4B6"/>
		<stop  offset="0.1256" style="stop-color:#EBD49D"/>
		<stop  offset="0.1826" style="stop-color:#E1C481"/>
		<stop  offset="0.2328" style="stop-color:#DBBA71"/>
		<stop  offset="0.2704" style="stop-color:#D8B66B"/>
		<stop  offset="0.47" style="stop-color:#D8B66B;stop-opacity:0.5"/>
		<stop  offset="0.6734" style="stop-color:#D8B66B;stop-opacity:0"/>
	</radialGradient>
	<path class="st26" d="M590.6,777.9c0-28,1.5-50.7,3.4-50.7c1.9,0,3.4,22.7,3.4,50.7c0,28-1.5,43-3.4,43
		C592.2,820.9,590.6,805.9,590.6,777.9z"/>
	
		<radialGradient id="SVGID_27_" cx="43913.7109" cy="-2602.3843" r="32.0942" gradientTransform="matrix(-0.1022 -8.308993e-04 -6.507784e-04 -1.7893 5086.2075 -3845.8135)" gradientUnits="userSpaceOnUse">
		<stop  offset="8.368941e-02" style="stop-color:#F4E4B6"/>
		<stop  offset="0.1256" style="stop-color:#EBD49D"/>
		<stop  offset="0.1826" style="stop-color:#E1C481"/>
		<stop  offset="0.2328" style="stop-color:#DBBA71"/>
		<stop  offset="0.2704" style="stop-color:#D8B66B"/>
		<stop  offset="0.47" style="stop-color:#D8B66B;stop-opacity:0.5"/>
		<stop  offset="0.6734" style="stop-color:#D8B66B;stop-opacity:0"/>
	</radialGradient>
	<path class="st27" d="M595.3,778.6c0-33.1,1.5-59.9,3.4-59.9c1.9,0,3.4,26.9,3.4,59.9s-1.5,50.8-3.4,50.8
		C596.9,829.4,595.3,811.7,595.3,778.6z"/>
	
		<radialGradient id="SVGID_28_" cx="43865.8359" cy="-2097.0088" r="32.0942" gradientTransform="matrix(-0.1022 -5.682579e-04 -5.566992e-04 -1.2353 5086.5566 -1791.3748)" gradientUnits="userSpaceOnUse">
		<stop  offset="8.368941e-02" style="stop-color:#F4E4B6"/>
		<stop  offset="0.1256" style="stop-color:#EBD49D"/>
		<stop  offset="0.1826" style="stop-color:#E1C481"/>
		<stop  offset="0.2328" style="stop-color:#DBBA71"/>
		<stop  offset="0.2704" style="stop-color:#D8B66B"/>
		<stop  offset="0.47" style="stop-color:#D8B66B;stop-opacity:0.5"/>
		<stop  offset="0.6734" style="stop-color:#D8B66B;stop-opacity:0"/>
	</radialGradient>
	<path class="st28" d="M600.1,777.2c0-22.8,1.5-41.4,3.4-41.3c1.9,0,3.4,18.5,3.4,41.4c0,22.8-1.5,35.1-3.4,35.1
		C601.6,812.3,600.1,800,600.1,777.2z"/>
	
		<radialGradient id="SVGID_29_" cx="43822.293" cy="-2836.4763" r="32.0942" gradientTransform="matrix(-0.1022 -1.053120e-03 -7.303787e-04 -2.258 5085.9126 -5584.5884)" gradientUnits="userSpaceOnUse">
		<stop  offset="8.368941e-02" style="stop-color:#F4E4B6"/>
		<stop  offset="0.1256" style="stop-color:#EBD49D"/>
		<stop  offset="0.1826" style="stop-color:#E1C481"/>
		<stop  offset="0.2328" style="stop-color:#DBBA71"/>
		<stop  offset="0.2704" style="stop-color:#D8B66B"/>
		<stop  offset="0.47" style="stop-color:#D8B66B;stop-opacity:0.5"/>
		<stop  offset="0.6734" style="stop-color:#D8B66B;stop-opacity:0"/>
	</radialGradient>
	<path class="st29" d="M604.8,779.8c0-41.8,1.5-75.6,3.4-75.6c1.9,0,3.4,33.9,3.4,75.6c0,41.8-1.5,64.1-3.4,64.1
		C606.3,843.9,604.8,821.5,604.8,779.8z"/>
	
		<radialGradient id="SVGID_30_" cx="43774.8672" cy="-2497.5222" r="32.0942" gradientTransform="matrix(-0.1022 -7.585591e-04 -6.248658e-04 -1.6367 5086.3037 -3280.3796)" gradientUnits="userSpaceOnUse">
		<stop  offset="8.368941e-02" style="stop-color:#F4E4B6"/>
		<stop  offset="0.1256" style="stop-color:#EBD49D"/>
		<stop  offset="0.1826" style="stop-color:#E1C481"/>
		<stop  offset="0.2328" style="stop-color:#DBBA71"/>
		<stop  offset="0.2704" style="stop-color:#D8B66B"/>
		<stop  offset="0.47" style="stop-color:#D8B66B;stop-opacity:0.5"/>
		<stop  offset="0.6734" style="stop-color:#D8B66B;stop-opacity:0"/>
	</radialGradient>
	<path class="st30" d="M609.5,778.2c0-30.3,1.5-54.8,3.4-54.8c1.9,0,3.4,24.6,3.4,54.8c0,30.3-1.5,46.5-3.4,46.5
		C611,824.7,609.5,808.5,609.5,778.2z"/>
	
		<radialGradient id="SVGID_31_" cx="43730.3398" cy="-2978.6021" r="32.0942" gradientTransform="matrix(-0.1022 -1.255502e-03 -8.028727e-04 -2.6849 5085.6436 -7168.314)" gradientUnits="userSpaceOnUse">
		<stop  offset="8.368941e-02" style="stop-color:#F4E4B6"/>
		<stop  offset="0.1256" style="stop-color:#EBD49D"/>
		<stop  offset="0.1826" style="stop-color:#E1C481"/>
		<stop  offset="0.2328" style="stop-color:#DBBA71"/>
		<stop  offset="0.2704" style="stop-color:#D8B66B"/>
		<stop  offset="0.47" style="stop-color:#D8B66B;stop-opacity:0.5"/>
		<stop  offset="0.6734" style="stop-color:#D8B66B;stop-opacity:0"/>
	</radialGradient>
	<path class="st31" d="M614.2,780.8c0-49.6,1.5-89.9,3.4-89.9c1.9,0,3.4,40.3,3.4,89.9c0,49.6-1.5,76.2-3.4,76.2
		C615.8,857.1,614.2,830.5,614.2,780.8z"/>
	
		<radialGradient id="SVGID_32_" cx="43683.3281" cy="-2798.3269" r="32.0942" gradientTransform="matrix(-0.1022 -1.009038e-03 -7.145882e-04 -2.165 5085.9712 -5240.3252)" gradientUnits="userSpaceOnUse">
		<stop  offset="8.368941e-02" style="stop-color:#F4E4B6"/>
		<stop  offset="0.1256" style="stop-color:#EBD49D"/>
		<stop  offset="0.1826" style="stop-color:#E1C481"/>
		<stop  offset="0.2328" style="stop-color:#DBBA71"/>
		<stop  offset="0.2704" style="stop-color:#D8B66B"/>
		<stop  offset="0.47" style="stop-color:#D8B66B;stop-opacity:0.5"/>
		<stop  offset="0.6734" style="stop-color:#D8B66B;stop-opacity:0"/>
	</radialGradient>
	<path class="st32" d="M619,779.5c0-40,1.5-72.5,3.4-72.5c1.9,0,3.4,32.5,3.4,72.5c0,40-1.5,61.5-3.4,61.4
		C620.5,841,619,819.6,619,779.5z"/>
	
		<radialGradient id="SVGID_33_" cx="43636.4102" cy="-2602.7173" r="32.0942" gradientTransform="matrix(-0.1022 -8.308352e-04 -6.507554e-04 -1.7891 5086.208 -3846.3113)" gradientUnits="userSpaceOnUse">
		<stop  offset="8.368941e-02" style="stop-color:#F4E4B6"/>
		<stop  offset="0.1256" style="stop-color:#EBD49D"/>
		<stop  offset="0.1826" style="stop-color:#E1C481"/>
		<stop  offset="0.2328" style="stop-color:#DBBA71"/>
		<stop  offset="0.2704" style="stop-color:#D8B66B"/>
		<stop  offset="0.47" style="stop-color:#D8B66B;stop-opacity:0.5"/>
		<stop  offset="0.6734" style="stop-color:#D8B66B;stop-opacity:0"/>
	</radialGradient>
	<path class="st33" d="M623.7,778.6c0-33.1,1.5-59.9,3.4-59.9c1.9,0,3.4,26.8,3.4,59.9c0,33.1-1.5,50.8-3.4,50.8
		C625.2,829.4,623.7,811.7,623.7,778.6z"/>
	
		<radialGradient id="SVGID_34_" cx="43589.6758" cy="-2432.4961" r="32.0942" gradientTransform="matrix(-0.1022 -7.194997e-04 -6.108746e-04 -1.5543 5086.356 -2975.3965)" gradientUnits="userSpaceOnUse">
		<stop  offset="8.368941e-02" style="stop-color:#F4E4B6"/>
		<stop  offset="0.1256" style="stop-color:#EBD49D"/>
		<stop  offset="0.1826" style="stop-color:#E1C481"/>
		<stop  offset="0.2328" style="stop-color:#DBBA71"/>
		<stop  offset="0.2704" style="stop-color:#D8B66B"/>
		<stop  offset="0.47" style="stop-color:#D8B66B;stop-opacity:0.5"/>
		<stop  offset="0.6734" style="stop-color:#D8B66B;stop-opacity:0"/>
	</radialGradient>
	<path class="st34" d="M628.4,778c0-28.7,1.5-52,3.4-52c1.9,0,3.4,23.3,3.4,52.1s-1.5,44.1-3.4,44.1
		C629.9,822.1,628.4,806.7,628.4,778z"/>
	
		<radialGradient id="SVGID_35_" cx="43543.8867" cy="-2524.78" r="32.0942" gradientTransform="matrix(-0.1022 -7.758828e-04 -6.310712e-04 -1.6732 5086.2812 -3416.6904)" gradientUnits="userSpaceOnUse">
		<stop  offset="8.368941e-02" style="stop-color:#F4E4B6"/>
		<stop  offset="0.1256" style="stop-color:#EBD49D"/>
		<stop  offset="0.1826" style="stop-color:#E1C481"/>
		<stop  offset="0.2328" style="stop-color:#DBBA71"/>
		<stop  offset="0.2704" style="stop-color:#D8B66B"/>
		<stop  offset="0.47" style="stop-color:#D8B66B;stop-opacity:0.5"/>
		<stop  offset="0.6734" style="stop-color:#D8B66B;stop-opacity:0"/>
	</radialGradient>
	<path class="st35" d="M633.1,778.3c0-30.9,1.5-56,3.4-56c1.9,0,3.4,25.1,3.4,56.1c0,30.9-1.5,47.5-3.4,47.5
		C634.7,825.8,633.1,809.2,633.1,778.3z"/>
	
		<radialGradient id="SVGID_36_" cx="43497.6641" cy="-2497.637" r="32.0942" gradientTransform="matrix(-0.1022 -7.583657e-04 -6.247965e-04 -1.6363 5086.3047 -3279.7881)" gradientUnits="userSpaceOnUse">
		<stop  offset="8.368941e-02" style="stop-color:#F4E4B6"/>
		<stop  offset="0.1256" style="stop-color:#EBD49D"/>
		<stop  offset="0.1826" style="stop-color:#E1C481"/>
		<stop  offset="0.2328" style="stop-color:#DBBA71"/>
		<stop  offset="0.2704" style="stop-color:#D8B66B"/>
		<stop  offset="0.47" style="stop-color:#D8B66B;stop-opacity:0.5"/>
		<stop  offset="0.6734" style="stop-color:#D8B66B;stop-opacity:0"/>
	</radialGradient>
	<path class="st36" d="M637.8,778.2c0-30.3,1.5-54.8,3.4-54.8c1.9,0,3.4,24.6,3.4,54.8c0,30.3-1.5,46.5-3.4,46.4
		C639.4,824.6,637.8,808.4,637.8,778.2z"/>
	
		<radialGradient id="SVGID_37_" cx="43452.8164" cy="-2879.3052" r="32.0942" gradientTransform="matrix(-0.1022 -1.106326e-03 -7.494371e-04 -2.3702 5085.8423 -6002.543)" gradientUnits="userSpaceOnUse">
		<stop  offset="8.368941e-02" style="stop-color:#F4E4B6"/>
		<stop  offset="0.1256" style="stop-color:#EBD49D"/>
		<stop  offset="0.1826" style="stop-color:#E1C481"/>
		<stop  offset="0.2328" style="stop-color:#DBBA71"/>
		<stop  offset="0.2704" style="stop-color:#D8B66B"/>
		<stop  offset="0.47" style="stop-color:#D8B66B;stop-opacity:0.5"/>
		<stop  offset="0.6734" style="stop-color:#D8B66B;stop-opacity:0"/>
	</radialGradient>
	<path class="st37" d="M642.5,780c0-43.8,1.5-79.3,3.4-79.3c1.9,0,3.4,35.6,3.4,79.4c0,43.8-1.5,67.3-3.4,67.3
		C644.1,847.3,642.6,823.9,642.5,780z"/>
	
		<radialGradient id="SVGID_38_" cx="43404.5586" cy="-2303.8071" r="32.0942" gradientTransform="matrix(-0.1022 -6.528691e-04 -5.870072e-04 -1.4137 5086.4448 -2454.6218)" gradientUnits="userSpaceOnUse">
		<stop  offset="8.368941e-02" style="stop-color:#F4E4B6"/>
		<stop  offset="0.1256" style="stop-color:#EBD49D"/>
		<stop  offset="0.1826" style="stop-color:#E1C481"/>
		<stop  offset="0.2328" style="stop-color:#DBBA71"/>
		<stop  offset="0.2704" style="stop-color:#D8B66B"/>
		<stop  offset="0.47" style="stop-color:#D8B66B;stop-opacity:0.5"/>
		<stop  offset="0.6734" style="stop-color:#D8B66B;stop-opacity:0"/>
	</radialGradient>
	<path class="st38" d="M647.3,777.6c0-26.1,1.5-47.3,3.4-47.3c1.9,0,3.4,21.2,3.4,47.4s-1.5,40.1-3.4,40.1
		C648.8,817.8,647.3,803.7,647.3,777.6z"/>
	
		<radialGradient id="SVGID_39_" cx="43359.3945" cy="-2571.958" r="32.0942" gradientTransform="matrix(-0.1022 -8.080028e-04 -6.425767e-04 -1.741 5086.2388 -3668.6504)" gradientUnits="userSpaceOnUse">
		<stop  offset="8.368941e-02" style="stop-color:#F4E4B6"/>
		<stop  offset="0.1256" style="stop-color:#EBD49D"/>
		<stop  offset="0.1826" style="stop-color:#E1C481"/>
		<stop  offset="0.2328" style="stop-color:#DBBA71"/>
		<stop  offset="0.2704" style="stop-color:#D8B66B"/>
		<stop  offset="0.47" style="stop-color:#D8B66B;stop-opacity:0.5"/>
		<stop  offset="0.6734" style="stop-color:#D8B66B;stop-opacity:0"/>
	</radialGradient>
	<path class="st39" d="M652,778.4c0-32.2,1.5-58.3,3.4-58.3c1.9,0,3.4,26.1,3.4,58.3c0,32.2-1.5,49.4-3.4,49.4
		C653.5,827.9,652,810.6,652,778.4z"/>
	
		<radialGradient id="SVGID_40_" cx="43314.4766" cy="-2943.3459" r="32.0942" gradientTransform="matrix(-0.1022 -1.197383e-03 -7.820540e-04 -2.5623 5085.7212 -6715.8901)" gradientUnits="userSpaceOnUse">
		<stop  offset="8.368941e-02" style="stop-color:#F4E4B6"/>
		<stop  offset="0.1256" style="stop-color:#EBD49D"/>
		<stop  offset="0.1826" style="stop-color:#E1C481"/>
		<stop  offset="0.2328" style="stop-color:#DBBA71"/>
		<stop  offset="0.2704" style="stop-color:#D8B66B"/>
		<stop  offset="0.47" style="stop-color:#D8B66B;stop-opacity:0.5"/>
		<stop  offset="0.6734" style="stop-color:#D8B66B;stop-opacity:0"/>
	</radialGradient>
	<path class="st40" d="M656.7,780.5c0-47.4,1.5-85.8,3.4-85.8c1.9,0,3.4,38.5,3.4,85.8s-1.5,72.7-3.4,72.7
		C658.3,853.3,656.7,827.9,656.7,780.5z"/>
	
		<radialGradient id="SVGID_41_" cx="43267.7109" cy="-2826.5583" r="32.0942" gradientTransform="matrix(-0.1022 -1.040324e-03 -7.257951e-04 -2.231 5085.9302 -5487.0835)" gradientUnits="userSpaceOnUse">
		<stop  offset="8.368941e-02" style="stop-color:#F4E4B6"/>
		<stop  offset="0.1256" style="stop-color:#EBD49D"/>
		<stop  offset="0.1826" style="stop-color:#E1C481"/>
		<stop  offset="0.2328" style="stop-color:#DBBA71"/>
		<stop  offset="0.2704" style="stop-color:#D8B66B"/>
		<stop  offset="0.47" style="stop-color:#D8B66B;stop-opacity:0.5"/>
		<stop  offset="0.6734" style="stop-color:#D8B66B;stop-opacity:0"/>
	</radialGradient>
	<path class="st41" d="M661.5,779.7c0-41.3,1.5-74.7,3.4-74.7c1.9,0,3.4,33.5,3.4,74.7c0,41.3-1.5,63.3-3.4,63.3
		C663,843,661.5,820.9,661.5,779.7z"/>
	
		<radialGradient id="SVGID_42_" cx="43221.8125" cy="-2943.8528" r="32.0942" gradientTransform="matrix(-0.1022 -1.197851e-03 -7.822217e-04 -2.5633 5085.7207 -6720.1958)" gradientUnits="userSpaceOnUse">
		<stop  offset="8.368941e-02" style="stop-color:#F4E4B6"/>
		<stop  offset="0.1256" style="stop-color:#EBD49D"/>
		<stop  offset="0.1826" style="stop-color:#E1C481"/>
		<stop  offset="0.2328" style="stop-color:#DBBA71"/>
		<stop  offset="0.2704" style="stop-color:#D8B66B"/>
		<stop  offset="0.47" style="stop-color:#D8B66B;stop-opacity:0.5"/>
		<stop  offset="0.6734" style="stop-color:#D8B66B;stop-opacity:0"/>
	</radialGradient>
	<path class="st42" d="M666.2,780.5c0-47.4,1.5-85.8,3.4-85.8c1.9,0,3.4,38.5,3.4,85.9c0,47.4-1.5,72.8-3.4,72.8
		C667.7,853.3,666.2,827.9,666.2,780.5z"/>
	
		<radialGradient id="SVGID_43_" cx="43174.0391" cy="-2526.1555" r="32.0942" gradientTransform="matrix(-0.1022 -7.763410e-04 -6.312353e-04 -1.6742 5086.2808 -3421.7358)" gradientUnits="userSpaceOnUse">
		<stop  offset="8.368941e-02" style="stop-color:#F4E4B6"/>
		<stop  offset="0.1256" style="stop-color:#EBD49D"/>
		<stop  offset="0.1826" style="stop-color:#E1C481"/>
		<stop  offset="0.2328" style="stop-color:#DBBA71"/>
		<stop  offset="0.2704" style="stop-color:#D8B66B"/>
		<stop  offset="0.47" style="stop-color:#D8B66B;stop-opacity:0.5"/>
		<stop  offset="0.6734" style="stop-color:#D8B66B;stop-opacity:0"/>
	</radialGradient>
	<path class="st43" d="M670.9,778.2c0-31,1.5-56,3.4-56c1.9,0,3.4,25.1,3.4,56.1s-1.5,47.5-3.4,47.5
		C672.5,825.8,670.9,809.2,670.9,778.2z"/>
	
		<radialGradient id="SVGID_44_" cx="43128.168" cy="-2603.248" r="32.0942" gradientTransform="matrix(-0.1022 -8.305661e-04 -6.506590e-04 -1.7886 5086.209 -3846.2629)" gradientUnits="userSpaceOnUse">
		<stop  offset="8.368941e-02" style="stop-color:#F4E4B6"/>
		<stop  offset="0.1256" style="stop-color:#EBD49D"/>
		<stop  offset="0.1826" style="stop-color:#E1C481"/>
		<stop  offset="0.2328" style="stop-color:#DBBA71"/>
		<stop  offset="0.2704" style="stop-color:#D8B66B"/>
		<stop  offset="0.47" style="stop-color:#D8B66B;stop-opacity:0.5"/>
		<stop  offset="0.6734" style="stop-color:#D8B66B;stop-opacity:0"/>
	</radialGradient>
	<path class="st44" d="M675.6,778.5c0-33.1,1.5-59.9,3.4-59.9c1.9,0,3.4,26.8,3.4,59.9c0,33.1-1.5,50.8-3.4,50.8
		C677.2,829.3,675.7,811.6,675.6,778.5z"/>
	
		<radialGradient id="SVGID_45_" cx="43081.582" cy="-2477.5352" r="32.0942" gradientTransform="matrix(-0.1022 -7.454580e-04 -6.201729e-04 -1.609 5086.3223 -3180.3508)" gradientUnits="userSpaceOnUse">
		<stop  offset="8.368941e-02" style="stop-color:#F4E4B6"/>
		<stop  offset="0.1256" style="stop-color:#EBD49D"/>
		<stop  offset="0.1826" style="stop-color:#E1C481"/>
		<stop  offset="0.2328" style="stop-color:#DBBA71"/>
		<stop  offset="0.2704" style="stop-color:#D8B66B"/>
		<stop  offset="0.47" style="stop-color:#D8B66B;stop-opacity:0.5"/>
		<stop  offset="0.6734" style="stop-color:#D8B66B;stop-opacity:0"/>
	</radialGradient>
	<path class="st45" d="M680.4,778.1c0-29.8,1.5-53.9,3.4-53.9c1.9,0,3.4,24.1,3.4,53.9s-1.5,45.7-3.4,45.7
		C681.9,823.8,680.4,807.8,680.4,778.1z"/>
	
		<radialGradient id="SVGID_46_" cx="43034.4414" cy="-2175.96" r="32.0942" gradientTransform="matrix(-0.1022 -5.974647e-04 -5.671611e-04 -1.2969 5086.519 -2022.2413)" gradientUnits="userSpaceOnUse">
		<stop  offset="8.368941e-02" style="stop-color:#F4E4B6"/>
		<stop  offset="0.1256" style="stop-color:#EBD49D"/>
		<stop  offset="0.1826" style="stop-color:#E1C481"/>
		<stop  offset="0.2328" style="stop-color:#DBBA71"/>
		<stop  offset="0.2704" style="stop-color:#D8B66B"/>
		<stop  offset="0.47" style="stop-color:#D8B66B;stop-opacity:0.5"/>
		<stop  offset="0.6734" style="stop-color:#D8B66B;stop-opacity:0"/>
	</radialGradient>
	<path class="st46" d="M685.1,777.3c0-24,1.5-43.4,3.4-43.4c1.9,0,3.4,19.5,3.4,43.4s-1.5,36.8-3.4,36.8
		C686.6,814.1,685.1,801.3,685.1,777.3z"/>
	
		<radialGradient id="SVGID_47_" cx="42990.2148" cy="-2714.4548" r="32.0942" gradientTransform="matrix(-0.1022 -9.231683e-04 -6.838294e-04 -1.9839 5086.0859 -4571.5239)" gradientUnits="userSpaceOnUse">
		<stop  offset="8.368941e-02" style="stop-color:#F4E4B6"/>
		<stop  offset="0.1256" style="stop-color:#EBD49D"/>
		<stop  offset="0.1826" style="stop-color:#E1C481"/>
		<stop  offset="0.2328" style="stop-color:#DBBA71"/>
		<stop  offset="0.2704" style="stop-color:#D8B66B"/>
		<stop  offset="0.47" style="stop-color:#D8B66B;stop-opacity:0.5"/>
		<stop  offset="0.6734" style="stop-color:#D8B66B;stop-opacity:0"/>
	</radialGradient>
	<path class="st47" d="M689.8,779c0-36.7,1.5-66.4,3.4-66.4c1.9,0,3.4,29.8,3.4,66.5s-1.5,56.3-3.4,56.3
		C691.3,835.4,689.8,815.7,689.8,779z"/>
	
		<radialGradient id="SVGID_48_" cx="42944.1562" cy="-2760.3242" r="32.0942" gradientTransform="matrix(-0.1022 -9.675513e-04 -6.997276e-04 -2.0775 5086.0269 -4919.0835)" gradientUnits="userSpaceOnUse">
		<stop  offset="8.368941e-02" style="stop-color:#F4E4B6"/>
		<stop  offset="0.1256" style="stop-color:#EBD49D"/>
		<stop  offset="0.1826" style="stop-color:#E1C481"/>
		<stop  offset="0.2328" style="stop-color:#DBBA71"/>
		<stop  offset="0.2704" style="stop-color:#D8B66B"/>
		<stop  offset="0.47" style="stop-color:#D8B66B;stop-opacity:0.5"/>
		<stop  offset="0.6734" style="stop-color:#D8B66B;stop-opacity:0"/>
	</radialGradient>
	<path class="st48" d="M694.5,779.2c0-38.4,1.5-69.5,3.4-69.5c1.9,0,3.4,31.2,3.4,69.6s-1.5,59-3.4,59
		C696,838.2,694.5,817.7,694.5,779.2z"/>
	
		<radialGradient id="SVGID_49_" cx="42898.2461" cy="-2858.678" r="32.0942" gradientTransform="matrix(-0.1022 -1.078528e-03 -7.394800e-04 -2.3116 5085.8794 -5787.8901)" gradientUnits="userSpaceOnUse">
		<stop  offset="8.368941e-02" style="stop-color:#F4E4B6"/>
		<stop  offset="0.1256" style="stop-color:#EBD49D"/>
		<stop  offset="0.1826" style="stop-color:#E1C481"/>
		<stop  offset="0.2328" style="stop-color:#DBBA71"/>
		<stop  offset="0.2704" style="stop-color:#D8B66B"/>
		<stop  offset="0.47" style="stop-color:#D8B66B;stop-opacity:0.5"/>
		<stop  offset="0.6734" style="stop-color:#D8B66B;stop-opacity:0"/>
	</radialGradient>
	<path class="st49" d="M699.2,779.8c0-42.7,1.5-77.4,3.4-77.4c1.9,0,3.4,34.7,3.4,77.4s-1.5,65.6-3.4,65.6
		C700.8,845.5,699.2,822.6,699.2,779.8z"/>
	
		<radialGradient id="SVGID_50_" cx="42851.9727" cy="-2867.9932" r="32.0942" gradientTransform="matrix(-0.1022 -1.090185e-03 -7.436554e-04 -2.3362 5085.8643 -5879.4985)" gradientUnits="userSpaceOnUse">
		<stop  offset="8.368941e-02" style="stop-color:#F4E4B6"/>
		<stop  offset="0.1256" style="stop-color:#EBD49D"/>
		<stop  offset="0.1826" style="stop-color:#E1C481"/>
		<stop  offset="0.2328" style="stop-color:#DBBA71"/>
		<stop  offset="0.2704" style="stop-color:#D8B66B"/>
		<stop  offset="0.47" style="stop-color:#D8B66B;stop-opacity:0.5"/>
		<stop  offset="0.6734" style="stop-color:#D8B66B;stop-opacity:0"/>
	</radialGradient>
	<path class="st50" d="M704,779.9c0-43.2,1.5-78.2,3.4-78.2c1.9,0,3.4,35.1,3.4,78.3c0,43.2-1.5,66.3-3.4,66.3
		C705.5,846.2,704,823.1,704,779.9z"/>
	
		<radialGradient id="SVGID_51_" cx="42803.9883" cy="-2370.6096" r="32.0942" gradientTransform="matrix(-0.1022 -6.852387e-04 -5.986021e-04 -1.482 5086.4023 -2709.9885)" gradientUnits="userSpaceOnUse">
		<stop  offset="8.368941e-02" style="stop-color:#F4E4B6"/>
		<stop  offset="0.1256" style="stop-color:#EBD49D"/>
		<stop  offset="0.1826" style="stop-color:#E1C481"/>
		<stop  offset="0.2328" style="stop-color:#DBBA71"/>
		<stop  offset="0.2704" style="stop-color:#D8B66B"/>
		<stop  offset="0.47" style="stop-color:#D8B66B;stop-opacity:0.5"/>
		<stop  offset="0.6734" style="stop-color:#D8B66B;stop-opacity:0"/>
	</radialGradient>
	<path class="st51" d="M708.7,777.7c0-27.4,1.5-49.6,3.4-49.6c1.9,0,3.4,22.2,3.4,49.6c0,27.4-1.5,42.1-3.4,42.1
		C710.2,819.8,708.7,805.1,708.7,777.7z"/>
	
		<radialGradient id="SVGID_52_" cx="42758.4375" cy="-2525.9595" r="32.0942" gradientTransform="matrix(-0.1022 -7.758375e-04 -6.310169e-04 -1.6731 5086.2656 -3418.9875)" gradientUnits="userSpaceOnUse">
		<stop  offset="8.368941e-02" style="stop-color:#F4E4B6"/>
		<stop  offset="0.1256" style="stop-color:#EBD49D"/>
		<stop  offset="0.1826" style="stop-color:#E1C481"/>
		<stop  offset="0.2328" style="stop-color:#DBBA71"/>
		<stop  offset="0.2704" style="stop-color:#D8B66B"/>
		<stop  offset="0.47" style="stop-color:#D8B66B;stop-opacity:0.5"/>
		<stop  offset="0.6734" style="stop-color:#D8B66B;stop-opacity:0"/>
	</radialGradient>
	<path class="st52" d="M713.4,778.3c0-30.9,1.5-56,3.4-56c1.9,0,3.4,25.1,3.4,56c0,30.9-1.5,47.5-3.4,47.5
		C714.9,825.8,713.4,809.3,713.4,778.3z"/>
	
		<radialGradient id="SVGID_53_" cx="42712.4102" cy="-2574.603" r="32.0942" gradientTransform="matrix(-0.1022 -8.091476e-04 -6.429531e-04 -1.7434 5086.2222 -3679.884)" gradientUnits="userSpaceOnUse">
		<stop  offset="8.368941e-02" style="stop-color:#F4E4B6"/>
		<stop  offset="0.1256" style="stop-color:#EBD49D"/>
		<stop  offset="0.1826" style="stop-color:#E1C481"/>
		<stop  offset="0.2328" style="stop-color:#DBBA71"/>
		<stop  offset="0.2704" style="stop-color:#D8B66B"/>
		<stop  offset="0.47" style="stop-color:#D8B66B;stop-opacity:0.5"/>
		<stop  offset="0.6734" style="stop-color:#D8B66B;stop-opacity:0"/>
	</radialGradient>
	<path class="st53" d="M718.1,778.5c0-32.2,1.5-58.4,3.4-58.3c1.9,0,3.4,26.2,3.4,58.4s-1.5,49.5-3.4,49.5
		C719.7,828,718.1,810.7,718.1,778.5z"/>
	
		<radialGradient id="SVGID_54_" cx="42663.4258" cy="-1750.4133" r="32.0942" gradientTransform="matrix(-0.1022 -4.652254e-04 -5.197996e-04 -1.0179 5086.7007 -987.8626)" gradientUnits="userSpaceOnUse">
		<stop  offset="8.368941e-02" style="stop-color:#F4E4B6"/>
		<stop  offset="0.1256" style="stop-color:#EBD49D"/>
		<stop  offset="0.1826" style="stop-color:#E1C481"/>
		<stop  offset="0.2328" style="stop-color:#DBBA71"/>
		<stop  offset="0.2704" style="stop-color:#D8B66B"/>
		<stop  offset="0.47" style="stop-color:#D8B66B;stop-opacity:0.5"/>
		<stop  offset="0.6734" style="stop-color:#D8B66B;stop-opacity:0"/>
	</radialGradient>
	<path class="st54" d="M722.9,776.7c0-18.8,1.5-34.1,3.4-34.1c1.9,0,3.4,15.3,3.4,34.1c0,18.8-1.5,28.9-3.4,28.9
		C724.4,805.6,722.9,795.5,722.9,776.7z"/>
	
		<radialGradient id="SVGID_55_" cx="42619.2734" cy="-2296.4226" r="32.0942" gradientTransform="matrix(-0.1022 -6.488124e-04 -5.855219e-04 -1.4052 5086.4346 -2425.1592)" gradientUnits="userSpaceOnUse">
		<stop  offset="8.368941e-02" style="stop-color:#F4E4B6"/>
		<stop  offset="0.1256" style="stop-color:#EBD49D"/>
		<stop  offset="0.1826" style="stop-color:#E1C481"/>
		<stop  offset="0.2328" style="stop-color:#DBBA71"/>
		<stop  offset="0.2704" style="stop-color:#D8B66B"/>
		<stop  offset="0.47" style="stop-color:#D8B66B;stop-opacity:0.5"/>
		<stop  offset="0.6734" style="stop-color:#D8B66B;stop-opacity:0"/>
	</radialGradient>
	<path class="st55" d="M727.6,777.6c0-26,1.5-47,3.4-47c1.9,0,3.4,21.1,3.4,47.1s-1.5,39.9-3.4,39.9
		C729.1,817.6,727.6,803.6,727.6,777.6z"/>
	
		<radialGradient id="SVGID_56_" cx="42575.0938" cy="-2858.605" r="32.0942" gradientTransform="matrix(-0.1022 -1.077798e-03 -7.391662e-04 -2.3101 5085.8647 -5783.5981)" gradientUnits="userSpaceOnUse">
		<stop  offset="8.368941e-02" style="stop-color:#F4E4B6"/>
		<stop  offset="0.1256" style="stop-color:#EBD49D"/>
		<stop  offset="0.1826" style="stop-color:#E1C481"/>
		<stop  offset="0.2328" style="stop-color:#DBBA71"/>
		<stop  offset="0.2704" style="stop-color:#D8B66B"/>
		<stop  offset="0.47" style="stop-color:#D8B66B;stop-opacity:0.5"/>
		<stop  offset="0.6734" style="stop-color:#D8B66B;stop-opacity:0"/>
	</radialGradient>
	<path class="st56" d="M732.3,779.9c0-42.7,1.5-77.3,3.4-77.3c1.9,0,3.4,34.7,3.4,77.4c0,42.7-1.5,65.6-3.4,65.6
		C733.8,845.5,732.3,822.6,732.3,779.9z"/>
	
		<radialGradient id="SVGID_57_" cx="42523.6562" cy="-1356.8936" r="32.0942" gradientTransform="matrix(-0.1022 -3.852170e-04 -4.911299e-04 -0.8492 5086.8008 -361.7574)" gradientUnits="userSpaceOnUse">
		<stop  offset="8.368941e-02" style="stop-color:#F4E4B6"/>
		<stop  offset="0.1256" style="stop-color:#EBD49D"/>
		<stop  offset="0.1826" style="stop-color:#E1C481"/>
		<stop  offset="0.2328" style="stop-color:#DBBA71"/>
		<stop  offset="0.2704" style="stop-color:#D8B66B"/>
		<stop  offset="0.47" style="stop-color:#D8B66B;stop-opacity:0.5"/>
		<stop  offset="0.6734" style="stop-color:#D8B66B;stop-opacity:0"/>
	</radialGradient>
	<path class="st57" d="M737,776.2c0-15.7,1.5-28.4,3.4-28.4c1.9,0,3.4,12.7,3.4,28.4s-1.5,24.1-3.4,24.1
		C738.5,800.4,737,791.9,737,776.2z"/>
	
		<radialGradient id="SVGID_58_" cx="42480.8242" cy="-2276.0281" r="32.0942" gradientTransform="matrix(-0.1022 -6.394213e-04 -5.821585e-04 -1.3854 5086.4478 -2351.9036)" gradientUnits="userSpaceOnUse">
		<stop  offset="8.368941e-02" style="stop-color:#F4E4B6"/>
		<stop  offset="0.1256" style="stop-color:#EBD49D"/>
		<stop  offset="0.1826" style="stop-color:#E1C481"/>
		<stop  offset="0.2328" style="stop-color:#DBBA71"/>
		<stop  offset="0.2704" style="stop-color:#D8B66B"/>
		<stop  offset="0.47" style="stop-color:#D8B66B;stop-opacity:0.5"/>
		<stop  offset="0.6734" style="stop-color:#D8B66B;stop-opacity:0"/>
	</radialGradient>
	<path class="st58" d="M741.7,777.6c0-25.6,1.5-46.4,3.4-46.4c1.9,0,3.4,20.8,3.4,46.4c0,25.6-1.5,39.3-3.4,39.3
		C743.2,816.9,741.7,803.2,741.7,777.6z"/>
	
		<radialGradient id="SVGID_59_" cx="42429.1797" cy="-643.5992" r="32.0942" gradientTransform="matrix(-0.1022 -2.922152e-04 -4.577964e-04 -0.653 5086.8965 366.2206)" gradientUnits="userSpaceOnUse">
		<stop  offset="8.368941e-02" style="stop-color:#F4E4B6"/>
		<stop  offset="0.1256" style="stop-color:#EBD49D"/>
		<stop  offset="0.1826" style="stop-color:#E1C481"/>
		<stop  offset="0.2328" style="stop-color:#DBBA71"/>
		<stop  offset="0.2704" style="stop-color:#D8B66B"/>
		<stop  offset="0.47" style="stop-color:#D8B66B;stop-opacity:0.5"/>
		<stop  offset="0.6734" style="stop-color:#D8B66B;stop-opacity:0"/>
	</radialGradient>
	<path class="st59" d="M746.4,775.7c0-12.1,1.5-21.9,3.4-21.9c1.9,0,3.4,9.8,3.4,21.9c0,12.1-1.5,18.5-3.4,18.5
		C748,794.3,746.4,787.8,746.4,775.7z"/>
	
		<radialGradient id="SVGID_60_" cx="42379.5547" cy="436.1523" r="32.0942" gradientTransform="matrix(-0.1022 -2.120152e-04 -4.290892e-04 -0.4838 5087.0308 994.0994)" gradientUnits="userSpaceOnUse">
		<stop  offset="8.368941e-02" style="stop-color:#F4E4B6"/>
		<stop  offset="0.1256" style="stop-color:#EBD49D"/>
		<stop  offset="0.1826" style="stop-color:#E1C481"/>
		<stop  offset="0.2328" style="stop-color:#DBBA71"/>
		<stop  offset="0.2704" style="stop-color:#D8B66B"/>
		<stop  offset="0.47" style="stop-color:#D8B66B;stop-opacity:0.5"/>
		<stop  offset="0.6734" style="stop-color:#D8B66B;stop-opacity:0"/>
	</radialGradient>
	<path class="st60" d="M751.1,775.3c0-8.9,1.5-16.2,3.4-16.2c1.9,0,3.4,7.3,3.4,16.2s-1.5,13.7-3.4,13.7
		C752.6,789.1,751.1,784.3,751.1,775.3z"/>
	
		<radialGradient id="SVGID_61_" cx="42321.1992" cy="4085.6987" r="32.0942" gradientTransform="matrix(-0.1022 -1.049349e-04 -3.907286e-04 -0.258 5087.1587 1832.472)" gradientUnits="userSpaceOnUse">
		<stop  offset="8.368941e-02" style="stop-color:#F4E4B6"/>
		<stop  offset="0.1256" style="stop-color:#EBD49D"/>
		<stop  offset="0.1826" style="stop-color:#E1C481"/>
		<stop  offset="0.2328" style="stop-color:#DBBA71"/>
		<stop  offset="0.2704" style="stop-color:#D8B66B"/>
		<stop  offset="0.47" style="stop-color:#D8B66B;stop-opacity:0.5"/>
		<stop  offset="0.6734" style="stop-color:#D8B66B;stop-opacity:0"/>
	</radialGradient>
	<path class="st61" d="M755.8,774.7c0-4.8,1.5-8.6,3.4-8.6c1.9,0,3.4,3.9,3.4,8.6c0,4.8-1.5,7.3-3.4,7.3
		C757.3,782.1,755.8,779.5,755.8,774.7z"/>
	
		<radialGradient id="SVGID_62_" cx="42292.0391" cy="-849.553" r="32.0942" gradientTransform="matrix(-0.1022 -3.143077e-04 -4.657044e-04 -0.6996 5086.8599 193.0356)" gradientUnits="userSpaceOnUse">
		<stop  offset="8.368941e-02" style="stop-color:#F4E4B6"/>
		<stop  offset="0.1256" style="stop-color:#EBD49D"/>
		<stop  offset="0.1826" style="stop-color:#E1C481"/>
		<stop  offset="0.2328" style="stop-color:#DBBA71"/>
		<stop  offset="0.2704" style="stop-color:#D8B66B"/>
		<stop  offset="0.47" style="stop-color:#D8B66B;stop-opacity:0.5"/>
		<stop  offset="0.6734" style="stop-color:#D8B66B;stop-opacity:0"/>
	</radialGradient>
	<path class="st62" d="M760.5,775.9c0-12.9,1.5-23.4,3.4-23.4c1.9,0,3.4,10.5,3.4,23.4s-1.5,19.9-3.4,19.9
		C762,795.7,760.5,788.8,760.5,775.9z"/>
	
		<radialGradient id="SVGID_63_" cx="42229.2969" cy="4086.3562" r="32.0942" gradientTransform="matrix(-0.1022 -1.049220e-04 -3.907240e-04 -0.2579 5087.1587 1832.52)" gradientUnits="userSpaceOnUse">
		<stop  offset="8.368941e-02" style="stop-color:#F4E4B6"/>
		<stop  offset="0.1256" style="stop-color:#EBD49D"/>
		<stop  offset="0.1826" style="stop-color:#E1C481"/>
		<stop  offset="0.2328" style="stop-color:#DBBA71"/>
		<stop  offset="0.2704" style="stop-color:#D8B66B"/>
		<stop  offset="0.47" style="stop-color:#D8B66B;stop-opacity:0.5"/>
		<stop  offset="0.6734" style="stop-color:#D8B66B;stop-opacity:0"/>
	</radialGradient>
	<path class="st63" d="M765.2,774.7c0-4.8,1.5-8.6,3.4-8.6c1.9,0,3.4,3.9,3.4,8.6c0,4.8-1.5,7.3-3.4,7.3
		C766.7,782.1,765.2,779.5,765.2,774.7z"/>
	
		<radialGradient id="SVGID_64_" cx="45134.332" cy="4751.9248" r="32.0942" gradientTransform="matrix(-0.1022 -9.537848e-05 -3.873059e-04 -0.2378 5087.1636 1908.4052)" gradientUnits="userSpaceOnUse">
		<stop  offset="8.368941e-02" style="stop-color:#F4E4B6"/>
		<stop  offset="0.1256" style="stop-color:#EBD49D"/>
		<stop  offset="0.1826" style="stop-color:#E1C481"/>
		<stop  offset="0.2328" style="stop-color:#DBBA71"/>
		<stop  offset="0.2704" style="stop-color:#D8B66B"/>
		<stop  offset="0.47" style="stop-color:#D8B66B;stop-opacity:0.5"/>
		<stop  offset="0.6734" style="stop-color:#D8B66B;stop-opacity:0"/>
	</radialGradient>
	<path class="st64" d="M468,774.7c0-4.4,1.5-8,3.4-8c1.9,0,3.4,3.6,3.4,8s-1.5,6.8-3.4,6.7C469.5,781.4,468,779.1,468,774.7z"/>
	<g>
		<g>
			<g>
				<g>
					<path d="M710.7,727.5h-11.9c-1.2,0-2.2,1-2.2,2.2v76.7c0,1.2,1,2.2,2.2,2.2h10.9c3.7,0,15.1,0,15.1-14.1v-52.4
						C724.9,732.2,720.4,727.5,710.7,727.5z M708,737.9h1.5c1.8,0,2.9,0.2,3.3,0.6c0.4,0.4,0.6,1.5,0.6,3.2v52.3
						c0,1.8-0.2,2.9-0.7,3.4c-0.6,0.5-2,0.7-4.3,0.7H708V737.9z"/>
					<path d="M709.7,809.4h-10.9c-1.7,0-3-1.4-3-3v-76.7c0-1.7,1.4-3,3-3h11.9c10.1,0,15,5.1,15,15.5v52.4
						C725.7,804.4,720.3,809.4,709.7,809.4z M698.8,728.4c-0.7,0-1.3,0.6-1.3,1.3v76.7c0,0.7,0.6,1.3,1.3,1.3h10.9
						c6.1,0,14.3-1.4,14.3-13.2v-52.4c0-9.5-4.1-13.7-13.3-13.7H698.8z M708.5,799H708c-0.5,0-0.9-0.4-0.9-0.9v-60.2
						c0-0.5,0.4-0.9,0.9-0.9h1.5c2.1,0,3.3,0.3,4,0.9c0.6,0.6,0.9,1.8,0.9,3.9v52.3c0,2.2-0.3,3.4-1,4
						C712.6,798.8,711.1,799,708.5,799z M708.8,738.8v58.5c2.6,0,3.2-0.4,3.4-0.5c0,0,0.4-0.4,0.4-2.7v-52.3c0-2.2-0.4-2.6-0.4-2.6
						c0,0-0.4-0.4-2.7-0.4H708.8z"/>
				</g>
				<g>
					<path d="M694.3,798.1h-7.3v-19.3h6.8c1.2,0,2.2-1,2.2-2.2v-6.2c0-1.2-1-2.2-2.2-2.2h-6.8v-17h7.2c1.2,0,2.2-1,2.2-2.2v-6.2
						c0-1.2-1-2.2-2.2-2.2h-16.4c-1.2,0-2.2,1-2.2,2.2v63.7c0,1.2,1,2.2,2.2,2.2h16.5c1.2,0,2.2-1,2.2-2.2v-6.2
						C696.5,799.1,695.5,798.1,694.3,798.1z"/>
					<path d="M694.3,809.5h-16.5c-1.7,0-3-1.4-3-3v-63.7c0-1.7,1.4-3,3-3h16.4c1.7,0,3,1.4,3,3v6.2c0,1.7-1.4,3-3,3h-6.4v15.3h5.9
						c1.7,0,3,1.4,3,3v6.2c0,1.7-1.4,3-3,3h-5.9v17.6h6.5c1.7,0,3,1.4,3,3v6.2C697.3,808.2,696,809.5,694.3,809.5z M677.8,741.5
						c-0.7,0-1.3,0.6-1.3,1.3v63.7c0,0.7,0.6,1.3,1.3,1.3h16.5c0.7,0,1.3-0.6,1.3-1.3v-6.2c0-0.7-0.6-1.3-1.3-1.3h-7.3
						c-0.5,0-0.9-0.4-0.9-0.9v-19.3c0-0.5,0.4-0.9,0.9-0.9h6.8c0.7,0,1.3-0.6,1.3-1.3v-6.2c0-0.7-0.6-1.3-1.3-1.3h-6.8
						c-0.5,0-0.9-0.4-0.9-0.9v-17c0-0.5,0.4-0.9,0.9-0.9h7.2c0.7,0,1.3-0.6,1.3-1.3v-6.2c0-0.7-0.6-1.3-1.3-1.3H677.8z"/>
				</g>
				<g>
					<path d="M672.9,740.6h-7c-0.9,0-1.6,0.5-1.9,1.2c-0.4-0.7-1.1-1.2-1.9-1.2h-15.9c-1.2,0-2.2,1-2.2,2.2v63.7
						c0,1.2,1,2.2,2.2,2.2h7c1.2,0,2.2-1,2.2-2.2v-27.7h6.3c1.1,0,2-0.8,2.2-1.9v29.6c0,1.2,1,2.2,2.2,2.2h7c1.2,0,2.2-1,2.2-2.2
						v-63.7C675.1,741.6,674.1,740.6,672.9,740.6z M661.6,768.2h-6.3v-17h6.7c0.7,0,1.3-0.3,1.7-0.9v19.8
						C663.6,769,662.7,768.2,661.6,768.2z"/>
					<path d="M672.9,809.5h-7c-1.7,0-3-1.4-3-3v-27.1c-0.4,0.2-0.8,0.3-1.3,0.3h-5.4v26.9c0,1.7-1.4,3-3,3h-7c-1.7,0-3-1.4-3-3
						v-63.7c0-1.7,1.4-3,3-3h15.9c0.7,0,1.4,0.3,1.9,0.7c0.5-0.4,1.2-0.7,1.9-0.7h7c1.7,0,3,1.4,3,3v63.7
						C676,808.2,674.6,809.5,672.9,809.5z M663.8,776C663.8,776,663.8,776,663.8,776c0.5,0,0.9,0.4,0.9,0.9v29.6
						c0,0.7,0.6,1.3,1.3,1.3h7c0.7,0,1.3-0.6,1.3-1.3v-63.7c0-0.7-0.6-1.3-1.3-1.3h-7c-0.5,0-0.9,0.3-1.2,0.7
						c-0.3,0.6-1.3,0.6-1.6,0c-0.2-0.4-0.7-0.7-1.2-0.7h-15.9c-0.7,0-1.3,0.6-1.3,1.3v63.7c0,0.7,0.6,1.3,1.3,1.3h7
						c0.7,0,1.3-0.6,1.3-1.3v-27.7c0-0.5,0.4-0.9,0.9-0.9h6.3c0.7,0,1.2-0.5,1.3-1.1C663,776.3,663.3,776,663.8,776z M663.8,771
						c-0.4,0-0.8-0.3-0.9-0.8c-0.1-0.7-0.6-1.1-1.3-1.1h-6.3c-0.5,0-0.9-0.4-0.9-0.9v-17c0-0.5,0.4-0.9,0.9-0.9h6.7
						c0.4,0,0.8-0.2,1-0.5c0.2-0.3,0.6-0.4,1-0.3c0.4,0.1,0.6,0.5,0.6,0.8v19.8C664.6,770.6,664.3,770.9,663.8,771
						C663.8,771,663.8,771,663.8,771z M656.2,767.3h5.4c0.5,0,0.9,0.1,1.3,0.3v-15.7c-0.3,0.1-0.6,0.1-0.8,0.1h-5.9V767.3z"/>
				</g>
				<g>
					<path d="M641.4,740.6h-7c-1.2,0-2.2,1-2.2,2.2v56c-0.4-0.4-1-0.7-1.6-0.7h-7.2v-55.3c0-1.2-1-2.2-2.2-2.2h-7
						c-1.2,0-2.2,1-2.2,2.2v4.1c-1.4-4.2-4.8-6.3-10.1-6.3h-11.2c-1.2,0-2.2,1-2.2,2.2v63.7c0,1.2,1,2.2,2.2,2.2h7
						c1.2,0,2.2-1,2.2-2.2v-25.9h0.6c2.8,0,9.3,0,11.5-6.4v32.3c0,1.2,1,2.2,2.2,2.2h16.3c0.8,0,1.5-0.4,1.9-1.1
						c0.4,0.6,1.1,1.1,1.9,1.1h7c1.2,0,2.2-1,2.2-2.2v-63.7C643.6,741.6,642.6,740.6,641.4,740.6z M600.1,751.2h0.2
						c0.7,0,1.1,0,1.2,0.1c0,0.2,0.1,0.6,0.1,1.3v15.8c0,1-0.1,1.4-0.1,1.5c-0.1,0.1-0.5,0.1-1.4,0.2V751.2z"/>
					<path d="M641.4,809.5h-7c-0.7,0-1.3-0.2-1.9-0.7c-0.5,0.4-1.2,0.7-1.9,0.7h-16.3c-1.7,0-3-1.4-3-3v-28.9c-3,3.7-8,3.9-10.3,3.9
						v25c0,1.7-1.4,3-3,3h-7c-1.7,0-3-1.4-3-3v-63.7c0-1.7,1.4-3,3-3h11.2c4.1,0,7.2,1.2,9.2,3.7v-0.7c0-1.7,1.4-3,3-3h7
						c1.7,0,3,1.4,3,3v54.4h6.3c0.2,0,0.5,0,0.7,0.1v-54.5c0-1.7,1.4-3,3-3h7c1.7,0,3,1.4,3,3v63.7
						C644.4,808.2,643.1,809.5,641.4,809.5z M632.5,806.7c0.3,0,0.6,0.2,0.8,0.4c0.2,0.4,0.7,0.6,1.1,0.6h7c0.7,0,1.3-0.6,1.3-1.3
						v-63.7c0-0.7-0.6-1.3-1.3-1.3h-7c-0.7,0-1.3,0.6-1.3,1.3v56c0,0.4-0.2,0.7-0.6,0.8c-0.3,0.1-0.7,0-1-0.2
						c-0.2-0.3-0.6-0.4-0.9-0.4h-7.2c-0.5,0-0.9-0.4-0.9-0.9v-55.3c0-0.7-0.6-1.3-1.3-1.3h-7c-0.7,0-1.3,0.6-1.3,1.3v4.1
						c0,0.4-0.3,0.8-0.7,0.9c-0.4,0.1-0.8-0.2-1-0.6c-1.3-3.8-4.3-5.7-9.2-5.7h-11.2c-0.7,0-1.3,0.6-1.3,1.3v63.7
						c0,0.7,0.6,1.3,1.3,1.3h7c0.7,0,1.3-0.6,1.3-1.3v-25.9c0-0.5,0.4-0.9,0.9-0.9h0.6c2.8,0,8.7,0,10.7-5.8c0.1-0.4,0.6-0.6,1-0.6
						c0.4,0.1,0.7,0.4,0.7,0.9v32.3c0,0.7,0.6,1.3,1.3,1.3h16.3c0.5,0,0.9-0.2,1.1-0.6C631.9,806.8,632.2,806.7,632.5,806.7z
						 M600.1,771c-0.2,0-0.4-0.1-0.6-0.2c-0.2-0.2-0.3-0.4-0.3-0.6v-18.9c0-0.5,0.4-0.9,0.9-0.9h0.2c0.6,0,1.1,0,1.4,0.1
						c0.4,0.1,0.6,0.3,0.7,0.7c0.1,0.3,0.1,0.8,0.1,1.5v15.8c0,0.8-0.1,1.4-0.2,1.8c-0.1,0.2-0.3,0.4-0.5,0.5
						C601.4,770.9,600.9,770.9,600.1,771C600.1,771,600.1,771,600.1,771z"/>
				</g>
				<g>
					<path d="M586.1,740.6h-10c-1.1,0-2,0.8-2.2,1.9l-3.9,32.3l-3.7-32.3c-0.1-1.1-1.1-1.9-2.2-1.9h-10.1c-1.2,0-2.2,1-2.2,2.2v50.5
						l-9.2-63.9c-0.2-1.1-1.1-1.9-2.1-1.9h-9.7c-1.1,0-2,0.8-2.1,1.8l-11.5,76.7c-0.1,0.6,0.1,1.3,0.5,1.7c0.4,0.5,1,0.8,1.6,0.8h7
						c1.1,0,2-0.8,2.2-1.9l2.5-19.5h8.6l2.7,19.5c0.1,1.1,1.1,1.9,2.1,1.9h7c0.4,0,0.8-0.1,1.2-0.4c0.4,0.3,0.8,0.4,1.3,0.4h6.5
						c1.2,0,2.2-1,2.2-2.2v-8l0.9,8.3c0.1,1.1,1.1,1.9,2.2,1.9h8.2c1.1,0,2-0.8,2.2-1.9l1.2-10.2v9.9c0,1.2,1,2.2,2.2,2.2h6.5
						c1.2,0,2.2-1,2.2-2.2v-63.7C588.2,741.6,587.3,740.6,586.1,740.6z M532.4,777l3.2-24.4l2.9,24.4H532.4z"/>
					<path d="M586.1,809.5h-6.5c-1.2,0-2.3-0.7-2.8-1.8c-0.5,1-1.5,1.8-2.8,1.8h-8.2c-1.1,0-2.1-0.6-2.6-1.5
						c-0.5,0.9-1.5,1.5-2.6,1.5h-6.5c-0.5,0-0.9-0.1-1.3-0.3c-0.4,0.2-0.8,0.2-1.2,0.2h-7c-1.5,0-2.8-1.1-3-2.6l-2.6-18.7h-7.1
						l-2.4,18.7c-0.2,1.5-1.5,2.7-3,2.7h-7c-0.9,0-1.7-0.4-2.3-1.1c-0.6-0.7-0.8-1.6-0.7-2.4l11.5-76.7c0.2-1.5,1.5-2.6,3-2.6h9.7
						c1.5,0,2.8,1.1,3,2.6l7.5,51.8v-38.3c0-1.7,1.4-3,3-3h10.1c1.5,0,2.8,1.2,3,2.7l2.9,24.9l3-24.9c0.2-1.5,1.5-2.7,3-2.7h10
						c1.7,0,3,1.4,3,3v63.7C589.1,808.2,587.7,809.5,586.1,809.5z M577.4,795.7C577.4,795.7,577.4,795.7,577.4,795.7
						c0.5,0,0.9,0.4,0.9,0.9v9.9c0,0.7,0.6,1.3,1.3,1.3h6.5c0.7,0,1.3-0.6,1.3-1.3v-63.7c0-0.7-0.6-1.3-1.3-1.3h-10
						c-0.7,0-1.2,0.5-1.3,1.1L571,775c-0.1,0.4-0.4,0.8-0.9,0.8c0,0,0,0,0,0c-0.4,0-0.8-0.3-0.9-0.8l-3.7-32.3
						c-0.1-0.7-0.6-1.1-1.3-1.1h-10.1c-0.7,0-1.3,0.6-1.3,1.3v50.5c0,0.5-0.4,0.8-0.8,0.9c-0.4,0-0.9-0.3-0.9-0.7l-9.2-63.9
						c-0.1-0.6-0.6-1.1-1.3-1.1h-9.7c-0.6,0-1.2,0.5-1.3,1.1l-11.5,76.7c-0.1,0.4,0.1,0.8,0.3,1s0.6,0.4,1,0.4h7
						c0.6,0,1.2-0.5,1.3-1.1l2.5-19.5c0.1-0.4,0.4-0.8,0.9-0.8h8.6c0.4,0,0.8,0.3,0.9,0.8l2.7,19.5c0.1,0.6,0.6,1.1,1.3,1.1h7
						c0.2,0,0.5-0.1,0.7-0.2c0.3-0.2,0.7-0.2,1,0c0.2,0.2,0.5,0.3,0.8,0.3h6.5c0.7,0,1.3-0.6,1.3-1.3v-8c0-0.5,0.4-0.8,0.8-0.9
						c0.5,0,0.9,0.3,0.9,0.8l0.9,8.3c0.1,0.7,0.6,1.2,1.3,1.2h8.2c0.7,0,1.2-0.5,1.3-1.1l1.2-10.2C576.6,796,577,795.7,577.4,795.7z
						 M538.4,777.9h-6c-0.3,0-0.5-0.1-0.7-0.3c-0.2-0.2-0.2-0.4-0.2-0.7l3.2-24.4c0.1-0.4,0.4-0.8,0.9-0.8c0,0,0,0,0,0
						c0.4,0,0.8,0.3,0.9,0.8l2.9,24.4c0,0.2,0,0.5-0.2,0.7C538.9,777.8,538.7,777.9,538.4,777.9z M533.4,776.2h4l-1.9-16.4
						L533.4,776.2z"/>
				</g>
			</g>
			<radialGradient id="SVGID_65_" cx="552.2905" cy="640.2484" r="237.8737" gradientUnits="userSpaceOnUse">
				<stop  offset="0.1" style="stop-color:#D8B66B"/>
				<stop  offset="0.1447" style="stop-color:#DAB971"/>
				<stop  offset="0.2032" style="stop-color:#E0C381"/>
				<stop  offset="0.2691" style="stop-color:#EAD39C"/>
				<stop  offset="0.32" style="stop-color:#F3E3B6"/>
				<stop  offset="0.42" style="stop-color:#F3E3B6"/>
				<stop  offset="0.55" style="stop-color:#CFB479"/>
				<stop  offset="0.7" style="stop-color:#CFB479"/>
				<stop  offset="0.78" style="stop-color:#FDEEC4"/>
				<stop  offset="0.9" style="stop-color:#CFB479"/>
			</radialGradient>
			<path class="st65" d="M640.2,669.7c1-0.5,2-0.9,3.1-1.4v8.8h-3.1V669.7z M645.2,667.5v9.6h3.1v-10.9c-0.2,0.1-0.4,0.2-0.6,0.2
				C646.8,666.8,646,667.1,645.2,667.5z M650.1,677.1h3.1v-13c-1,0.4-2,0.8-3.1,1.3V677.1z M655.1,677.1h3.1v-15
				c-1,0.4-2,0.8-3.1,1.2V677.1z M625.4,677.1h3.1v-1.8c-1,0.5-2.1,1-3.1,1.5V677.1z M630.3,677.1h3.1v-4.2c-1,0.5-2.1,1-3.1,1.5
				V677.1z M635.3,677.1h3.1v-6.5c-1,0.5-2.1,0.9-3.1,1.4V677.1z M665,677.1h3.1v-18.8c-1,0.4-2,0.7-3.1,1.1V677.1z M660,677.1h3.1
				v-16.9c-1,0.4-2,0.8-3.1,1.2V677.1z M588.4,724.5l-4-27.6h-8.3v38.7h5.4v-27.2l0.7,4.6l3.4,22.6h4.5l3.6-22.6l0.7-4.6v27.2h5.9
				V697h-8.1L588.4,724.5z M614.6,682.6v44.7c0,1.9-0.8,2.9-2.4,2.9c-1.5,0-2.3-1-2.3-2.9v-41.9c-2.1,1.3-4,2.5-5.7,3.7v37.7
				c0,5.6,3.5,9.4,7.9,9.4c4.5,0,7.9-3.8,7.9-9.4v-47.3c-1.2,0.6-2.3,1.3-3.4,1.9C615.9,681.9,615.3,682.3,614.6,682.6z M628.9,689
				c0-2.3,1.2-3.4,2.8-3.4c1.5,0,2.3,1.2,2.3,3.6v8.1h5.1v-7.7c0-6.3-2.9-9.8-7.4-9.8c-5.9,0-8.4,4.5-8.4,10.9
				c0,5.7,3.6,14.2,6.1,19.8c2.9,6.4,4.5,11.1,4.5,16.6c0,2.4-0.9,3.8-2.9,3.8c-1.8,0-2.7-1.6-2.7-3.8v-7.7H623v7
				c0,6.1,3.1,9.8,8.2,9.8c3.3,0,8.2-2,8.2-10.6c0-5.8-2.6-12.6-5.7-19.4C630.6,699.1,628.9,695.9,628.9,689z M642.7,735.6h5.8
				v-55.1h-5.8V735.6z M660.5,679.9c-4.5,0-8.2,3.9-8.2,9.4v37.6c0,5.6,3.7,9.4,8.2,9.4c4.6,0,7.5-3.8,7.5-9.4v-10.6h-4.9v11.2
				c0,1.6-0.8,2.8-2.5,2.8c-1.7,0-2.6-1.2-2.6-2.8v-38.7c0-1.6,0.8-2.8,2.6-2.8c1.7,0,2.5,1.2,2.5,2.8v11.1h4.9v-10.5
				C668,683.8,665.1,679.9,660.5,679.9z M683.9,647.9c-0.2-1.1-1.2-1.7-2.2-1.5c-1,0.2-1.7,1.1-1.5,2.2c0.2,1.1,1.2,1.7,2.2,1.5
				C683.3,649.9,684.1,649,683.9,647.9z M683.4,648c0.2,0.8-0.4,1.5-1.1,1.6l0,0c-0.7,0.1-1.5-0.3-1.6-1.2c-0.1-0.8,0.4-1.5,1.1-1.6
				C682.5,646.7,683.2,647.1,683.4,648z M681.8,648.4l0.2,0l0.5,0.7l0.5-0.1l-0.6-0.7c0.2-0.1,0.4-0.2,0.4-0.5
				c-0.1-0.4-0.4-0.5-0.8-0.4l-0.7,0.1l0.3,1.8l0.4-0.1L681.8,648.4z M681.7,648.1l-0.1-0.4l0.3,0c0.2,0,0.3,0,0.4,0.1
				c0,0.2-0.1,0.3-0.2,0.3L681.7,648.1z M677.1,649.8c-27.1,7.6-78.2,28.3-114.6,44.8l-0.1,0.4l1,1.2l0.2-0.1
				c4.1-1.5,19.4-4.2,30.6-2.7l0.1,0l0.1-0.1c10.3-12,54.5-32.7,84.2-42l0.1-0.5l-1.5-1.1L677.1,649.8 M621.8,647.4
				c-0.6,0-1.5-0.2-2.1-0.7c-0.4-0.4-0.7-0.9-0.8-1.5c0-0.1,0-0.2,0-0.2c-0.1-1.9,1.7-3.4,3.4-3.4c0.8,0,1.5,0.2,2.1,0.7
				c0.5,0.5,0.8,1.1,0.8,1.8C625.2,645.6,623.9,647.3,621.8,647.4 M681.5,633.9l-0.4,0c0,0-1.9,2.8-3.7,3c-0.3,0-0.6,0-0.8-0.2
				c-0.5-0.6-0.2-2,0-2.6l-0.2-0.3l-1.4-0.2c0,0-3.2,4.7-4.7,6.7c0.6-1.9,1.7-4.9,1.7-4.9l-0.7-0.6l-4.2,1.7l-0.2,0.5l-1.1,3.1
				c-1.6,4.7-5.8,12.1-10.2,12.4c-1.1,0.1-1.7-0.6-1.9-2c0-0.1,0-0.1,0-0.2c4.9-1.8,8-5.1,7.9-8.5c0-0.1,0-0.2,0-0.3
				c-0.1-0.8-0.5-1.6-1.1-2.1c-0.6-0.6-1.5-0.9-2.5-0.8c-4.2,0.2-7.3,3.7-9.4,10.6c-2.1,5.1-4.4,7.5-5.8,7.5l-0.3-0.1
				c-0.1-0.1-0.2-0.3-0.2-0.9c0-0.6,0.2-2,0.6-3.5c0,0,4.9-15.7,4.9-15.7c0.2-0.8,0.4-1.1,0.5-1.2c0,0,0.1-0.1,0.1-0.1l0.2-0.2
				l-1-1.2l-0.2,0.1l-0.2,0.1c-1.7,1.1-5,2.5-5,2.5l-4,13.4c-2.5,7.3-4.4,10.5-6.5,10.6l-0.4-0.1c-0.2-0.2-0.3-0.4-0.3-0.7
				c0,0,0-0.1,0-0.2c0-0.5,0.1-1.3,0.6-3.3l4.8-16.2c0.2-0.8,0.4-1.1,0.5-1.2l0.3-0.3l-1-1.2l-0.4,0.2c-1.7,1-3.6,2-4.8,2.5
				c0.1,0-0.2,0.1-0.2,0.1l-0.1,0l0,0.1l-4.4,14.9c-2.1,6.3-4.3,9.8-6.1,9.9l-0.5-0.2c-0.2-0.1-0.3-0.4-0.3-0.7c0-0.1,0-0.1,0-0.2
				c0-0.4,0.1-0.9,0.3-1.5c0,0,0.2-0.7,3.3-10.5c0.2-0.6,0.5-1.1,0.7-1.3l0.3-0.3l-1-1.2l-0.4,0.2c-1.5,0.9-5,2.3-5,2.3l-2.6,8.8
				c-1.3,4.3-3.9,8.7-6.3,8.9c-0.3,0-0.5,0-0.6-0.1c-0.1-0.1-0.2-0.4-0.2-0.7c0-0.7,0.5-3.6,1.7-7.5c1.7-6,3.3-10.1,3.9-12.7
				c0.9-4.1-0.2-6.1-1.6-7.5c-0.4-0.4-0.6-0.7-0.6-0.7s-8.4,7.4-11.4,10c0-0.3-0.1-1.4-0.1-2.1c-0.1-2.1-1.4-3.6-2.2-4.3
				c-0.4-0.4-0.6-0.6-0.6-0.6l-0.2,0.2c0,0,0,0,0,0c-0.4,0.4-10.5,9.9-10.9,10.3c-1.8-3.3-6.6-6.4-14.9-5.6
				c-7.2,0.7-18.2,5.8-18.2,14.3c0,2.4,0.8,4.5,2.4,6c2,1.9,5.4,2.8,8.9,2.7c7.8-0.5,12.2-5.3,12.4-9.9c0,0,0-0.3,0-0.3l0-0.2
				l-0.2-0.1l-0.7-0.5c0,0-2.2,1.1-4.2,1.7c-2.2,0.6-4.3,0.9-4.3,0.9l-0.4,0.9l0,0.1c0.2,0.4,0.1,1.3-0.4,2.2
				c-0.5,0.9-1.7,1.9-4.1,2.1c-1.9,0.1-3.6-0.4-4.8-1.6c-1.1-1-1.7-2.5-1.7-4c0-6.1,7.4-10.6,14.3-11c2.9-0.2,5.4,0.6,7.2,2.3
				c1.8,1.7,2.7,4.2,2.7,7.2c0,11-7.9,22.8-10.3,26.2l-0.2,0.2l0.6,0.6l3.3-1.4l4.2-1.8l0-0.1c2.8-3.9,8.9-16.3,8.7-27.4
				c0,0,0-0.6,0-0.8c0.2-0.1,2.5-2,2.5-2c1.3-1,2.7-1.8,3.2-1.8c0.2,0,0.4,0,0.6,0.2c0.2,0.2,0.4,0.6,0.4,1.2
				c0.3,7.9-3.8,19.4-6.2,25.5l-0.1,0.2l0.6,0.6l2.4-1l3.7-1.6l0-0.1c3.1-8.6,5-16.1,5.9-24.1c0.2-0.1,3.2-2.4,3.2-2.4
				c1.1-0.8,2-1.2,2.6-1.2c0.2,0,0.4,0.1,0.4,0.1c0.1,0.1,0.3,0.4,0.3,1c0.1,1.8-1,5.2-2.1,8.8c-1.1,3.8-2.3,7.7-2.2,10
				c0,1.1,0.4,2,1.1,2.6c1,0.9,2.4,1,3.1,1c4-0.2,6.7-3.5,8.6-6.5c0.6,1.3,1.7,2,3.2,1.9c3.6-0.2,5.8-2.7,8.1-6.8
				c0.2,0.6,0.5,1.2,0.9,1.6c0.7,0.6,1.6,0.8,2.6,0.8c2.1-0.1,5-1.3,7.8-6.2c0.5,1.4,1.7,2.2,3.4,2.1c3.4-0.2,6.5-2.9,8.8-7.8
				c0.8,2,2.5,3.1,5,2.9c4-0.2,7.3-3.6,9.5-6.8c-0.4,1.3-0.8,2.8-0.8,2.8l0.3,0.7l4.7-1.6l0-0.1c0,0,1.2-4.1,3.3-7.3
				c1.5-2.3,2.5-3.6,2.9-4.1c0.5,0.6,1.9,1.9,4.5,0.6c2.9-1.5,3.7-4.6,3.8-4.7l0.1-0.1L681.5,633.9z M657.9,641.7
				c0.1,1.6-1.1,4.7-4.3,6.4c0.2-3.3,2.2-7.4,3.7-7.5l0.3,0.1c0.1,0.1,0.2,0.4,0.3,0.7C657.8,641.5,657.9,641.6,657.9,641.7
				 M544.6,806.4l-3-21.3h-12.4l-2.8,21.3h-7l11.5-76.7h9.7l11,76.7H544.6z M535.7,735l-5.7,44.2h10.9L535.7,735z M709.7,806.4
				h-10.9v-76.7h11.9c8.9,0,12,4.2,12,12.4v52.4C722.7,804.4,716.7,806.4,709.7,806.4z M715.7,741.8c0-4.7-1.4-6.1-6.2-6.1h-3.7
				v64.6h2.7c5.6,0,7.2-1.3,7.2-6.3V741.8z M694.3,806.5v-6.2h-9.5v-23.7h9v-6.2h-9V749h9.4v-6.2h-16.4v63.7H694.3z M672.9,806.5
				v-63.7h-7v63.7H672.9z M653.2,806.5v-29.9h8.5v-6.2h-8.5V749h8.9v-6.2h-15.9v63.7H653.2z M641.4,806.5v-63.7h-7v63.7H641.4z
				 M630.6,806.5v-6.2h-9.3v-57.5h-7v63.7H630.6z M590.9,806.5v-63.7h11.2c6,0,8.7,2.9,8.7,9.5V769c0,8.2-4.9,9.4-10.2,9.4h-2.7
				v28.1H590.9z M599.5,772.3c3.5,0,4.3-0.7,4.3-3.8v-15.8c0-3-0.6-3.6-3.5-3.6h-2.4v23.2H599.5z M586.1,806.5v-63.7h-10l-6.1,50.7
				l-5.8-50.7h-10.1v63.7h6.5v-46.8l5.3,46.8h8.2l5.5-47.3v47.3H586.1z"/>
		</g>
	</g>
</g>
<radialGradient id="SVGID_66_" cx="-26.2079" cy="21.0944" r="1622.6104" gradientUnits="userSpaceOnUse">
	<stop  offset="0.1" style="stop-color:#D8B66B"/>
	<stop  offset="0.1447" style="stop-color:#DAB971"/>
	<stop  offset="0.2032" style="stop-color:#E0C381"/>
	<stop  offset="0.2691" style="stop-color:#EAD39C"/>
	<stop  offset="0.32" style="stop-color:#F3E3B6"/>
	<stop  offset="0.42" style="stop-color:#F3E3B6"/>
	<stop  offset="0.55" style="stop-color:#CFB479"/>
	<stop  offset="0.7" style="stop-color:#CFB479"/>
	<stop  offset="0.78" style="stop-color:#FDEEC4"/>
	<stop  offset="0.9" style="stop-color:#CFB479"/>
</radialGradient>
<path class="st66" d="M199.6,225.4v-79.6h-19.2v79.6h-10.1v-88.9h39.4v88.9H199.6z M241.4,136.5c4.5,0,8.2,0.6,11.1,1.8
	c2.9,1.2,5.2,2.9,6.9,5.2c1.7,2.3,2.9,5,3.5,8.3c0.6,3.3,1,7,1,11.2c0,3.7-0.3,7.2-0.9,10.5c-0.6,3.2-1.7,6.1-3.5,8.5
	c-1.7,2.4-4.1,4.3-7.1,5.7c-3,1.4-7,2-11.8,2h-7.3v35.8h-10.1v-88.9H241.4z M233.3,180.3h6.9c3.1,0,5.5-0.5,7.3-1.4
	c1.8-0.9,3.2-2.2,4.2-3.7c1-1.5,1.6-3.3,1.9-5.4c0.3-2.1,0.4-4.2,0.4-6.5c0-2.4-0.1-4.7-0.4-6.8c-0.3-2.1-0.9-4-1.9-5.6
	c-0.9-1.6-2.3-2.8-4.1-3.7s-4.2-1.3-7.2-1.3h-7.2V180.3z M313.8,201.5c0,7.9-1.6,14-4.7,18.3c-3.1,4.3-8.4,6.5-15.9,6.5
	c-7.3,0-12.5-2-15.7-6c-3.1-4-4.7-9.3-4.7-15.8v-43.8c0-3.2,0.3-6.2,0.8-9.2c0.6-3,1.6-5.6,3.1-8c1.5-2.3,3.6-4.2,6.2-5.6
	c2.6-1.4,6.1-2.1,10.4-2.1c4.4,0,8,0.6,10.7,1.9c2.7,1.2,4.7,3,6.2,5.2c1.4,2.2,2.4,4.8,2.9,7.8c0.5,3,0.7,6.3,0.7,9.8V201.5z
	 M303.7,158.8c0-1.5-0.1-3.1-0.3-4.7c-0.2-1.6-0.7-3.1-1.3-4.4c-0.7-1.3-1.7-2.4-3.1-3.3s-3.3-1.3-5.6-1.3c-2.6,0-4.5,0.6-5.9,1.8
	c-1.4,1.2-2.4,2.7-3.1,4.4c-0.7,1.7-1.1,3.5-1.2,5.4c-0.1,1.9-0.2,3.5-0.2,4.8v43c0,1.3,0.1,2.6,0.4,4.1c0.3,1.4,0.8,2.8,1.5,4.1
	c0.8,1.3,1.8,2.3,3.1,3.1c1.3,0.8,3,1.2,5.2,1.2c2.1,0,3.9-0.4,5.2-1.3c1.4-0.8,2.4-1.9,3.2-3.2c0.8-1.3,1.3-2.8,1.6-4.5
	c0.3-1.7,0.4-3.4,0.4-5.2V158.8z M358.2,162.9l-22.5,62.5h-9.5v-88.9h9.7v62.9l0.5,0.1l22.2-63h9.6v88.9h-9.7v-62.5H358.2z
	 M338.4,118c0.1,0.9,0.3,1.7,0.8,2.7c0.4,0.9,1,1.8,1.7,2.6c0.7,0.8,1.6,1.5,2.6,2c1,0.5,2.2,0.8,3.5,0.8c1.4,0,2.6-0.3,3.6-0.8
	c1.1-0.5,2-1.2,2.7-2c0.8-0.8,1.3-1.7,1.7-2.6c0.4-0.9,0.6-1.8,0.6-2.7h8.1c-0.2,1.6-0.6,3.3-1.3,5.2c-0.7,1.8-1.7,3.5-3.1,5
	c-1.4,1.5-3.1,2.8-5.1,3.8c-2,1-4.5,1.5-7.3,1.5c-3.2,0-5.8-0.5-7.9-1.5c-2.1-1-3.9-2.3-5.2-3.8c-1.3-1.5-2.3-3.2-2.9-5
	c-0.6-1.8-0.9-3.6-0.9-5.2H338.4z M384.4,242.4h-8.9v-25.2l3.8-0.6c1.1-0.7,2.1-1.6,2.9-2.9c0.9-1.2,1.6-2.9,2.2-4.9
	s1.1-4.6,1.5-7.7c0.3-3.1,0.6-6.8,0.8-11.2l1.5-53.4h37.7v80.3h4.5v25.7h-8.9v-17h-37.1V242.4z M415.8,216.7v-71.4h-18.7l-1.4,45.2
	c-0.2,6.4-0.6,11.7-1.4,15.8c-0.8,4.2-2,7.6-3.8,10.4H415.8z M470.4,162.9l-22.5,62.5h-9.5v-88.9h9.7v62.9l0.5,0.1l22.2-63h9.6v88.9
	h-9.7v-62.5H470.4z M536.7,136.5c4.5,0,8.2,0.6,11.1,1.8c2.9,1.2,5.2,2.9,6.9,5.2c1.7,2.3,2.9,5,3.5,8.3c0.6,3.3,1,7,1,11.2
	c0,3.7-0.3,7.2-0.9,10.5c-0.6,3.2-1.7,6.1-3.5,8.5c-1.7,2.4-4.1,4.3-7.1,5.7c-3,1.4-7,2-11.8,2h-7.3v35.8h-10.1v-88.9H536.7z
	 M528.7,180.3h6.9c3.1,0,5.5-0.5,7.3-1.4c1.8-0.9,3.2-2.2,4.2-3.7c1-1.5,1.6-3.3,1.9-5.4s0.4-4.2,0.4-6.5c0-2.4-0.2-4.7-0.4-6.8
	c-0.3-2.1-0.9-4-1.9-5.6c-0.9-1.6-2.3-2.8-4.1-3.7s-4.2-1.3-7.2-1.3h-7.2V180.3z M569,225.4v-88.9h38.1v9.3h-28v29.8h24.3v9.3h-24.3
	v31.2h28v9.3H569z M625.9,145.8v79.6h-10.1v-88.9h36v9.3H625.9z M693.1,162.9l-22.5,62.5h-9.5v-88.9h9.7v62.9l0.5,0.1l22.2-63h9.6
	v88.9h-9.7v-62.5H693.1z M735.7,135.7c6.9,0,11.9,1.9,15,5.6c3.1,3.8,4.7,8.6,4.7,14.7l-10.1,1.8c0.1-3.9-0.6-7-2.1-9.3
	c-1.5-2.3-4-3.5-7.6-3.5c-2,0-3.7,0.5-5,1.4c-1.3,0.9-2.3,2.1-3,3.5c-0.7,1.4-1.2,3-1.5,4.7c-0.3,1.7-0.4,3.3-0.4,4.9v44.9
	c0,1.3,0.1,2.7,0.4,4.2c0.3,1.5,0.7,2.9,1.5,4.1c0.7,1.2,1.7,2.3,2.9,3.1c1.2,0.9,2.9,1.3,4.9,1.3c3.3,0,5.8-1,7.3-3.1
	c1.6-2,2.4-5.3,2.5-9.7l10.4,1.8c-0.2,6.4-1.9,11.4-5.2,15c-3.3,3.6-8.2,5.4-14.8,5.4c-6.7,0-11.8-1.9-15.1-5.6c-3.3-3.7-5-9-5-15.8
	v-44c0-3.2,0.3-6.2,0.8-9.3c0.6-3,1.6-5.7,3-8.1c1.4-2.3,3.5-4.2,6.1-5.7C728.2,136.4,731.6,135.7,735.7,135.7z M784.5,145.8v79.6
	h-10.1v-79.6h-15.1v-9.3h40.3v9.3H784.5z M825.3,136.5c4.5,0,8.2,0.6,11.1,1.8c2.9,1.2,5.2,2.9,6.9,5.2c1.7,2.3,2.9,5,3.5,8.3
	c0.6,3.3,1,7,1,11.2c0,3.7-0.3,7.2-0.9,10.5c-0.6,3.2-1.7,6.1-3.5,8.5c-1.7,2.4-4.1,4.3-7.1,5.7c-3,1.4-7,2-11.8,2h-7.3v35.8h-10.1
	v-88.9H825.3z M817.2,180.3h6.9c3.1,0,5.5-0.5,7.3-1.4c1.8-0.9,3.2-2.2,4.2-3.7c1-1.5,1.6-3.3,1.9-5.4s0.4-4.2,0.4-6.5
	c0-2.4-0.2-4.7-0.4-6.8c-0.3-2.1-0.9-4-1.9-5.6c-0.9-1.6-2.3-2.8-4.1-3.7s-4.2-1.3-7.2-1.3h-7.2V180.3z M883.7,225.4l-4.1-19.8
	h-19.8l-4,19.8h-9.7l18.9-88.9h9.5l19.2,88.9H883.7z M869.3,154.8l-3.7,20.7l-4.2,20.8h16.4l-4.3-21.1l-3.6-20.4H869.3z
	 M941.9,136.5v79.4h4.6v26.3h-8.9v-16.7h-35.9v-88.9h10.1v79.4h20.1v-79.4H941.9z M987.4,162.9l-22.5,62.5h-9.5v-88.9h9.7v62.9
	l0.5,0.1l22.2-63h9.6v88.9h-9.7v-62.5H987.4z M1070.5,201.5c0,7.8-1.5,13.9-4.6,18.3s-8.2,6.5-15.3,6.5c-3.5,0-6.5-0.5-8.9-1.6
	c-2.5-1.1-4.5-2.6-6.1-4.5c-1.6-1.9-2.7-4.2-3.5-6.9c-0.7-2.7-1.1-5.6-1.1-8.9v-20.1h-10.2v41h-10.1v-88.9h10.1v39.1h10.2v-15
	c0-3.2,0.3-6.2,0.8-9.2c0.5-3,1.5-5.6,2.9-8c1.4-2.3,3.5-4.2,6-5.6c2.6-1.4,5.8-2.1,9.8-2.1c4.2,0,7.6,0.6,10.2,1.9
	c2.6,1.2,4.7,3,6.1,5.2c1.4,2.2,2.4,4.8,2.9,7.8c0.5,3,0.8,6.3,0.8,9.8V201.5z M1060.4,158.8c0-1.5-0.1-3.1-0.3-4.7
	c-0.2-1.6-0.6-3.1-1.3-4.4c-0.7-1.3-1.7-2.4-3-3.3c-1.3-0.9-3.1-1.3-5.3-1.3c-2.5,0-4.3,0.6-5.6,1.8c-1.3,1.2-2.2,2.7-2.8,4.4
	c-0.6,1.7-0.9,3.5-1,5.4c-0.1,1.9-0.1,3.5-0.1,4.8v43c0,1.3,0.1,2.6,0.3,4.1c0.2,1.4,0.7,2.8,1.3,4.1c0.7,1.3,1.6,2.3,2.9,3.1
	c1.2,0.8,2.9,1.2,4.9,1.2c2,0,3.7-0.4,5-1.3c1.3-0.8,2.3-1.9,3-3.2c0.7-1.3,1.2-2.8,1.5-4.5s0.4-3.4,0.4-5.2V158.8z M205.1,322.8
	c0,6.4-1.4,11.3-4.3,14.5c-2.9,3.3-7.4,4.9-13.6,4.9c-6.2,0-10.7-1.6-13.5-4.7c-2.8-3.1-4.2-7.7-4.2-13.6v-37c0-2.9,0.3-5.5,1-7.9
	c0.7-2.4,1.7-4.5,3.1-6.2c1.4-1.7,3.3-3.1,5.5-4c2.3-1,5-1.4,8.2-1.4c3.4,0,6.2,0.4,8.5,1.3c2.3,0.9,4.1,2.2,5.5,3.9
	c1.4,1.7,2.4,3.7,3,6.1c0.6,2.4,0.9,5.1,0.9,8.1V322.8z M193.7,285.9c0-2-0.4-3.9-1.3-5.5c-0.9-1.6-2.6-2.4-5-2.4
	c-1.3,0-2.4,0.3-3.3,0.9c-0.8,0.6-1.5,1.3-2,2.2c-0.5,0.9-0.8,1.9-1,3c-0.2,1.1-0.3,2.1-0.3,3v37c0,1.9,0.5,3.6,1.4,5.1
	c1,1.5,2.6,2.3,4.9,2.3s4-0.8,5-2.4c1-1.6,1.5-3.5,1.5-5.8V285.9z M233.7,278.6v62.9h-11.4v-62.9h-11.8V268h35.1v10.7H233.7z
	 M274.6,341.6V279H263v62.6h-11.4V268H286v73.6H274.6z M313.3,268c6.8,0,11.7,1.8,14.9,5.3c3.1,3.5,4.7,9.2,4.7,17
	c0,3.5-0.3,6.6-1,9.4c-0.6,2.8-1.7,5.2-3.3,7.2c-1.6,2-3.6,3.6-6.1,4.7c-2.5,1.1-5.7,1.7-9.5,1.7h-4.7v28.2H297V268H313.3z
	 M308.4,278.6v23.8h4c3.5,0,6-1,7.4-3c1.4-2,2.1-5,2.1-9.1c0-3.6-0.7-6.5-2-8.6c-1.3-2.1-3.7-3.1-7.2-3.1H308.4z M361.8,341.6
	l-2.9-15.3h-13.5c-0.5,2.5-1,5.1-1.4,7.7c-0.5,2.6-0.9,5.1-1.3,7.7H331c2.5-12.3,4.9-24.6,7.4-36.8c2.5-12.2,4.9-24.5,7.4-36.8h12.7
	l14.9,73.6H361.8z M351.8,285c-0.7,5.1-1.4,10.1-2.2,15.2c-0.8,5-1.6,10.2-2.5,15.4h10.1l-4.8-30.6H351.8z M406.7,303.1
	c3.2,1.1,5.5,3.1,6.7,6c1.2,3,1.8,6.3,1.8,10.2c0,7.7-1.6,13.3-4.9,16.9c-3.3,3.6-8.3,5.4-15.1,5.4H380V268H396
	c6.5,0,11.2,1.7,14.1,5.1c2.9,3.4,4.4,8.4,4.4,14.9c0,3.4-0.6,6.3-1.7,8.9c-1.2,2.5-3.2,4.4-6.1,5.7V303.1z M403.7,288.2
	c0-3.4-0.7-5.8-2-7.3c-1.3-1.5-3.6-2.2-6.7-2.2h-3.6v19h3.7c3,0,5.1-0.8,6.5-2.4C403,293.6,403.7,291.3,403.7,288.2z M404.3,318.3
	c0-3.5-0.6-6-1.9-7.7s-3.5-2.5-6.7-2.5h-4.3v22.9h4.5c1.8,0,3.3-0.3,4.4-1c1.1-0.7,1.9-1.6,2.5-2.7c0.6-1.1,1-2.5,1.2-4
	C404.2,321.6,404.3,320,404.3,318.3z M462.3,268v73.6h-11.4v-62.9h-11.1V307c0,5.9-0.2,10.9-0.6,14.9c-0.4,4-1.2,7.4-2.3,10.2
	c-1.1,2.8-2.6,5-4.5,6.7c-1.9,1.7-4.4,3.3-7.4,4.6l-4.3-8.5c1.8-1.1,3.3-2.2,4.5-3.5c1.2-1.3,2.1-2.8,2.8-4.7
	c0.7-1.8,1.2-4.1,1.4-6.7c0.2-2.6,0.4-5.9,0.4-9.9V268H462.3z M470.6,341.6l4.1-23.4c0.5-2.5,1.3-4.7,2.3-6.7c1.1-2,2.5-3.6,4.4-4.7
	c-3.4-1.4-5.7-3.5-7-6.4c-1.3-2.9-1.9-6.3-1.9-10.3c0-7.3,1.7-12.8,5.2-16.5c3.5-3.7,8.3-5.6,14.3-5.6H509v73.6h-11.4v-31.4h-3
	c-2,0-3.8,0.8-5.4,2.3c-1.7,1.6-2.8,4.3-3.5,8.3l-3.5,20.8H470.6z M493.2,278.6c-3.5,0-5.9,1-7.2,3.1c-1.4,2.1-2.1,4.8-2.1,8.2
	c0,3.6,0.9,6.1,2.6,7.5c1.7,1.4,3.9,2.1,6.6,2.1h4.5v-20.8H493.2z M545.7,295.5l-15.4,46.1h-11V268h11.1v46.7h0.4l15.3-46.7h11.1
	v73.6h-11.2v-46.1H545.7z M532,251.2c0.1,0.8,0.3,1.6,0.7,2.4c0.4,0.8,0.9,1.6,1.5,2.3c0.6,0.7,1.3,1.3,2.1,1.7
	c0.8,0.5,1.7,0.7,2.6,0.7c1.1,0,2-0.2,2.8-0.7c0.8-0.5,1.5-1,2.1-1.7c0.6-0.7,1-1.5,1.3-2.3c0.3-0.8,0.5-1.6,0.5-2.4h8.4
	c-0.1,1.5-0.5,3.1-1.2,4.8c-0.6,1.7-1.6,3.3-2.8,4.8c-1.2,1.4-2.8,2.6-4.5,3.6c-1.8,1-4,1.4-6.5,1.4c-2.8,0-5.1-0.5-7-1.4
	c-1.9-1-3.5-2.2-4.7-3.6c-1.2-1.4-2.1-3-2.6-4.8c-0.6-1.7-0.9-3.3-1-4.8H532z M585.1,267.3c3,0,5.6,0.4,7.8,1.3c2.2,0.8,4,2,5.4,3.5
	c1.4,1.5,2.5,3.3,3.2,5.4c0.7,2.1,1,4.3,1,6.8l-11.1,2.9c0-2.7-0.5-4.9-1.5-6.6c-1-1.7-2.6-2.5-4.9-2.5c-1.3,0-2.4,0.3-3.3,0.8
	c-0.8,0.6-1.5,1.3-1.9,2.2c-0.5,0.9-0.8,1.8-0.9,2.9c-0.2,1-0.3,2-0.3,2.9v37.4c0,0.7,0.1,1.5,0.2,2.3c0.1,0.8,0.4,1.6,0.9,2.4
	c0.5,0.7,1.1,1.4,1.9,1.9c0.8,0.5,1.8,0.7,3.1,0.7c4.2,0,6.3-3,6.4-9.1c1.9,0.4,3.8,0.7,5.7,0.9c1.9,0.2,3.8,0.5,5.7,0.8
	c-0.1,5.6-1.7,10-4.6,13.2c-2.9,3.2-7.2,4.9-13,4.9c-6.1,0-10.5-1.5-13.4-4.6c-2.9-3.1-4.3-7.6-4.3-13.5v-36.7
	c0-2.8,0.3-5.3,0.9-7.8c0.6-2.4,1.6-4.6,3-6.4c1.4-1.8,3.3-3.3,5.6-4.3C579,267.8,581.8,267.3,585.1,267.3z M608,341.6l4.1-23.4
	c0.5-2.5,1.3-4.7,2.3-6.7c1.1-2,2.5-3.6,4.4-4.7c-3.4-1.4-5.7-3.5-7-6.4c-1.3-2.9-1.9-6.3-1.9-10.3c0-7.3,1.7-12.8,5.2-16.5
	c3.5-3.7,8.3-5.6,14.3-5.6h16.8v73.6H635v-31.4h-3c-2,0-3.8,0.8-5.4,2.3c-1.7,1.6-2.8,4.3-3.5,8.3l-3.5,20.8H608z M630.6,278.6
	c-3.5,0-5.9,1-7.2,3.1c-1.4,2.1-2.1,4.8-2.1,8.2c0,3.6,0.9,6.1,2.6,7.5c1.7,1.4,3.9,2.1,6.6,2.1h4.5v-20.8H630.6z M687.6,322.4
	c0.1,3.2,0.7,5.5,1.8,6.8c1.1,1.3,2.7,2,4.7,2c2,0,3.6-0.9,4.7-2.8c1.1-1.8,1.6-4.8,1.6-8.8c0-7.5-2.2-11.3-6.5-11.3h-4.4v-9.7h4.7
	c2.2,0,3.8-1,4.8-3c1-2,1.5-4.7,1.5-8.2c0-2.9-0.6-5.1-1.8-6.7c-1.2-1.6-2.9-2.4-5-2.4c-2.3,0-3.9,0.8-4.9,2.5
	c-1,1.7-1.6,3.8-1.6,6.3l-11-2.4c0.4-5.5,2.1-9.8,5.3-12.9c3.2-3.1,7.4-4.6,12.6-4.6c11.8,0,17.7,6.6,17.7,19.7
	c0,1.2-0.1,2.6-0.2,4.1c-0.1,1.6-0.4,3.1-0.9,4.7c-0.5,1.6-1.1,3.1-1.9,4.4c-0.8,1.3-1.9,2.4-3.2,3.1v0.3c1.3,0.6,2.3,1.5,3.2,2.7
	c0.8,1.2,1.5,2.5,2,3.9c0.5,1.4,0.8,3,1.1,4.7c0.2,1.7,0.3,3.4,0.3,5.1c0,7.7-1.5,13.3-4.6,16.9c-3.1,3.6-7.6,5.3-13.5,5.3
	c-5.4,0-9.7-1.5-12.9-4.5c-3.2-3-4.8-7.4-4.8-13L687.6,322.4z M748,341.6l-2.9-15.3h-13.5c-0.5,2.5-1,5.1-1.4,7.7
	c-0.5,2.6-0.9,5.1-1.3,7.7h-11.6c2.5-12.3,4.9-24.6,7.4-36.8c2.5-12.2,4.9-24.5,7.4-36.8h12.7l14.9,73.6H748z M738.1,285
	c-0.7,5.1-1.4,10.1-2.2,15.2c-0.8,5-1.6,10.2-2.5,15.4h10.1l-4.8-30.6H738.1z M785.1,341.6l4.1-23.4c0.5-2.5,1.3-4.7,2.3-6.7
	c1.1-2,2.5-3.6,4.4-4.7c-3.4-1.4-5.7-3.5-7-6.4c-1.3-2.9-1.9-6.3-1.9-10.3c0-7.3,1.7-12.8,5.2-16.5c3.5-3.7,8.3-5.6,14.3-5.6h16.8
	v73.6h-11.4v-31.4h-3c-2,0-3.8,0.8-5.4,2.3c-1.7,1.6-2.8,4.3-3.5,8.3l-3.5,20.8H785.1z M807.7,278.6c-3.5,0-5.9,1-7.2,3.1
	c-1.4,2.1-2.1,4.8-2.1,8.2c0,3.6,0.9,6.1,2.6,7.5c1.7,1.4,3.9,2.1,6.6,2.1h4.5v-20.8H807.7z M850.5,268c6.8,0,11.7,1.8,14.9,5.3
	c3.1,3.5,4.7,9.2,4.7,17c0,3.5-0.3,6.6-1,9.4c-0.6,2.8-1.7,5.2-3.3,7.2c-1.6,2-3.6,3.6-6.1,4.7c-2.5,1.1-5.7,1.7-9.5,1.7h-4.7v28.2
	h-11.4V268H850.5z M845.7,278.6v23.8h4c3.5,0,6-1,7.4-3c1.4-2,2.1-5,2.1-9.1c0-3.6-0.7-6.5-2-8.6c-1.3-2.1-3.7-3.1-7.2-3.1H845.7z
	 M877.8,341.6V268h11.4v31.1h2.3c2.5,0,4.6-0.7,6.2-2.2c1.6-1.5,2.9-4.1,3.7-7.9c0.1-0.6,0.4-2,0.9-4c0.5-2,0.9-4.2,1.4-6.5
	c0.5-2.3,0.9-4.4,1.3-6.5c0.4-2,0.7-3.3,0.8-4h10.7c-0.8,3.7-1.6,7.4-2.3,11.1c-0.8,3.6-1.6,7.3-2.3,10.9c-0.8,3.6-2,6.5-3.5,8.7
	s-3.4,3.8-5.4,4.6v0.2c2.7,1,4.8,2.6,6.2,4.8c1.5,2.2,2.6,5.1,3.4,8.7c0.9,4.2,1.8,8.3,2.6,12.3c0.8,4.1,1.7,8.1,2.6,12.2h-11.4
	c-0.7-3.6-1.4-7.2-2.1-10.8c-0.7-3.6-1.4-7.2-2.2-10.8c-0.8-3.9-2-6.7-3.5-8.3c-1.6-1.6-3.7-2.3-6.2-2.3h-3.1v32.2H877.8z
	 M950.3,295.5l-15.4,46.1h-11V268h11.1v46.7h0.4l15.3-46.7h11.1v73.6h-11.2v-46.1H950.3z M993.8,325.5l-5.3-13.6L984,299h-0.5v42.6
	h-11.4V268h11.1l8,20.9l5.8,16h0.5l5.9-16.4l7.9-20.5h11v73.6h-11.4v-42.4h-0.4l-4.6,13.1l-5.2,13.2H993.8z M1059,295.5l-15.4,46.1
	h-11V268h11.1v46.7h0.4l15.3-46.7h11.1v73.6h-11.2v-46.1H1059z M193.4,410.6c2.8,0.9,4.7,2.7,5.8,5.2c1,2.6,1.6,5.5,1.6,8.8
	c0,6.7-1.4,11.5-4.3,14.7c-2.8,3.1-7.2,4.7-13.1,4.7h-13.2v-63.8h13.9c5.6,0,9.7,1.5,12.2,4.4c2.5,3,3.8,7.3,3.8,12.9
	c0,2.9-0.5,5.5-1.5,7.7c-1,2.2-2.8,3.8-5.3,5V410.6z M190.7,397.7c0-2.9-0.6-5-1.7-6.3c-1.2-1.3-3.1-1.9-5.8-1.9h-3.1v16.5h3.2
	c2.6,0,4.4-0.7,5.6-2.1C190.1,402.4,190.7,400.3,190.7,397.7z M191.3,423.8c0-3-0.5-5.2-1.6-6.7c-1.1-1.5-3-2.2-5.8-2.2h-3.8v19.8
	h3.9c1.6,0,2.9-0.3,3.8-0.9c0.9-0.6,1.7-1.4,2.2-2.3c0.5-1,0.9-2.1,1-3.5C191.2,426.7,191.3,425.2,191.3,423.8z M229.6,443.9v-54.3
	h-10.1v54.3h-9.9v-63.8h29.9v63.8H229.6z M249,443.9v-63.8h28.3v9.3h-18.4v17.4h16v9.4h-16v18.4h18.4v9.3H249z M292.7,380.1v23.3
	c0,2.7,0.5,4.5,1.5,5.4c1,0.9,2.5,1.4,4.5,1.4c0.7,0,1.5-0.1,2.5-0.3c0.9-0.2,1.8-0.5,2.6-0.8v-29h9.9v63.8h-9.9v-26
	c-1.2,0.4-2.5,0.6-3.7,0.8c-1.3,0.2-2.4,0.2-3.5,0.2c-2.1,0-4-0.2-5.7-0.7c-1.7-0.5-3.1-1.3-4.3-2.4c-1.2-1.1-2.1-2.6-2.7-4.4
	c-0.6-1.8-1-4-1-6.6v-24.6H292.7z M346.1,443.9l-2.5-13.3h-11.7c-0.4,2.2-0.8,4.4-1.2,6.6c-0.4,2.2-0.8,4.4-1.1,6.6h-10.1
	c2.1-10.7,4.3-21.3,6.4-31.9c2.1-10.6,4.3-21.2,6.4-31.9h11l12.9,63.8H346.1z M337.5,394.9c-0.6,4.4-1.3,8.8-1.9,13.2
	c-0.7,4.4-1.4,8.8-2.2,13.3h8.7l-4.1-26.5H337.5z M374.8,389.4v54.5h-9.9v-54.5h-10.3v-9.3h30.4v9.3H374.8z M422.2,380.1v63.8h-9.9
	v-54.5h-9.6V414c0,5.1-0.2,9.5-0.5,12.9c-0.4,3.5-1,6.4-2,8.8c-1,2.4-2.3,4.3-3.9,5.8c-1.7,1.5-3.8,2.8-6.4,4l-3.8-7.3
	c1.6-0.9,2.9-1.9,3.9-3c1-1.1,1.8-2.4,2.4-4c0.6-1.6,1-3.5,1.2-5.8c0.2-2.3,0.3-5.1,0.3-8.6v-36.7H422.2z M431.8,443.9v-63.8h28.3
	v9.3h-18.4v17.4h16v9.4h-16v18.4h18.4v9.3H431.8z M487.9,443.9v-27.9h-11.4v27.9h-9.9v-63.8h9.9v26.7h11.4v-26.7h9.9v63.8H487.9z
	 M529.8,404l-13.4,40h-9.5v-63.8h9.6v40.4h0.4l13.3-40.4h9.6v63.8h-9.7v-40H529.8z M546.6,443.9l3.6-20.3c0.4-2.1,1.1-4.1,2-5.8
	c0.9-1.7,2.2-3.1,3.8-4.1c-2.9-1.2-5-3.1-6-5.5c-1.1-2.5-1.6-5.4-1.6-8.9c0-6.3,1.5-11.1,4.5-14.3c3-3.2,7.2-4.9,12.4-4.9h14.6v63.8
	h-9.9v-27.2h-2.6c-1.7,0-3.3,0.7-4.7,2c-1.4,1.3-2.5,3.7-3.1,7.1l-3,18.1H546.6z M566.1,389.4c-3,0-5.1,0.9-6.3,2.7
	c-1.2,1.8-1.8,4.2-1.8,7.1c0,3.1,0.7,5.3,2.2,6.5c1.5,1.2,3.4,1.8,5.7,1.8h3.9v-18.1H566.1z M607.7,430l-4.6-11.8l-3.9-11.2h-0.5
	v36.9h-9.9v-63.8h9.6l6.9,18.1l5,13.8h0.5l5.1-14.2l6.9-17.8h9.5v63.8h-9.9v-36.8h-0.4l-4,11.4l-4.5,11.5H607.7z M664.2,404
	l-13.4,40h-9.5v-63.8h9.6v40.4h0.4l13.3-40.4h9.6v63.8h-9.7v-40H664.2z M725.3,410.6c2.8,0.9,4.7,2.7,5.8,5.2c1,2.6,1.6,5.5,1.6,8.8
	c0,6.7-1.4,11.5-4.3,14.7c-2.8,3.1-7.2,4.7-13.1,4.7h-13.2v-63.8H716c5.6,0,9.7,1.5,12.2,4.4c2.5,3,3.8,7.3,3.8,12.9
	c0,2.9-0.5,5.5-1.5,7.7c-1,2.2-2.8,3.8-5.3,5V410.6z M722.6,397.7c0-2.9-0.6-5-1.7-6.3c-1.2-1.3-3.1-1.9-5.8-1.9H712v16.5h3.2
	c2.6,0,4.4-0.7,5.6-2.1C722,402.4,722.6,400.3,722.6,397.7z M723.2,423.8c0-3-0.5-5.2-1.6-6.7c-1.1-1.5-3-2.2-5.8-2.2H712v19.8h3.9
	c1.6,0,2.9-0.3,3.8-0.9c0.9-0.6,1.7-1.4,2.2-2.3c0.5-1,0.9-2.1,1-3.5C723.1,426.7,723.2,425.2,723.2,423.8z M770.1,404.8h4.2
	c3.3,0,6,0.4,8.2,1.3c2.2,0.9,3.9,2.1,5.2,3.8c1.3,1.6,2.2,3.7,2.8,6c0.5,2.4,0.8,5.1,0.8,8c0,6.6-1.4,11.6-4.1,15
	c-2.7,3.3-7,5-12.7,5h-14.2v-63.8h28v9.3h-18.1V404.8z M770.1,434.6h3.7c0.5,0,0.9-0.1,1.3-0.3c2.7-0.2,4.4-1.3,5.3-3.2
	c0.9-1.9,1.3-4.2,1.3-7c0-3.5-0.6-6-1.8-7.7c-1.2-1.6-3.3-2.4-6.3-2.4h-3.5V434.6z M811.8,413.2l7.6-33.1h9.3l-12.8,49.3
	c-0.9,3.5-1.8,6.2-2.9,8.2c-1.1,2-2.2,3.5-3.4,4.6c-1.2,1-2.5,1.7-3.8,2c-1.3,0.3-2.7,0.5-4.2,0.6H798v-8h2.3c1.5,0,2.8-0.5,3.7-1.5
	c0.9-1,1.8-2.6,2.4-4.7c0.1-0.1,0.1-0.2,0.2-0.5c0.1-0.3,0.1-0.6,0.2-1c0.1-0.3,0.2-0.7,0.3-1c0.1-0.3,0.2-0.5,0.2-0.6l-13.5-47.3
	h9.6l7.9,33H811.8z M833.4,443.9V456h-8.3v-20.3l3.8-0.8c1.7-1.8,2.9-4,3.5-6.4c0.6-2.4,1-5.6,1.1-9.6l1.1-38.8h28.6V435h4V456h-8.3
	v-12.1H833.4z M842.3,418.9c-0.1,3.7-0.4,6.8-0.7,9.5c-0.4,2.7-1.1,4.9-2.1,6.6h13.7v-45.6h-10.2L842.3,418.9z M896.5,443.9
	l-2.5-13.3h-11.7c-0.4,2.2-0.8,4.4-1.2,6.6c-0.4,2.2-0.8,4.4-1.1,6.6h-10.1c2.1-10.7,4.3-21.3,6.4-31.9c2.1-10.6,4.3-21.2,6.4-31.9
	h11l12.9,63.8H896.5z M887.9,394.9c-0.6,4.4-1.3,8.8-1.9,13.2c-0.7,4.4-1.4,8.8-2.2,13.3h8.7l-4.1-26.5H887.9z M932.2,443.9v-54.3
	h-10.1v54.3h-9.9v-63.8h29.9v63.8H932.2z M951.7,443.9v-63.8H980v9.3h-18.4v17.4h16v9.4h-16v18.4H980v9.3H951.7z M1035.2,380.1v63.8
	h-48.7v-63.8h9.9v54.5h9.4v-54.5h9.9v54.5h9.5v-54.5H1035.2z M1060.3,389.4v54.5h-9.9v-54.5h-10.3v-9.3h30.4v9.3H1060.3z
	 M1227.5,30.5H791v6h430.5v520H681v6h546.5V30.5z M559,556.5H6.5v-520H449v-6H0.5v532H559V556.5z M604,582.8V554h-11.7v28.8H582
	v-65.9h10.2v27.5H604v-27.5h10.2v65.9H604z M647.6,582.8l-2.6-13.7h-12.1c-0.4,2.3-0.9,4.6-1.3,6.9c-0.4,2.3-0.8,4.6-1.2,6.9H620
	c2.2-11,4.4-22,6.6-32.9c2.2-10.9,4.4-21.9,6.6-32.9h11.4l13.3,65.9H647.6z M638.7,532.2c-0.6,4.5-1.3,9.1-2,13.6
	c-0.7,4.5-1.5,9.1-2.3,13.8h9l-4.3-27.4H638.7z"/>
</svg>
