<?xml version="1.0" standalone="no"?>
<!DOCTYPE svg PUBLIC "-//W3C//DTD SVG 20010904//EN"
 "http://www.w3.org/TR/2001/REC-SVG-20010904/DTD/svg10.dtd">
<svg version="1.0" xmlns="http://www.w3.org/2000/svg"
 width="700.000000pt" height="700.000000pt" viewBox="0 0 700.000000 700.000000"
 preserveAspectRatio="xMidYMid meet">
<metadata>
Created by potrace 1.11, written by Peter Selinger 2001-2013
</metadata>
<g transform="translate(0.000000,700.000000) scale(0.100000,-0.100000)"
fill="#000000" stroke="none">
<path d="M5870 5584 c-36 -31 -96 -85 -135 -120 -38 -34 -79 -71 -91 -81 -12
-10 -50 -44 -85 -75 -75 -66 -85 -75 -169 -148 -35 -30 -73 -64 -84 -75 -12
-11 -53 -47 -91 -80 -39 -33 -72 -62 -75 -65 -3 -3 -36 -32 -75 -65 -38 -33
-74 -65 -80 -71 -5 -6 -41 -37 -80 -70 -38 -32 -76 -65 -84 -72 -7 -7 -15 -12
-16 -10 -2 2 -6 55 -9 118 -6 115 -22 217 -38 234 -4 6 -8 17 -8 25 0 45 -127
211 -226 293 -23 20 -4 35 -264 -212 -84 -80 -172 -163 -195 -185 -73 -70
-347 -329 -425 -403 -41 -39 -113 -107 -160 -151 l-84 -80 -31 47 c-143 222
-396 388 -714 467 -175 43 -244 50 -501 49 -184 0 -307 -7 -350 -19 -8 -2 -34
-7 -57 -10 -140 -20 -408 -99 -586 -173 -608 -252 -992 -641 -1065 -1077 -9
-52 -8 -278 0 -332 12 -72 57 -193 98 -264 73 -124 179 -220 326 -297 61 -31
214 -86 269 -96 17 -3 39 -8 50 -10 130 -26 418 -32 530 -11 218 40 345 80
480 147 343 173 561 457 600 783 3 28 8 60 10 72 4 16 -5 29 -36 53 l-40 32
-89 -41 c-142 -66 -336 -137 -425 -156 -19 -4 -75 -17 -85 -20 -3 -1 -23 -5
-45 -10 -22 -5 -42 -10 -45 -10 -4 -1 -48 -7 -140 -20 -22 -3 -61 -76 -54
-100 34 -119 -56 -289 -192 -358 -116 -59 -319 -82 -459 -51 -207 45 -365 189
-425 387 -49 158 -10 381 97 557 25 41 49 77 52 80 4 3 15 16 24 30 50 72 211
215 327 289 147 93 384 194 570 242 49 12 55 13 120 24 25 4 54 9 65 11 46 9
155 17 230 17 564 0 918 -370 919 -963 0 -63 -14 -292 -19 -300 -1 -3 -6 -29
-9 -59 -9 -71 -51 -277 -77 -371 -11 -41 -21 -79 -23 -85 -86 -325 -340 -906
-537 -1228 -16 -26 -29 -49 -29 -52 0 -4 -28 -50 -94 -155 -98 -153 -139 -217
-193 -295 l-62 -90 26 -27 c15 -16 32 -28 39 -28 11 0 82 28 199 80 22 9 153
63 290 120 180 74 257 110 275 131 101 112 357 610 487 944 19 50 39 99 44
110 75 170 235 734 266 940 2 17 6 41 9 55 6 32 31 209 39 275 3 28 8 147 11
265 5 184 8 217 22 228 10 7 26 20 37 30 11 9 79 62 150 118 299 231 404 265
444 144 11 -34 8 -329 -4 -445 -12 -111 -50 -344 -80 -490 -56 -277 -198 -780
-300 -1065 -13 -36 -49 -137 -80 -225 -50 -140 -68 -189 -105 -280 -5 -11 -16
-40 -25 -65 -10 -25 -19 -50 -22 -57 -2 -6 10 -25 27 -42 35 -32 30 -33 125 9
28 12 124 53 214 91 90 38 178 76 195 83 17 8 48 19 68 26 34 10 39 17 66 88
69 180 189 551 264 812 37 130 125 474 133 519 3 18 14 70 24 114 11 45 28
129 39 187 30 157 35 185 37 190 0 3 5 30 9 60 4 30 10 64 12 75 2 11 13 88
24 170 12 83 23 159 25 170 2 11 4 28 4 37 1 23 355 287 451 337 125 65 168
64 191 -6 26 -79 -16 -332 -106 -633 -8 -30 -18 -64 -20 -75 -3 -11 -9 -31
-14 -45 -6 -14 -26 -81 -46 -150 -21 -69 -50 -168 -65 -220 -34 -113 -77 -265
-84 -300 -3 -14 -15 -61 -26 -105 -61 -239 -73 -439 -34 -550 25 -70 110 -154
189 -185 85 -34 267 -35 370 -3 213 67 384 201 571 449 l61 80 0 222 c0 123
-1 221 -2 220 -2 -2 -28 -52 -59 -111 -151 -296 -310 -461 -453 -474 -74 -7
-88 7 -88 86 0 51 4 78 20 164 3 15 7 37 9 50 34 189 185 717 353 1232 172
528 197 629 202 810 5 216 -52 361 -207 529 -23 25 -43 46 -45 46 -1 0 -31
-25 -67 -56z"/>
</g>
</svg>
