<?xml version="1.0" encoding="utf-8"?>
<!-- Generator: Adobe Illustrator 23.0.4, SVG Export Plug-In . SVG Version: 6.00 Build 0)  -->
<svg version="1.1" id="Layer_1" xmlns="http://www.w3.org/2000/svg" xmlns:xlink="http://www.w3.org/1999/xlink" x="0px" y="0px"
	 viewBox="0 0 256 256" style="enable-background:new 0 0 256 256;" xml:space="preserve">
<style type="text/css">
	.st0{fill-rule:evenodd;clip-rule:evenodd;fill:url(#Fill-1_1_);}
</style>
<linearGradient id="Fill-1_1_" gradientUnits="userSpaceOnUse" x1="1.0795" y1="253.5854" x2="2.6405" y2="253.5854" gradientTransform="matrix(164 0 0 -164 -177.0393 41716)">
	<stop  offset="0.1" style="stop-color:#D8B66B"/>
	<stop  offset="0.1447" style="stop-color:#DAB971"/>
	<stop  offset="0.2032" style="stop-color:#E0C381"/>
	<stop  offset="0.2691" style="stop-color:#EAD39C"/>
	<stop  offset="0.32" style="stop-color:#F3E3B6"/>
	<stop  offset="0.42" style="stop-color:#F3E3B6"/>
	<stop  offset="0.55" style="stop-color:#CFB479"/>
	<stop  offset="0.7" style="stop-color:#CFB479"/>
	<stop  offset="0.78" style="stop-color:#FDEEC4"/>
	<stop  offset="0.9" style="stop-color:#CFB479"/>
</linearGradient>
<path id="Fill-1" class="st0" d="M128,0C57.31,0,0,57.31,0,128l0,0c0,70.69,57.31,128,128,128l0,0c70.69,0,128-57.31,128-128l0,0
	C256,57.31,198.69,0,128,0z M42.44,213.56C19.59,190.71,7,160.32,7,128l0,0c0-32.32,12.59-62.71,35.44-85.56l0,0
	C65.29,19.59,95.68,7,128,7l0,0c32.32,0,62.71,12.59,85.56,35.44l0,0C236.41,65.29,249,95.68,249,128l0,0
	c0,32.32-12.59,62.71-35.44,85.56l0,0C190.71,236.41,160.32,249,128,249l0,0C95.68,249,65.29,236.41,42.44,213.56L42.44,213.56z
	 M28.01,93.57c-1.52,0-2.74,2.45-2.74,5.47l0,0v58.28c0,3.02,1.23,5.47,2.74,5.47l0,0h200.25c1.51,0,2.74-2.45,2.74-5.47l0,0V99.04
	c0-3.02-1.23-5.47-2.74-5.47l0,0H28.01z M189.91,110.41h9.24l-1.34,13.36c0.67-0.3,1.58-0.67,2.73-1.11l0,0
	c1.15-0.45,2.32-0.93,3.51-1.45l0,0c1.19-0.52,2.34-1.02,3.45-1.5l0,0c1.11-0.48,2-0.87,2.67-1.17l0,0l2.56,8.69l-12.69,3.12
	l8.69,10.02c-0.37,0.3-0.89,0.71-1.56,1.23l0,0c-0.67,0.52-1.37,1.06-2.12,1.61l0,0c-0.74,0.56-1.47,1.08-2.17,1.56l0,0
	c-0.71,0.48-1.25,0.87-1.62,1.17l0,0l-6.79-11.58l-7.01,11.58c-0.37-0.22-0.89-0.59-1.56-1.11l0,0c-0.67-0.52-1.39-1.06-2.17-1.61
	l0,0c-0.78-0.56-1.52-1.1-2.23-1.61l0,0c-0.71-0.52-1.21-0.93-1.5-1.23l0,0l8.8-10.02l-12.59-3.23l2.56-8.58l12.36,5.23
	L189.91,110.41z M145.93,110.41h9.24l-1.34,13.36c0.67-0.3,1.58-0.67,2.73-1.11l0,0c1.15-0.45,2.32-0.93,3.51-1.45l0,0
	c1.19-0.52,2.34-1.02,3.45-1.5l0,0c1.11-0.48,2-0.87,2.67-1.17l0,0l2.56,8.69l-12.7,3.12l8.69,10.02c-0.37,0.3-0.89,0.71-1.56,1.23
	l0,0c-0.67,0.52-1.37,1.06-2.12,1.61l0,0c-0.74,0.56-1.47,1.08-2.17,1.56l0,0c-0.71,0.48-1.24,0.87-1.61,1.17l0,0l-6.79-11.58
	l-7.02,11.58c-0.37-0.22-0.89-0.59-1.56-1.11l0,0c-0.67-0.52-1.39-1.06-2.17-1.61l0,0c-0.78-0.56-1.52-1.1-2.23-1.61l0,0
	c-0.71-0.52-1.21-0.93-1.5-1.23l0,0l8.8-10.02l-12.59-3.23l2.56-8.58l12.36,5.23L145.93,110.41z M101.94,110.41h9.24l-1.34,13.36
	c0.67-0.3,1.58-0.67,2.73-1.11l0,0c1.15-0.45,2.32-0.93,3.51-1.45l0,0c1.19-0.52,2.34-1.02,3.45-1.5l0,0c1.11-0.48,2-0.87,2.67-1.17
	l0,0l2.56,8.69l-12.7,3.12l8.69,10.02c-0.37,0.3-0.89,0.71-1.56,1.23l0,0c-0.67,0.52-1.38,1.06-2.12,1.61l0,0
	c-0.74,0.56-1.47,1.08-2.17,1.56l0,0c-0.7,0.48-1.24,0.87-1.61,1.17l0,0l-6.79-11.58l-7.02,11.58c-0.37-0.22-0.89-0.59-1.56-1.11
	l0,0c-0.67-0.52-1.39-1.06-2.17-1.61l0,0c-0.78-0.56-1.52-1.1-2.23-1.61l0,0c-0.71-0.52-1.21-0.93-1.5-1.23l0,0l8.8-10.02
	l-12.58-3.23l2.56-8.58l12.36,5.23L101.94,110.41z M57.95,110.41h9.24l-1.34,13.36c0.67-0.3,1.58-0.67,2.73-1.11l0,0
	c1.15-0.45,2.32-0.93,3.51-1.45l0,0c1.19-0.52,2.34-1.02,3.45-1.5l0,0c1.11-0.48,2-0.87,2.67-1.17l0,0l2.56,8.69l-12.7,3.12
	l8.69,10.02c-0.37,0.3-0.89,0.71-1.56,1.23l0,0c-0.67,0.52-1.38,1.06-2.12,1.61l0,0c-0.74,0.56-1.47,1.08-2.17,1.56l0,0
	c-0.71,0.48-1.24,0.87-1.61,1.17l0,0l-6.79-11.58l-7.02,11.58c-0.37-0.22-0.89-0.59-1.56-1.11l0,0c-0.67-0.52-1.39-1.06-2.17-1.61
	l0,0c-0.78-0.56-1.52-1.1-2.23-1.61l0,0c-0.71-0.52-1.21-0.93-1.5-1.23l0,0l8.8-10.02l-12.58-3.23l2.56-8.58l12.36,5.23
	L57.95,110.41z"/>
</svg>
