<?xml version="1.0" encoding="utf-8"?>
<!-- Generator: Adobe Illustrator 23.0.4, SVG Export Plug-In . SVG Version: 6.00 Build 0)  -->
<svg version="1.1" id="Layer_1" xmlns="http://www.w3.org/2000/svg" xmlns:xlink="http://www.w3.org/1999/xlink" x="0px" y="0px"
	 viewBox="0 0 256 256" style="enable-background:new 0 0 256 256;" xml:space="preserve">
<style type="text/css">
	.st0{fill-rule:evenodd;clip-rule:evenodd;fill:url(#SVGID_1_);}
</style>
<linearGradient id="SVGID_1_" gradientUnits="userSpaceOnUse" x1="0" y1="128" x2="256" y2="128">
	<stop  offset="0.1" style="stop-color:#D8B66B"/>
	<stop  offset="0.1447" style="stop-color:#DAB971"/>
	<stop  offset="0.2032" style="stop-color:#E0C381"/>
	<stop  offset="0.2691" style="stop-color:#EAD39C"/>
	<stop  offset="0.32" style="stop-color:#F3E3B6"/>
	<stop  offset="0.42" style="stop-color:#F3E3B6"/>
	<stop  offset="0.55" style="stop-color:#CFB479"/>
	<stop  offset="0.7" style="stop-color:#CFB479"/>
	<stop  offset="0.78" style="stop-color:#FDEEC4"/>
	<stop  offset="0.9" style="stop-color:#CFB479"/>
</linearGradient>
<path class="st0" d="M128,0C57.3,0,0,57.3,0,128l0,0c0,70.7,57.3,128,128,128l0,0c70.7,0,128-57.3,128-128l0,0
	C256,57.3,198.7,0,128,0z M42.4,213.6C19.6,190.7,7,160.3,7,128l0,0c0-32.3,12.6-62.7,35.4-85.6l0,0C65.3,19.6,95.7,7,128,7l0,0
	c32.3,0,62.7,12.6,85.6,35.4l0,0C236.4,65.3,249,95.7,249,128l0,0c0,32.3-12.6,62.7-35.4,85.6l0,0C190.7,236.4,160.3,249,128,249
	l0,0C95.7,249,65.3,236.4,42.4,213.6L42.4,213.6z M142.7,70.3c10.6,0,19.2,8.6,19.2,19.2s-8.6,19.2-19.2,19.2s-19.2-8.6-19.2-19.2
	S132.2,70.3,142.7,70.3z M174.2,85.1c0-5.9-1.7-11.7-5-16.7c-4.5-6.9-11.3-11.6-19.3-13.3c-8-1.7-16.2-0.2-23.1,4.3
	c-5.1,3.3-9,8-11.4,13.4c-3.4,1.3-6.3,4.9-7.2,9.5c-1.4,6.5,1.5,12.7,6.4,13.7c1.3,0.3,2.6,0.2,3.8-0.2l3.7-17.3
	c1.5-5,4.7-9.3,9.2-12.2c5-3.3,11-4.4,16.9-3.1c5.9,1.2,10.9,4.7,14.1,9.7s4.4,11,3.1,16.9l-3.1,15.4c1,0.9,2.1,1.5,3.4,1.7
	c4.9,1,10.1-3.4,11.5-9.9C178.2,92.1,176.9,87.6,174.2,85.1z M64.3,59.5c-0.5-4.7,2.8-8.9,7.5-9.4c4.7-0.5,8.9,2.8,9.4,7.5l4.8,42.8
	l31,10.5c3.2,0.7,29.8,6.3,40.2,8.5c2.7,0.6,5.2,1.8,7.3,3.5c5.1,4.1,15.2,12.4,24.1,19.7c3.9,3.2,4.2,9.2,0.5,12.7
	c-8.8,8.4-10.7,10.3-19.7,18.9h0c1.1,0,1.9,0.9,1.9,1.9v8.4h3.1c3.6,0,6.5,2.9,6.5,6.5V206H80V191c0-3.5,2.8-6.4,6.4-6.5v-5.9
	c0-1.1,0.9-1.9,1.9-1.9h9.1c1.1,0,1.9,0.9,1.9,1.9v5.9h5v-5.9c0-1.1,0.9-1.9,1.9-1.9h9.1c1.1,0,1.9,0.9,1.9,1.9v5.9h4.3v-8.4
	c0-1.1,0.9-1.9,1.9-1.9h25.2c0-2.2,0.9-4.5,2.6-6.2c3.5-3.4,14.6-14.1,19.2-18.4l-13-10.7l-3.6,16.9l-10.7,10.1h-19.8
	c-2.6,0-4.9,1-6.7,2.6c-0.9-0.1-0.6-0.1-10.5-0.1c-1.6,0-3.1,0.4-4.4,1c-0.3-0.1-0.5-0.2-0.8-0.3l9-42.7l-34.5-11.6
	c-3.1-1.1-5.4-3.8-5.8-7.1L64.3,59.5z"/>
</svg>
