<?xml version="1.0" encoding="utf-8"?>
<!-- Generator: Adobe Illustrator 23.0.4, SVG Export Plug-In . SVG Version: 6.00 Build 0)  -->
<svg version="1.1" id="Layer_1" xmlns="http://www.w3.org/2000/svg" xmlns:xlink="http://www.w3.org/1999/xlink" x="0px" y="0px"
	 viewBox="0 0 256 256" style="enable-background:new 0 0 256 256;" xml:space="preserve">
<style type="text/css">
	.st0{fill-rule:evenodd;clip-rule:evenodd;fill:url(#SVGID_1_);}
</style>
<linearGradient id="SVGID_1_" gradientUnits="userSpaceOnUse" x1="0" y1="128" x2="256" y2="128">
	<stop  offset="0.1" style="stop-color:#D8B66B"/>
	<stop  offset="0.1447" style="stop-color:#DAB971"/>
	<stop  offset="0.2032" style="stop-color:#E0C381"/>
	<stop  offset="0.2691" style="stop-color:#EAD39C"/>
	<stop  offset="0.32" style="stop-color:#F3E3B6"/>
	<stop  offset="0.42" style="stop-color:#F3E3B6"/>
	<stop  offset="0.55" style="stop-color:#CFB479"/>
	<stop  offset="0.7" style="stop-color:#CFB479"/>
	<stop  offset="0.78" style="stop-color:#FDEEC4"/>
	<stop  offset="0.9" style="stop-color:#CFB479"/>
</linearGradient>
<path class="st0" d="M128,0C57.3,0,0,57.3,0,128l0,0c0,70.7,57.3,128,128,128l0,0c70.7,0,128-57.3,128-128l0,0
	C256,57.3,198.7,0,128,0z M42.4,213.6C19.6,190.7,7,160.3,7,128l0,0c0-32.3,12.6-62.7,35.4-85.6l0,0C65.3,19.6,95.7,7,128,7l0,0
	c32.3,0,62.7,12.6,85.6,35.4l0,0C236.4,65.3,249,95.7,249,128l0,0c0,32.3-12.6,62.7-35.4,85.6l0,0C190.7,236.4,160.3,249,128,249
	l0,0C95.7,249,65.3,236.4,42.4,213.6L42.4,213.6z M52.9,168.8c-0.1,0.2-0.2,0.4-0.4,0.8c-1.1-2.7-2.3-5.3-3.3-7.9
	c-3-7.8-5.1-15.8-6.1-24.1c-0.2-1.8-0.3-3.6-0.4-5.4c0-0.4-0.1-0.8-0.1-1.2c0-1.9,0-3.9,0-5.8c0.2-1.8,0.3-3.6,0.5-5.3
	c1.1-10.9,4.5-21,9.7-30.6c3.6-6.6,8-12.7,12.9-18.3c0.1-0.2,0.3-0.3,0.5-0.5c2,1.8,3.9,3.6,5.8,5.4c-1.6,1.9-3.2,3.7-4.7,5.6
	c-7.7,9.5-13.1,20.2-15.5,32.3c-2.2,10.9-1.8,21.8,0.7,32.6c1.2,5.2,2.8,10.4,4.8,15.4c0.2,0.5,0.2,0.8-0.2,1.2
	C55.2,164.5,53.9,166.6,52.9,168.8z M140.7,58.5c-11.1-2.1-22.1-1.4-32.9,1.8c-9.6,2.8-18.6,7-27.4,11.6c-2,1.1-4,2.2-6,3.2
	c-0.2,0.1-0.7,0.2-0.9,0.1c-2.4-2.1-4.7-4.2-7-6.4c30-36.6,92.7-37,123.2,0c-2.3,2.1-4.6,4.3-7,6.4c-0.2,0.1-0.7,0-0.9-0.1
	c-5.6-2.8-11.1-5.8-16.7-8.5C157.2,62.9,149.1,60.1,140.7,58.5z M154.7,198.6c-2,3.6-6.1,4.8-9.8,2.8c-1.4-0.8-2.8-1.5-4.2-2.3
	c-3.6-2-4.8-6.2-2.8-9.9c7.3-13.2,14.6-26.4,21.9-39.7c4.4-7.9,8.8-15.9,13.2-23.8c2.1-3.9,6.2-5,10.1-2.9c1.4,0.8,2.8,1.5,4.2,2.3
	c2.4,1.4,3.5,3.5,3.6,6.8c-0.2,0.6-0.4,1.9-1,2.9C178.2,156.1,166.5,177.3,154.7,198.6z M118,189c2.2,3.9,1,8-2.9,10.2
	c-1.3,0.7-2.7,1.5-4.1,2.2c-1.1,0.5-2.2,0.8-2.8,1c-3.4-0.2-5.5-1.4-6.9-3.9c-5.5-9.9-11-19.9-16.5-29.8
	c-6.2-11.2-12.3-22.4-18.5-33.6c-2.3-4.1-1.1-8.2,3.1-10.4c1.2-0.7,2.5-1.3,3.7-2c3.7-2,7.8-0.9,9.9,2.9c8.3,15,16.6,30,24.9,45
	C111.2,176.7,114.6,182.9,118,189z M198.3,154.5c-7.8,14.1-15.6,28.2-23.3,42.3c-0.7,1.3-1.7,2.3-2.8,3.1c-3.1,2.4-6.8,3.4-10.6,4.1
	c-1,0.2-2,0.2-3,0.4c-0.3,0-0.6,0.1-0.8,0.3c-0.9,0.6-1.8,0.5-2.8-0.3c-0.6-0.5-0.6-1.1-0.1-2.1c8.1-14.6,16.1-29.2,24.2-43.9
	c4.5-8.2,9-16.3,13.5-24.5c0.4-0.7,0.9-1.2,1.8-1c1.3,0.3,1.8,1,1.7,2c0.1,0.4,0.2,0.7,0.4,1.1c1.6,3.3,3,6.6,3.4,10.3
	C200.1,149.2,199.7,151.9,198.3,154.5z M101.1,202c0.8,1.5,0.5,2.5-1.2,3c-0.3,0.1-0.8,0.1-1,0c-0.9-0.8-2-0.6-3.1-0.8
	c-4.1-0.6-8.1-1.5-11.5-4c-1.4-1-2.5-2.2-3.3-3.7c-7.8-14.3-15.7-28.5-23.6-42.7c-1.1-2-1.3-4.1-1.2-6.3c0.1-4,1.6-7.7,3.3-11.2
	c0.2-0.5,0.3-1.1,0.4-1.7c0.1-0.8,1.2-1.8,2.6-1.8c0.2,0.2,0.7,0.5,1,1c2.3,4.1,4.6,8.2,6.8,12.3C80.5,164.8,90.8,183.4,101.1,202z
	 M210.7,149.4c-1.7,6.7-4,13.2-6.9,19.4c-0.1,0.2-0.2,0.4-0.3,0.6c-0.1-0.3-0.3-0.4-0.3-0.6c-0.9-2.3-2.3-4.3-4-6
	c-0.5-0.5-0.5-0.8-0.3-1.4c2.8-7,4.9-14.2,6-21.7c2.8-19.2-1-37-12.1-53c-2.6-3.7-5.6-7.1-8.5-10.6c-0.1-0.1-0.2-0.2-0.3-0.4
	c2-1.8,3.9-3.6,5.8-5.4c0.1,0.1,0.2,0.1,0.2,0.1C199,80.8,206,92.1,210,105.1C214.5,119.8,214.4,134.6,210.7,149.4z M54.8,184.1
	c4.7,8.9,14.7,10.9,21.6,8c-5.5-10-11-19.9-16.5-29.8C53.8,166.4,50.4,175.7,54.8,184.1z M64.9,180c0,1.6-1.5,3-3.1,3
	c-1.6,0-3-1.4-3-3c0-1.7,1.4-3.1,3-3C63.5,176.9,64.9,178.4,64.9,180z M196.2,162.2c-5.5,10-11,19.9-16.5,29.9
	c6.8,2.8,16.4,1,21.3-7.5C205.3,177,203.2,167,196.2,162.2z M194.2,183c-1.7,0-3.1-1.4-3.1-3c0-1.6,1.4-3,3-3.1c1.6,0,3,1.4,3,3.1
	C197.2,181.7,195.9,183,194.2,183z"/>
</svg>
