<?xml version="1.0" encoding="utf-8"?>
<!-- Generator: Adobe Illustrator 23.0.4, SVG Export Plug-In . SVG Version: 6.00 Build 0)  -->
<svg version="1.1" id="Layer_1" xmlns="http://www.w3.org/2000/svg" xmlns:xlink="http://www.w3.org/1999/xlink" x="0px" y="0px"
	 viewBox="0 0 142 256" style="enable-background:new 0 0 142 256;" xml:space="preserve">
<style type="text/css">
	.st0{fill-rule:evenodd;clip-rule:evenodd;fill:#D3BB75;}
</style>
<g>
	<path class="st0" d="M71,256c-38.94,0-70.62-30.98-70.62-69.05V69.05C0.38,30.98,32.06,0,71,0s70.62,30.98,70.62,69.05v117.9
		C141.62,225.02,109.94,256,71,256 M71,13.24c-31.64,0-57.38,25.19-57.38,56.16v117.2c0,30.97,25.74,56.16,57.38,56.16
		s57.38-25.19,57.38-56.16V69.4C128.38,38.43,102.64,13.24,71,13.24 M37.05,180.74l25.24,27.39c4.59,4.98,12.85,4.98,17.43,0
		l25.24-27.39c3.11-3.38,0.54-8.6-4.24-8.6H41.29C36.51,172.14,33.94,177.36,37.05,180.74 M71,128c-7.31,0-13.24,5.93-13.24,13.24
		s5.93,13.24,13.24,13.24s13.24-5.93,13.24-13.24S78.31,128,71,128 M71,88.28c-7.31,0-13.24,5.93-13.24,13.24
		s5.93,13.24,13.24,13.24s13.24-5.93,13.24-13.24S78.31,88.28,71,88.28 M71,52.97c-7.31,0-13.24,5.93-13.24,13.24
		c0,7.31,5.93,13.24,13.24,13.24s13.24-5.93,13.24-13.24C84.24,58.89,78.31,52.97,71,52.97"/>
</g>
</svg>
