<?xml version="1.0" encoding="utf-8"?>
<!-- Generator: Adobe Illustrator 23.0.4, SVG Export Plug-In . SVG Version: 6.00 Build 0)  -->
<svg version="1.1" id="Layer_1" xmlns="http://www.w3.org/2000/svg" xmlns:xlink="http://www.w3.org/1999/xlink" x="0px" y="0px"
	 viewBox="0 0 256 256" style="enable-background:new 0 0 256 256;" xml:space="preserve">
<style type="text/css">
	.st0{fill-rule:evenodd;clip-rule:evenodd;fill:url(#SVGID_1_);}
</style>
<linearGradient id="SVGID_1_" gradientUnits="userSpaceOnUse" x1="0" y1="128" x2="256" y2="128">
	<stop  offset="0.1" style="stop-color:#D8B66B"/>
	<stop  offset="0.1447" style="stop-color:#DAB971"/>
	<stop  offset="0.2032" style="stop-color:#E0C381"/>
	<stop  offset="0.2691" style="stop-color:#EAD39C"/>
	<stop  offset="0.32" style="stop-color:#F3E3B6"/>
	<stop  offset="0.42" style="stop-color:#F3E3B6"/>
	<stop  offset="0.55" style="stop-color:#CFB479"/>
	<stop  offset="0.7" style="stop-color:#CFB479"/>
	<stop  offset="0.78" style="stop-color:#FDEEC4"/>
	<stop  offset="0.9" style="stop-color:#CFB479"/>
</linearGradient>
<path class="st0" d="M128,0C57.31,0,0,57.31,0,128l0,0c0,70.69,57.31,128,128,128l0,0c70.69,0,128-57.31,128-128l0,0
	C256,57.31,198.69,0,128,0z M42.44,213.56C19.59,190.71,7,160.32,7,128l0,0c0-32.32,12.59-62.71,35.44-85.56l0,0
	C65.29,19.59,95.68,7,128,7l0,0c32.32,0,62.71,12.59,85.56,35.44l0,0C236.41,65.29,249,95.68,249,128l0,0
	c0,32.32-12.59,62.71-35.44,85.56l0,0c-1.17,1.17-2.35,2.31-3.56,3.42l0,0V81.22C210,69.55,200.45,60,188.78,60l0,0H67.22
	C55.55,60,46,69.55,46,81.22l0,0v135.76C44.79,215.87,43.61,214.73,42.44,213.56L42.44,213.56z M162.3,89c3.14,0,5.7-2.57,5.7-5.7
	l0,0V72.39h15.35c7.51,0,13.65,6.14,13.65,13.65l0,0v141.4C176.89,241.45,153.03,249,128,249l0,0c-25.03,0-48.89-7.55-69-21.56l0,0
	V86.04c0-7.51,6.14-13.65,13.65-13.65l0,0H88V83.3c0,3.14,2.57,5.7,5.7,5.7l0,0H162.3z M162.61,149.13
	c-1.79,0.7-3.32,1.59-4.58,2.69l0,0l2.9,4.39c0.99-0.81,2.1-1.46,3.35-1.95l0,0c1.24-0.49,2.53-0.74,3.87-0.74l0,0
	c0.74,0,1.48,0.1,2.21,0.29l0,0c0.74,0.19,1.39,0.48,1.95,0.87l0,0c0.56,0.39,1.01,0.87,1.37,1.45l0,0
	c0.35,0.57,0.53,1.25,0.53,2.02l0,0c0,0.84-0.23,1.65-0.69,2.42l0,0c-0.45,0.77-1.06,1.53-1.82,2.26l0,0
	c-0.76,0.73-1.62,1.45-2.58,2.16l0,0c-0.96,0.7-1.94,1.38-2.93,2.05l0,0c-1.12,0.77-2.19,1.61-3.21,2.53l0,0
	c-1.02,0.91-1.92,1.9-2.71,2.97l0,0c-0.79,1.07-1.42,2.23-1.9,3.47l0,0c-0.47,1.24-0.71,2.6-0.71,4.07l0,0v4.68h22.23v-5h-16.38
	c0.14-1.41,0.54-2.65,1.21-3.72l0,0c0.67-1.07,1.47-2.03,2.4-2.87l0,0c0.93-0.85,1.92-1.62,2.95-2.32l0,0
	c1.04-0.7,1.98-1.39,2.82-2.05l0,0c0.84-0.67,1.68-1.39,2.53-2.16l0,0c0.84-0.77,1.6-1.62,2.29-2.53l0,0
	c0.69-0.91,1.24-1.88,1.66-2.9l0,0c0.42-1.02,0.63-2.09,0.63-3.21l0,0c0-1.83-0.33-3.37-1-4.61l0,0c-0.67-1.24-1.53-2.26-2.61-3.05
	l0,0c-1.07-0.79-2.3-1.36-3.69-1.71l0,0c-1.39-0.35-2.8-0.52-4.24-0.52l0,0C166.35,148.09,164.4,148.44,162.61,149.13L162.61,149.13
	z M137.57,148.72c-1.33,0.42-2.53,1.04-3.6,1.84l0,0c-1.07,0.81-1.95,1.81-2.63,3.01l0,0c-0.68,1.19-1.02,2.58-1.02,4.16l0,0v17.81
	c0,1.54,0.33,2.92,1,4.11l0,0c0.66,1.2,1.53,2.19,2.6,2.98l0,0c1.07,0.79,2.28,1.39,3.63,1.79l0,0c1.35,0.4,2.69,0.6,4.02,0.6l0,0
	c1.33,0,2.66-0.2,4-0.6l0,0c1.33-0.4,2.54-1,3.6-1.79l0,0c1.07-0.79,1.94-1.78,2.6-2.98l0,0c0.66-1.19,1-2.56,1-4.11l0,0v-17.81
	c0-1.58-0.33-2.97-1-4.16l0,0c-0.67-1.2-1.54-2.2-2.6-3.01l0,0c-1.07-0.81-2.27-1.42-3.6-1.84l0,0c-1.33-0.42-2.66-0.63-4-0.63l0,0
	C140.23,148.09,138.9,148.3,137.57,148.72L137.57,148.72z M139.66,179.47c-0.65-0.19-1.25-0.51-1.79-0.95l0,0
	c-0.55-0.44-0.99-0.99-1.34-1.68l0,0c-0.35-0.68-0.53-1.54-0.53-2.55l0,0v-15.25c0-1.02,0.18-1.88,0.53-2.58l0,0
	c0.35-0.7,0.8-1.27,1.34-1.71l0,0c0.54-0.44,1.14-0.75,1.79-0.94l0,0c0.65-0.19,1.29-0.29,1.93-0.29l0,0c0.63,0,1.27,0.1,1.92,0.29
	l0,0c0.65,0.19,1.25,0.51,1.79,0.94l0,0c0.55,0.44,0.99,1.01,1.34,1.71l0,0c0.35,0.7,0.53,1.56,0.53,2.58l0,0v15.25
	c0,1.02-0.18,1.87-0.53,2.55l0,0c-0.35,0.69-0.8,1.24-1.34,1.68l0,0c-0.54,0.44-1.14,0.76-1.79,0.95l0,0
	c-0.65,0.19-1.29,0.29-1.92,0.29l0,0C140.95,179.76,140.31,179.66,139.66,179.47L139.66,179.47z M113.82,148.46
	c-0.42,0.35-0.99,0.82-1.71,1.42l0,0c-0.72,0.6-1.46,1.22-2.21,1.87l0,0c-0.75,0.65-1.48,1.28-2.19,1.9l0,0
	c-0.7,0.61-1.27,1.1-1.69,1.45l0,0l3.06,4.06l4.32-3.58v29.19h5.59v-36.3H113.82z M76.14,148.46v10.48h5.32v-5.37h10.38l-12.7,31.19
	h6.06l13.01-31.46v-4.85H76.14z M111.59,115.74c-0.7-0.59-1.45-0.99-2.25-1.22c-0.8-0.23-1.59-0.34-2.35-0.34
	c-0.5,0-1,0.07-1.5,0.21c-0.5,0.14-0.95,0.38-1.34,0.7c-0.39,0.33-0.71,0.75-0.96,1.27c-0.25,0.52-0.38,1.15-0.38,1.89v6.56
	c0,0.74,0.13,1.37,0.38,1.88c0.25,0.51,0.58,0.93,0.98,1.26c0.4,0.33,0.85,0.57,1.34,0.72c0.49,0.15,0.98,0.23,1.48,0.23
	c0.76,0,1.53-0.11,2.3-0.33c0.77-0.22,1.55-0.63,2.33-1.24l2.12,3.46c-0.83,0.7-1.84,1.24-3.03,1.63c-1.2,0.39-2.46,0.59-3.79,0.59
	c-1.07,0-2.11-0.15-3.13-0.46c-1.02-0.3-1.94-0.76-2.74-1.35c-0.8-0.6-1.46-1.35-1.96-2.25c-0.5-0.9-0.75-1.96-0.75-3.18v-8.42
	c0-1.2,0.24-2.25,0.73-3.15c0.49-0.9,1.13-1.66,1.93-2.27c0.79-0.61,1.7-1.06,2.72-1.37c1.02-0.3,2.07-0.46,3.13-0.46
	c1.31,0,2.56,0.17,3.77,0.52c1.21,0.35,2.25,0.9,3.12,1.66L111.59,115.74z M133.84,120.7l-2.08,4.14l-2.54,4.83H126l-2.51-4.73
	l-2.18-4.24h-0.13v12.07h-4.47v-22.48h4.11l4.01,7.93l2.71,5.55h0.2l2.74-5.68l3.85-7.8h4.11v22.48h-4.47V120.7H133.84z
	 M155.51,115.74c-0.7-0.59-1.45-0.99-2.25-1.22c-0.8-0.23-1.59-0.34-2.35-0.34c-0.5,0-1,0.07-1.5,0.21c-0.5,0.14-0.95,0.38-1.34,0.7
	c-0.39,0.33-0.71,0.75-0.96,1.27c-0.25,0.52-0.38,1.15-0.38,1.89v6.56c0,0.74,0.13,1.37,0.38,1.88c0.25,0.51,0.58,0.93,0.98,1.26
	c0.4,0.33,0.85,0.57,1.34,0.72c0.49,0.15,0.98,0.23,1.48,0.23c0.76,0,1.53-0.11,2.3-0.33c0.77-0.22,1.55-0.63,2.33-1.24l2.12,3.46
	c-0.83,0.7-1.84,1.24-3.03,1.63c-1.2,0.39-2.46,0.59-3.79,0.59c-1.07,0-2.11-0.15-3.13-0.46c-1.02-0.3-1.94-0.76-2.74-1.35
	c-0.8-0.6-1.46-1.35-1.96-2.25c-0.5-0.9-0.75-1.96-0.75-3.18v-8.42c0-1.2,0.24-2.25,0.73-3.15c0.49-0.9,1.13-1.66,1.93-2.27
	c0.79-0.61,1.7-1.06,2.72-1.37c1.02-0.3,2.07-0.46,3.13-0.46c1.31,0,2.56,0.17,3.77,0.52c1.21,0.35,2.25,0.9,3.12,1.66
	L155.51,115.74z"/>
</svg>
