<?xml version="1.0" encoding="utf-8"?>
<!-- Generator: Adobe Illustrator 23.0.4, SVG Export Plug-In . SVG Version: 6.00 Build 0)  -->
<svg version="1.1" id="Layer_1" xmlns="http://www.w3.org/2000/svg" xmlns:xlink="http://www.w3.org/1999/xlink" x="0px" y="0px"
	 viewBox="0 0 256 256" style="enable-background:new 0 0 256 256;" xml:space="preserve">
<style type="text/css">
	.st0{fill-rule:evenodd;clip-rule:evenodd;fill:url(#SVGID_1_);}
</style>
<linearGradient id="SVGID_1_" gradientUnits="userSpaceOnUse" x1="0" y1="128" x2="256" y2="128">
	<stop  offset="0.1" style="stop-color:#D8B66B"/>
	<stop  offset="0.1447" style="stop-color:#DAB971"/>
	<stop  offset="0.2032" style="stop-color:#E0C381"/>
	<stop  offset="0.2691" style="stop-color:#EAD39C"/>
	<stop  offset="0.32" style="stop-color:#F3E3B6"/>
	<stop  offset="0.42" style="stop-color:#F3E3B6"/>
	<stop  offset="0.55" style="stop-color:#CFB479"/>
	<stop  offset="0.7" style="stop-color:#CFB479"/>
	<stop  offset="0.78" style="stop-color:#FDEEC4"/>
	<stop  offset="0.9" style="stop-color:#CFB479"/>
</linearGradient>
<path class="st0" d="M128,0C57.31,0,0,57.31,0,128l0,0c0,70.69,57.31,128,128,128l0,0c70.69,0,128-57.31,128-128l0,0
	C256,57.31,198.69,0,128,0z M42.44,213.56C19.59,190.71,7,160.32,7,128l0,0c0-32.32,12.59-62.71,35.44-85.56l0,0
	C65.29,19.59,95.68,7,128,7l0,0c32.32,0,62.71,12.59,85.56,35.44l0,0C236.41,65.29,249,95.68,249,128l0,0
	c0,32.32-12.59,62.71-35.44,85.56l0,0C190.71,236.41,160.32,249,128,249l0,0C95.68,249,65.29,236.41,42.44,213.56L42.44,213.56z
	 M156.22,123.74V78.43c17.47,9.76,29.28,28.3,29.28,49.57c0,31.43-25.74,56.91-57.5,56.91S70.5,159.43,70.5,128
	c0-31.43,25.74-56.91,57.5-56.91c8.01,0,15.63,1.62,22.56,4.55v31.48c0,1.79,0.34,3.89,0.69,5.56c-1.25-1.86-2.72-3.57-4.38-5.08
	c-5.05-4.63-11.77-7.46-19.16-7.46c-15.67,0-28.21,12.69-28.21,28.4s12.54,28.4,28.21,28.4c12.98,0,23.92-8.65,27.3-20.56
	c0.7-2.48,1.08-7.33,1.08-12.54v-0.07L156.22,123.74z M156.22,70.52v7.91c-1.83-1.02-3.71-1.96-5.66-2.78v-9.77V43.14l36.94,11.35
	v25.69L156.22,70.52z"/>
</svg>
