<?xml version="1.0" encoding="utf-8"?>
<!-- Generator: Adobe Illustrator 23.0.4, SVG Export Plug-In . SVG Version: 6.00 Build 0)  -->
<svg version="1.1" id="Layer_1" xmlns="http://www.w3.org/2000/svg" xmlns:xlink="http://www.w3.org/1999/xlink" x="0px" y="0px"
	 viewBox="0 0 256 60.66" style="enable-background:new 0 0 256 60.66;" xml:space="preserve">
<style type="text/css">
	.st0{fill-rule:evenodd;clip-rule:evenodd;fill:#D3BB75;}
	.st1{filter:url(#Adobe_OpacityMaskFilter);}
	.st2{fill-rule:evenodd;clip-rule:evenodd;fill:#FFFFFF;}
	.st3{mask:url(#mask-2_6_);fill-rule:evenodd;clip-rule:evenodd;fill:#D3BB75;}
	.st4{filter:url(#Adobe_OpacityMaskFilter_1_);}
	.st5{mask:url(#mask-2_5_);fill-rule:evenodd;clip-rule:evenodd;fill:#D3BB75;}
	.st6{filter:url(#Adobe_OpacityMaskFilter_2_);}
	.st7{mask:url(#mask-2_4_);fill-rule:evenodd;clip-rule:evenodd;fill:#D3BB75;}
	.st8{filter:url(#Adobe_OpacityMaskFilter_3_);}
	.st9{mask:url(#mask-2_3_);fill-rule:evenodd;clip-rule:evenodd;fill:#D3BB75;}
	.st10{filter:url(#Adobe_OpacityMaskFilter_4_);}
	.st11{mask:url(#mask-2_2_);fill-rule:evenodd;clip-rule:evenodd;fill:#D3BB75;}
	.st12{filter:url(#Adobe_OpacityMaskFilter_5_);}
	.st13{mask:url(#mask-2_1_);fill-rule:evenodd;clip-rule:evenodd;fill:#D3BB75;}
</style>
<g id="Clip-10">
</g>
<g>
	<path id="Fill-3" class="st0" d="M27.13,17.33c-0.75,0-1.65-0.64-1.65-2.02c0-1.23,0.87-1.96,1.63-1.96c0.99,0,2.01,1.17,2.01,3.28
		c0,2.58-2.55,5.07-2.89,5.21l-0.29-0.41C26.3,21.17,28.2,19,28.2,17.8c0-0.12,0-0.47-0.34-0.47H27.13z"/>
	<polygon id="Fill-1" class="st0" points="0,29.12 2.43,29.12 2.43,14.56 0,14.56 	"/>
	<polygon id="Fill-2" class="st0" points="20.63,14.56 20.63,17.48 15.38,17.48 15.38,29.12 12.52,29.12 12.52,17.48 7.28,17.48 
		7.28,14.56 	"/>
	<path id="Fill-5" class="st0" d="M32.9,25.08c2.54,1.66,4.97,2.27,7.53,2.27c1.47,0,3.95-0.37,3.95-2.04c0-1.21-1.3-1.52-2.2-1.55
		l-4.37-0.14c-3.58-0.08-5.33-2.21-5.33-4.5c0-2.21,1.61-4.56,6.86-4.56c3.84,0,6.18,1.49,7.05,1.95l-1.33,2.64
		c-1.16-0.6-3.27-1.61-6.18-1.61c-1.55,0-3.47,0.34-3.47,1.66c0,1.15,1.61,1.43,2.6,1.43l3.81,0.14c3.36,0.09,5.5,1.55,5.5,4.67
		c0,2.67-2.06,4.88-6.88,4.88c-3.95,0-6.86-1-8.89-2.58L32.9,25.08z"/>
	<polygon id="Fill-7" class="st0" points="197.76,14.56 197.76,17.48 192.52,17.48 192.52,29.12 189.66,29.12 189.66,17.48 
		184.42,17.48 184.42,14.56 	"/>
	<defs>
		<filter id="Adobe_OpacityMaskFilter" filterUnits="userSpaceOnUse" x="203.83" y="14.56" width="2.43" height="14.56">
			<feColorMatrix  type="matrix" values="1 0 0 0 0  0 1 0 0 0  0 0 1 0 0  0 0 0 1 0"/>
		</filter>
	</defs>
	<mask maskUnits="userSpaceOnUse" x="203.83" y="14.56" width="2.43" height="14.56" id="mask-2_6_">
		<g class="st1">
			<polygon id="path-1_6_" class="st2" points="-1.21,60.66 256,60.66 256,0 -1.21,0 			"/>
		</g>
	</mask>
	<polygon id="Fill-9" class="st3" points="203.83,29.12 206.26,29.12 206.26,14.56 203.83,14.56 	"/>
	<defs>
		<filter id="Adobe_OpacityMaskFilter_1_" filterUnits="userSpaceOnUse" x="213.54" y="14.56" width="15.77" height="14.56">
			<feColorMatrix  type="matrix" values="1 0 0 0 0  0 1 0 0 0  0 0 1 0 0  0 0 0 1 0"/>
		</filter>
	</defs>
	<mask maskUnits="userSpaceOnUse" x="213.54" y="14.56" width="15.77" height="14.56" id="mask-2_5_">
		<g class="st4">
			<polygon id="path-1_5_" class="st2" points="-1.21,60.66 256,60.66 256,0 -1.21,0 			"/>
		</g>
	</mask>
	<polygon id="Fill-11" class="st5" points="216.46,19.84 216.4,19.84 216.4,29.12 213.54,29.12 213.54,14.56 216.4,14.56 
		221.42,21.87 226.44,14.56 229.31,14.56 229.31,29.12 226.44,29.12 226.44,19.84 226.39,19.84 221.42,27.15 	"/>
	<defs>
		<filter id="Adobe_OpacityMaskFilter_2_" filterUnits="userSpaceOnUse" x="236.59" y="14.56" width="13.35" height="14.56">
			<feColorMatrix  type="matrix" values="1 0 0 0 0  0 1 0 0 0  0 0 1 0 0  0 0 0 1 0"/>
		</filter>
	</defs>
	<mask maskUnits="userSpaceOnUse" x="236.59" y="14.56" width="13.35" height="14.56" id="mask-2_4_">
		<g class="st6">
			<polygon id="path-1_4_" class="st2" points="-1.21,60.66 256,60.66 256,0 -1.21,0 			"/>
		</g>
	</mask>
	<polygon id="Fill-12" class="st7" points="249.59,14.56 249.59,17.48 239.53,17.48 239.53,20.12 244.84,20.12 244.84,23.05 
		239.53,23.05 239.53,26.19 249.93,26.19 249.93,29.12 236.59,29.12 236.59,14.56 	"/>
	<defs>
		<filter id="Adobe_OpacityMaskFilter_3_" filterUnits="userSpaceOnUse" x="178.35" y="13.35" width="3.64" height="3.64">
			<feColorMatrix  type="matrix" values="1 0 0 0 0  0 1 0 0 0  0 0 1 0 0  0 0 0 1 0"/>
		</filter>
	</defs>
	<mask maskUnits="userSpaceOnUse" x="178.35" y="13.35" width="3.64" height="3.64" id="mask-2_3_">
		<g class="st8">
			<polygon id="path-1_3_" class="st2" points="-1.21,60.66 256,60.66 256,0 -1.21,0 			"/>
		</g>
	</mask>
	<path id="Fill-13" class="st9" d="M180.22,15c0.16-0.03,0.25-0.09,0.22-0.28c-0.04-0.18-0.22-0.16-0.37-0.14l-0.27,0.04l0.08,0.43
		L180.22,15z M180.06,16.09l-0.38,0.06l-0.3-1.75l0.65-0.12c0.45-0.08,0.74,0,0.81,0.41c0.05,0.32-0.11,0.47-0.34,0.53l0.57,0.69
		l-0.44,0.08l-0.53-0.67l-0.18,0.04L180.06,16.09z M179.93,13.79c-0.71,0.13-1.23,0.78-1.08,1.61c0.14,0.83,0.85,1.27,1.57,1.14l0,0
		c0.68-0.12,1.21-0.78,1.06-1.61C181.34,14.1,180.63,13.67,179.93,13.79L179.93,13.79z M180.49,16.96
		c-0.96,0.17-1.93-0.44-2.12-1.48c-0.18-1.03,0.53-1.94,1.48-2.1c0.96-0.17,1.92,0.45,2.11,1.47
		C182.14,15.9,181.43,16.79,180.49,16.96L180.49,16.96z"/>
	<defs>
		<filter id="Adobe_OpacityMaskFilter_4_" filterUnits="userSpaceOnUse" x="55.81" y="0" width="124.97" height="60.66">
			<feColorMatrix  type="matrix" values="1 0 0 0 0  0 1 0 0 0  0 0 1 0 0  0 0 0 1 0"/>
		</filter>
	</defs>
	<mask maskUnits="userSpaceOnUse" x="55.81" y="0" width="124.97" height="60.66" id="mask-2_2_">
		<g class="st10">
			<polygon id="path-1_2_" class="st2" points="-1.21,60.66 256,60.66 256,0 -1.21,0 			"/>
		</g>
	</mask>
	<path id="Fill-14" class="st11" d="M157.06,7.97c-0.01-0.11-0.02-0.19-0.02-0.3c-0.06-0.34-0.14-0.6-0.26-0.7l-0.25-0.1
		c-1.45,0.07-3.35,4.06-3.57,7.26C155.98,12.54,157.1,9.55,157.06,7.97L157.06,7.97z M180.78,1.16l-0.06,0.14
		c-0.02,0.14-0.86,3.16-3.63,4.58c-2.49,1.27-3.85,0.03-4.32-0.57c-0.4,0.49-1.37,1.76-2.78,3.94c-2,3.14-3.17,7.01-3.17,7.05
		l-0.03,0.12l-4.52,1.55l-0.31-0.72c0,0,0.41-1.5,0.76-2.73c-2.2,3.15-5.39,6.45-9.21,6.62c-2.35,0.12-4.01-0.94-4.79-2.85
		c-2.16,4.7-5.14,7.39-8.46,7.54c-1.63,0.08-2.77-0.68-3.28-2.06c-2.65,4.77-5.52,5.95-7.52,6.04c-1,0.05-1.88-0.22-2.52-0.76
		c-0.44-0.39-0.71-0.93-0.9-1.56c-2.25,3.94-4.38,6.41-7.83,6.57c-1.47,0.08-2.54-0.61-3.09-1.82c-1.83,2.9-4.39,6.08-8.26,6.27
		c-0.71,0.04-2.06-0.04-3-0.93c-0.67-0.59-1-1.44-1.04-2.53c-0.06-2.16,1.07-5.99,2.17-9.64c1.06-3.48,2.04-6.78,1.98-8.51
		c-0.02-0.61-0.17-0.88-0.27-1c0,0-0.19-0.12-0.35-0.11c-0.56,0.01-1.45,0.46-2.51,1.21c0,0-2.97,2.24-3.12,2.36
		c-0.92,7.77-2.69,14.96-5.72,23.31l-0.04,0.09l-3.57,1.5l-2.32,1l-0.61-0.59l0.06-0.17c2.36-5.93,6.27-17.04,6-24.7
		c-0.01-0.56-0.15-0.97-0.36-1.17c-0.14-0.13-0.32-0.18-0.54-0.17c-0.49,0.03-1.83,0.79-3.05,1.76c0,0-2.21,1.75-2.39,1.89
		c0,0.25,0.01,0.78,0.01,0.79c0.23,10.72-5.63,22.69-8.35,26.46l-0.05,0.06l-4.08,1.7l-3.21,1.35l-0.63-0.57l0.17-0.23
		c2.32-3.29,9.87-14.69,9.91-25.35c-0.01-2.91-0.92-5.31-2.63-6.99c-1.7-1.61-4.1-2.38-6.93-2.23c-6.67,0.39-13.83,4.76-13.84,10.62
		c0,1.43,0.58,2.84,1.61,3.83c1.16,1.11,2.76,1.63,4.64,1.51c2.36-0.12,3.46-1.14,3.95-1.99c0.5-0.81,0.57-1.67,0.38-2.09l-0.04-0.1
		l0.36-0.83c0,0,2.05-0.24,4.13-0.86c1.91-0.57,4.04-1.67,4.04-1.67l0.65,0.46l0.15,0.13l-0.04,0.18c0,0-0.03,0.29-0.03,0.3
		c-0.22,4.46-4.42,9.14-11.99,9.58c-3.35,0.16-6.35-0.76-8.24-2.57c-1.53-1.44-2.33-3.48-2.32-5.81c0-8.22,10.3-13.12,17.26-13.83
		c8.02-0.83,12.65,2.19,14.39,5.4c0.43-0.4,10.08-9.59,10.52-10c0.01-0.01,0.02-0.01,0.02-0.01l0.18-0.16c0,0,0.18,0.2,0.61,0.56
		c0.82,0.71,2.02,2.11,2.15,4.18c0.04,0.6,0.1,1.69,0.09,1.98c2.86-2.46,10.96-9.66,10.96-9.66s0.23,0.29,0.61,0.69
		c1.31,1.38,2.38,3.35,1.52,7.27c-0.56,2.46-2.12,6.45-3.75,12.27c-1.1,3.79-1.65,6.55-1.62,7.27c-0.02,0.3,0.06,0.52,0.21,0.65
		c0.1,0.1,0.29,0.14,0.57,0.14c2.3-0.11,4.79-4.41,6.09-8.57l2.5-8.47c0,0,3.38-1.34,4.81-2.26l0.38-0.24l0.96,1.14l-0.3,0.32
		c-0.19,0.19-0.44,0.68-0.63,1.29c-2.96,9.57-3.14,10.19-3.16,10.2c-0.16,0.56-0.25,1.04-0.24,1.44c0,0.08,0,0.14,0.01,0.2
		c0.05,0.3,0.13,0.54,0.29,0.69l0.45,0.15c1.76-0.08,3.87-3.48,5.91-9.53l4.26-14.38l0.02-0.12l0.13-0.04c0,0,0.23-0.09,0.16-0.07
		c1.12-0.48,2.99-1.39,4.6-2.38l0.36-0.23l0.98,1.15l-0.31,0.3c-0.09,0.1-0.28,0.37-0.5,1.15l-4.62,15.69
		c-0.55,1.96-0.6,2.76-0.6,3.21c-0.01,0.05,0,0.1,0.02,0.15c0.02,0.3,0.13,0.55,0.28,0.7l0.36,0.12c1.99-0.09,3.88-3.15,6.25-10.23
		l3.9-12.94c0,0,3.16-1.4,4.81-2.44l0.19-0.13l0.19-0.12L148,1.48l-0.16,0.17c0,0-0.14,0.14-0.13,0.14c-0.1,0.1-0.28,0.4-0.51,1.14
		c0,0-4.67,15.15-4.69,15.16c-0.44,1.36-0.66,2.75-0.62,3.34c0.01,0.52,0.13,0.75,0.23,0.84l0.28,0.08
		c1.35-0.06,3.63-2.36,5.62-7.27c2.08-6.73,5.06-10.09,9.11-10.28c0.97-0.05,1.81,0.24,2.43,0.81c0.56,0.51,0.94,1.26,1.03,2.05
		c0.01,0.1,0.02,0.21,0.02,0.29c0.1,3.31-2.88,6.51-7.6,8.25c0,0.05,0,0.13,0.01,0.18c0.17,1.33,0.78,1.97,1.85,1.9
		c4.26-0.2,8.32-7.42,9.87-11.96l1.07-3l0.16-0.44l4.1-1.69l0.68,0.59c0,0-1.03,2.93-1.65,4.74c1.39-1.94,4.52-6.5,4.52-6.5
		l1.31,0.22l0.2,0.32c-0.15,0.51-0.43,1.93,0.03,2.48c0.17,0.19,0.4,0.25,0.73,0.24c1.81-0.16,3.58-2.84,3.61-2.87l0.37-0.04
		L180.78,1.16z M122.26,13.47c1.99-0.09,3.33-1.8,3.27-3.27c-0.02-0.7-0.3-1.32-0.8-1.78c-0.53-0.47-1.24-0.71-2.01-0.68
		c-1.57,0.08-3.29,1.5-3.23,3.32c0.01,0.07,0,0.16,0.02,0.23c0.07,0.6,0.3,1.1,0.73,1.47C120.86,13.32,121.69,13.49,122.26,13.47
		L122.26,13.47z M175.63,15.81l0.12-0.03l1.41,1.08l-0.09,0.45c-28.65,8.94-71.27,29.04-81.23,40.61l-0.09,0.1l-0.13-0.01
		c-10.74-1.45-25.55,1.13-29.49,2.6l-0.17,0.06l-0.94-1.15l0.1-0.4C100.23,43.13,149.47,23.13,175.63,15.81L175.63,15.81z"/>
	<defs>
		<filter id="Adobe_OpacityMaskFilter_5_" filterUnits="userSpaceOnUse" x="253.57" y="26.69" width="2.43" height="2.43">
			<feColorMatrix  type="matrix" values="1 0 0 0 0  0 1 0 0 0  0 0 1 0 0  0 0 0 1 0"/>
		</filter>
	</defs>
	<mask maskUnits="userSpaceOnUse" x="253.57" y="26.69" width="2.43" height="2.43" id="mask-2_1_">
		<g class="st12">
			<polygon id="path-1_1_" class="st2" points="-1.21,60.66 256,60.66 256,0 -1.21,0 			"/>
		</g>
	</mask>
	<path id="Fill-15" class="st13" d="M256,27.91c0,0.67-0.54,1.21-1.21,1.21c-0.67,0-1.21-0.54-1.21-1.21s0.54-1.21,1.21-1.21
		C255.46,26.69,256,27.24,256,27.91"/>
</g>
</svg>
