<?xml version="1.0" encoding="utf-8"?>
<!-- Generator: Adobe Illustrator 23.0.4, SVG Export Plug-In . SVG Version: 6.00 Build 0)  -->
<svg version="1.1" id="Layer_1" xmlns="http://www.w3.org/2000/svg" xmlns:xlink="http://www.w3.org/1999/xlink" x="0px" y="0px"
	 viewBox="0 0 256 256" style="enable-background:new 0 0 256 256;" xml:space="preserve">
<style type="text/css">
	.st0{fill-rule:evenodd;clip-rule:evenodd;fill:url(#SVGID_1_);}
</style>
<linearGradient id="SVGID_1_" gradientUnits="userSpaceOnUse" x1="0" y1="128" x2="256" y2="128">
	<stop  offset="0.1" style="stop-color:#D8B66B"/>
	<stop  offset="0.1447" style="stop-color:#DAB971"/>
	<stop  offset="0.2032" style="stop-color:#E0C381"/>
	<stop  offset="0.2691" style="stop-color:#EAD39C"/>
	<stop  offset="0.32" style="stop-color:#F3E3B6"/>
	<stop  offset="0.42" style="stop-color:#F3E3B6"/>
	<stop  offset="0.55" style="stop-color:#CFB479"/>
	<stop  offset="0.7" style="stop-color:#CFB479"/>
	<stop  offset="0.78" style="stop-color:#FDEEC4"/>
	<stop  offset="0.9" style="stop-color:#CFB479"/>
</linearGradient>
<path class="st0" d="M128,0C57.31,0,0,57.31,0,128l0,0c0,70.69,57.31,128,128,128l0,0c70.69,0,128-57.31,128-128l0,0
	C256,57.31,198.69,0,128,0z M42.44,213.56C19.59,190.71,7,160.32,7,128l0,0c0-32.32,12.59-62.71,35.44-85.56l0,0
	C65.29,19.59,95.68,7,128,7l0,0c32.32,0,62.71,12.59,85.56,35.44l0,0C236.41,65.29,249,95.68,249,128l0,0
	c0,32.32-12.59,62.71-35.44,85.56l0,0C190.71,236.41,160.32,249,128,249l0,0C95.68,249,65.29,236.41,42.44,213.56L42.44,213.56z
	 M119.06,72.43l-15.52-4.16c-1.7-0.45-3.6-0.08-4.97,0.98c-1.04,0.81-1.69,1.95-1.83,3.2l-1.72,6.42c-0.51,1.17-0.51,2.51,0,3.75
	c0.17,0.41,0.39,0.79,0.65,1.15c-1.64,3.42-3.52,7.64-5.48,12.34c0,0.01,0,0.01-0.01,0.02c-1.72,4.1-3.51,8.56-5.27,13.17
	c-6.02,1.63-13.7,8.68-15.93,17.01l-14.78,55.15c-1.42,5.31,2.07,10.87,7.78,12.4l15.13,4.05c0,0,0,0,0,0l15.13,4.05
	c0.98,0.26,1.98,0.39,2.97,0.39c1.72,0,3.42-0.4,4.95-1.18c2.53-1.29,4.31-3.44,5.02-6.07l2.03-7.59c0,0,0,0,0,0c0,0,0,0,0,0
	l12.74-47.56c2.23-8.33-0.89-18.27-5.29-22.7c1.11-6.97,2.03-13.72,2.68-19.54c0-0.02,0-0.03,0.01-0.05
	c0.33-2.92,0.58-5.6,0.76-7.97c1.39-0.68,2.5-1.94,2.93-3.55l1.88-7.01C123.71,76.23,121.97,73.22,119.06,72.43z M98.96,193.44
	c-0.22,0.84-0.83,1.54-1.71,1.99c-0.99,0.5-2.18,0.61-3.34,0.3l-15.13-4.05c0,0,0,0,0,0l-15.13-4.05c-2.24-0.6-3.72-2.67-3.23-4.51
	l1.2-4.48l38.53,10.32L98.96,193.44z M101.83,182.74L63.3,172.42l11.08-41.33l38.53,10.32L101.83,182.74z M114.23,135.09
	l-37.85-10.14c2.79-5.52,8.46-9.51,10.97-9.57c1.31-0.03,2.47-0.85,2.93-2.08c1.67-4.42,3.38-8.72,5.02-12.71h15.23
	c-0.53,4.33-1.19,9.06-1.95,13.94l-0.79-0.21c-1.72-0.46-3.49,0.56-3.95,2.28s0.56,3.49,2.28,3.95l3.7,0.99
	C111.92,123.22,114.56,129.21,114.23,135.09z M115.03,83.76c-0.03,0-0.05,0-0.08,0c-0.02,0-0.05,0-0.07,0
	c-0.08,0-0.16,0.01-0.23,0.02c-0.03,0-0.05,0.01-0.08,0.01c-0.08,0.01-0.15,0.03-0.23,0.05c-0.02,0.01-0.04,0.01-0.07,0.01
	c-0.09,0.02-0.18,0.05-0.27,0.08c-0.03,0.01-0.06,0.02-0.09,0.03c-0.06,0.02-0.12,0.05-0.18,0.07c-0.04,0.02-0.07,0.03-0.11,0.05
	c-0.05,0.03-0.1,0.05-0.15,0.08c-0.03,0.02-0.07,0.04-0.1,0.06c-0.05,0.03-0.1,0.07-0.15,0.1c-0.03,0.02-0.06,0.04-0.08,0.06
	c-0.07,0.05-0.13,0.1-0.19,0.15c-0.01,0.01-0.02,0.02-0.03,0.02c-0.07,0.07-0.14,0.13-0.21,0.2c-0.01,0.01-0.03,0.03-0.04,0.05
	c-0.05,0.06-0.1,0.11-0.15,0.17c-0.02,0.02-0.04,0.05-0.06,0.08c-0.04,0.05-0.08,0.11-0.11,0.16c-0.02,0.03-0.04,0.06-0.06,0.09
	c-0.03,0.05-0.06,0.1-0.09,0.16c-0.02,0.04-0.04,0.07-0.05,0.11c-0.02,0.05-0.05,0.1-0.07,0.16c-0.02,0.04-0.03,0.08-0.05,0.12
	c-0.03,0.08-0.05,0.16-0.08,0.24c-0.03,0.1-0.05,0.19-0.07,0.29c0,0.02-0.01,0.04-0.01,0.06c0,0.01,0,0.03,0,0.04
	c-0.01,0.1-0.03,0.19-0.03,0.29c-0.12,2.11-0.32,4.59-0.6,7.34H98.03c1.67-3.83,3.22-7.18,4.55-9.83c0.04-0.08,0.08-0.17,0.12-0.26
	c0.01-0.02,0.01-0.03,0.02-0.05c0.01-0.02,0.01-0.04,0.02-0.05c0.04-0.1,0.07-0.2,0.09-0.3c0.02-0.08,0.04-0.16,0.05-0.24
	c0.01-0.04,0.01-0.08,0.02-0.12c0.01-0.06,0.02-0.12,0.02-0.18c0-0.04,0-0.08,0.01-0.11c0-0.06,0-0.13,0-0.19c0-0.03,0-0.07,0-0.1
	c0-0.07-0.01-0.14-0.02-0.21c0-0.03-0.01-0.05-0.01-0.08c-0.01-0.08-0.03-0.16-0.04-0.24c0-0.01,0-0.03-0.01-0.04
	c-0.02-0.1-0.05-0.19-0.08-0.29c0-0.01,0-0.01-0.01-0.02c-0.03-0.08-0.06-0.17-0.09-0.25c-0.01-0.03-0.03-0.06-0.04-0.09
	c-0.03-0.06-0.05-0.11-0.08-0.17c-0.02-0.03-0.04-0.07-0.06-0.1c-0.03-0.05-0.06-0.1-0.09-0.14c-0.02-0.03-0.04-0.07-0.07-0.1
	c-0.04-0.05-0.07-0.1-0.11-0.15c-0.02-0.03-0.04-0.05-0.06-0.08c-0.06-0.07-0.12-0.14-0.19-0.2c-0.02-0.02-0.04-0.04-0.06-0.06
	c-0.05-0.05-0.11-0.1-0.16-0.14c-0.02-0.02-0.05-0.04-0.07-0.06c-0.06-0.04-0.12-0.09-0.18-0.13c-0.02-0.01-0.04-0.03-0.07-0.04
	c-0.02-0.01-0.04-0.03-0.06-0.04l1.44-5.35l13.66,3.66L115.03,83.76z M98.61,111.86l-0.08-0.02c-1.72-0.46-3.49,0.56-3.94,2.28
	c-0.46,1.72,0.56,3.49,2.28,3.94l0.08,0.02c0.28,0.07,0.56,0.11,0.83,0.11c1.42,0,2.73-0.95,3.11-2.39
	C101.35,114.09,100.33,112.32,98.61,111.86z M98.62,150.84c-1.62-2.81-4.24-4.82-7.38-5.66c-1.03-0.28-2.09-0.42-3.15-0.42
	c-5.49,0-10.31,3.7-11.73,9.01c-0.84,3.13-0.41,6.41,1.21,9.22c1.62,2.81,4.24,4.82,7.38,5.66c1.03,0.28,2.09,0.42,3.15,0.42
	c5.49,0,10.31-3.7,11.73-9.01C100.68,156.92,100.24,153.65,98.62,150.84z M93.61,158.39c-0.67,2.49-2.93,4.23-5.5,4.23
	c-0.5,0-1-0.07-1.48-0.2c-1.47-0.39-2.7-1.34-3.46-2.66c-0.76-1.32-0.96-2.86-0.57-4.33c0.67-2.49,2.93-4.23,5.5-4.23
	c0.5,0,1,0.07,1.48,0.2c1.47,0.39,2.7,1.34,3.46,2.66C93.8,155.38,94.01,156.92,93.61,158.39z M201.79,181.45l-14.78-55.15
	c-2.23-8.33-9.91-15.38-15.93-17.01c-1.77-4.61-3.55-9.07-5.27-13.17c0-0.01,0-0.01-0.01-0.02c-1.97-4.69-3.84-8.91-5.48-12.33
	c0.26-0.36,0.48-0.74,0.65-1.15c0.51-1.24,0.51-2.58,0-3.75l-1.72-6.42c-0.14-1.25-0.79-2.39-1.83-3.2
	c-1.37-1.06-3.27-1.44-4.97-0.98l-15.52,4.16c-1.41,0.38-2.59,1.29-3.33,2.56c-0.73,1.27-0.93,2.75-0.55,4.16l1.88,7.01
	c0.43,1.61,1.54,2.87,2.93,3.55c0.18,2.37,0.43,5.05,0.76,7.96c0,0.02,0,0.04,0.01,0.06c0.65,5.82,1.57,12.56,2.68,19.53
	c-4.4,4.42-7.52,14.36-5.29,22.7l14.78,55.15c0.7,2.63,2.49,4.78,5.02,6.07c1.53,0.78,3.23,1.18,4.95,1.18
	c0.99,0,1.99-0.13,2.97-0.39l30.25-8.11c2.7-0.72,5-2.37,6.47-4.64C202.03,186.84,202.5,184.08,201.79,181.45z M141.46,83.81
	c-0.05-0.01-0.1-0.01-0.15-0.02c-0.06-0.01-0.11-0.01-0.17-0.02c-0.04,0-0.08-0.01-0.11-0.01c-0.02,0-0.04,0-0.06,0l-1.43-5.35
	l13.66-3.66l1.43,5.35c-0.02,0.01-0.04,0.03-0.06,0.04c-0.02,0.01-0.05,0.03-0.07,0.04c-0.06,0.04-0.12,0.08-0.18,0.13
	c-0.02,0.02-0.05,0.04-0.07,0.06c-0.05,0.04-0.11,0.09-0.16,0.14c-0.02,0.02-0.04,0.04-0.06,0.06c-0.07,0.07-0.13,0.13-0.19,0.2
	c-0.02,0.03-0.04,0.06-0.07,0.09c-0.04,0.05-0.07,0.09-0.11,0.14c-0.02,0.03-0.05,0.07-0.07,0.1c-0.03,0.05-0.06,0.09-0.09,0.14
	c-0.02,0.03-0.04,0.07-0.06,0.11c-0.03,0.05-0.06,0.11-0.08,0.16c-0.01,0.03-0.03,0.06-0.04,0.09c-0.03,0.08-0.06,0.16-0.09,0.24
	c0,0.01-0.01,0.01-0.01,0.02c-0.03,0.09-0.06,0.19-0.08,0.29c0,0.01-0.01,0.03-0.01,0.04c-0.02,0.08-0.03,0.16-0.04,0.24
	c0,0.03-0.01,0.06-0.01,0.08c-0.01,0.07-0.01,0.14-0.02,0.21c0,0.03,0,0.07,0,0.1c0,0.06,0,0.12,0,0.19c0,0.04,0,0.08,0.01,0.11
	c0,0.06,0.01,0.12,0.02,0.18c0.01,0.04,0.01,0.08,0.02,0.12c0.02,0.09,0.03,0.17,0.06,0.26c0.02,0.09,0.05,0.18,0.08,0.27
	c0.01,0.02,0.01,0.05,0.02,0.07c0,0.01,0.01,0.02,0.01,0.03c0.04,0.1,0.08,0.19,0.12,0.28c1.34,2.64,2.89,6,4.55,9.82h-13.22
	c-0.28-2.75-0.48-5.23-0.6-7.34c-0.01-0.1-0.02-0.2-0.03-0.29c0-0.01,0-0.03,0-0.04c0-0.02-0.01-0.04-0.01-0.06
	c-0.02-0.09-0.04-0.19-0.06-0.28c-0.02-0.09-0.05-0.17-0.08-0.25c-0.01-0.04-0.03-0.07-0.04-0.11c-0.02-0.06-0.05-0.11-0.07-0.17
	c-0.02-0.03-0.03-0.07-0.05-0.1c-0.03-0.06-0.06-0.11-0.09-0.16c-0.02-0.03-0.04-0.06-0.05-0.09c-0.04-0.06-0.07-0.11-0.11-0.17
	c-0.02-0.02-0.04-0.05-0.05-0.07c-0.05-0.06-0.09-0.12-0.14-0.17c-0.02-0.02-0.03-0.03-0.05-0.05c-0.06-0.07-0.13-0.14-0.2-0.2
	c-0.02-0.02-0.05-0.04-0.08-0.06c-0.05-0.04-0.09-0.08-0.14-0.11c-0.04-0.03-0.08-0.06-0.12-0.09c-0.03-0.02-0.07-0.05-0.1-0.07
	c-0.05-0.03-0.1-0.06-0.15-0.09c-0.03-0.02-0.06-0.03-0.08-0.04c-0.06-0.03-0.11-0.06-0.17-0.08c-0.02-0.01-0.04-0.01-0.05-0.02
	c-0.19-0.08-0.4-0.15-0.61-0.19C141.54,83.82,141.5,83.81,141.46,83.81z M146.18,121.54l3.7-0.99c1.72-0.46,2.74-2.23,2.28-3.95
	s-2.23-2.74-3.95-2.28l-0.79,0.21c-0.76-4.89-1.42-9.62-1.95-13.94h15.23c1.65,3.99,3.35,8.29,5.02,12.71
	c0.46,1.22,1.62,2.05,2.93,2.08c2.5,0.06,8.17,4.05,10.97,9.57l-37.85,10.14C141.44,129.21,144.08,123.22,146.18,121.54z
	 M154.17,182.74l-11.08-41.33l38.53-10.32l11.08,41.33L154.17,182.74z M195.08,185.7c-0.61,0.93-1.58,1.62-2.74,1.93l-30.25,8.11
	c-1.16,0.31-2.35,0.2-3.34-0.3c-0.88-0.45-1.49-1.15-1.71-1.99l-1.2-4.48l38.53-10.32l1.2,4.48
	C195.79,183.96,195.62,184.87,195.08,185.7z M161.4,114.12c-0.46-1.72-2.23-2.74-3.95-2.28l-0.08,0.02
	c-1.72,0.46-2.74,2.23-2.28,3.95c0.39,1.44,1.69,2.39,3.11,2.39c0.28,0,0.56-0.04,0.84-0.11l0.08-0.02
	C160.84,117.61,161.86,115.84,161.4,114.12z M179.63,153.77c-1.42-5.3-6.24-9.01-11.73-9.01c-1.06,0-2.12,0.14-3.15,0.42
	c-3.13,0.84-5.75,2.85-7.38,5.66c-1.62,2.81-2.05,6.08-1.21,9.22c1.42,5.3,6.24,9.01,11.73,9.01c0,0,0,0,0,0
	c1.06,0,2.12-0.14,3.15-0.42c3.13-0.84,5.75-2.85,7.38-5.66C180.04,160.18,180.47,156.9,179.63,153.77z M172.84,159.77
	c-0.76,1.32-1.99,2.26-3.46,2.66c-0.49,0.13-0.99,0.2-1.48,0.2c0,0,0,0,0,0c-2.57,0-4.84-1.74-5.51-4.23
	c-0.39-1.47-0.19-3.01,0.57-4.33c0.76-1.32,1.99-2.26,3.46-2.66c0.49-0.13,0.99-0.2,1.48-0.2c2.57,0,4.84,1.74,5.5,4.23
	C173.8,156.91,173.6,158.45,172.84,159.77z M128,37.38c-1.78,0-3.22,1.44-3.22,3.22v8.62c0,1.78,1.44,3.22,3.22,3.22
	c1.78,0,3.22-1.44,3.22-3.22V40.6C131.22,38.82,129.78,37.38,128,37.38z M117.22,53.55l-4.38-7.47c-0.9-1.54-2.87-2.05-4.41-1.15
	c-1.54,0.9-2.05,2.87-1.15,4.41l4.38,7.47c0.6,1.02,1.68,1.59,2.78,1.59c0.55,0,1.12-0.14,1.63-0.44
	C117.61,57.06,118.12,55.09,117.22,53.55z M147.57,44.93c-1.54-0.9-3.51-0.39-4.41,1.15l-4.38,7.47c-0.9,1.54-0.39,3.51,1.15,4.41
	c0.51,0.3,1.07,0.44,1.63,0.44c1.11,0,2.18-0.57,2.78-1.59l4.38-7.47C149.62,47.81,149.1,45.84,147.57,44.93z"/>
</svg>
