<?xml version="1.0" encoding="utf-8"?>
<!-- Generator: Adobe Illustrator 23.0.4, SVG Export Plug-In . SVG Version: 6.00 Build 0)  -->
<svg version="1.1" id="Layer_1" xmlns="http://www.w3.org/2000/svg" xmlns:xlink="http://www.w3.org/1999/xlink" x="0px" y="0px"
	 viewBox="0 0 256 256" style="enable-background:new 0 0 256 256;" xml:space="preserve">
<style type="text/css">
	.st0{fill-rule:evenodd;clip-rule:evenodd;fill:url(#SVGID_1_);}
</style>
<linearGradient id="SVGID_1_" gradientUnits="userSpaceOnUse" x1="0" y1="128" x2="256" y2="128">
	<stop  offset="0.1" style="stop-color:#D8B66B"/>
	<stop  offset="0.1447" style="stop-color:#DAB971"/>
	<stop  offset="0.2032" style="stop-color:#E0C381"/>
	<stop  offset="0.2691" style="stop-color:#EAD39C"/>
	<stop  offset="0.32" style="stop-color:#F3E3B6"/>
	<stop  offset="0.42" style="stop-color:#F3E3B6"/>
	<stop  offset="0.55" style="stop-color:#CFB479"/>
	<stop  offset="0.7" style="stop-color:#CFB479"/>
	<stop  offset="0.78" style="stop-color:#FDEEC4"/>
	<stop  offset="0.9" style="stop-color:#CFB479"/>
</linearGradient>
<path class="st0" d="M128,0C57.31,0,0,57.31,0,128l0,0c0,70.69,57.31,128,128,128l0,0c70.69,0,128-57.31,128-128l0,0
	C256,57.31,198.69,0,128,0z M42.44,213.56C19.59,190.71,7,160.32,7,128l0,0c0-32.32,12.59-62.71,35.44-85.56l0,0
	C65.29,19.59,95.68,7,128,7l0,0c32.32,0,62.71,12.59,85.56,35.44l0,0C236.41,65.29,249,95.68,249,128l0,0
	c0,32.32-12.59,62.71-35.44,85.56l0,0C190.71,236.41,160.32,249,128,249l0,0C95.68,249,65.29,236.41,42.44,213.56L42.44,213.56z
	 M204.75,119.49v18.05H186.8v-0.14v-3.43v-14.53c0-32.47-26.33-58.8-58.8-58.8h0c-32.47,0-58.8,26.33-58.8,58.8v14.53v3.43v0.14
	H51.25v-18.05c0-42.39,34.36-76.75,76.75-76.75h0C170.39,42.74,204.75,77.1,204.75,119.49z M51.25,147.24H69.2v40.09H51.25V147.24z
	 M186.8,147.24h17.95v40.09H186.8V147.24z M168.91,119.49h8.64v67.83h-8.64V119.49z M150.32,110.17h9.55v86.07h-9.55
	c-9.93,0-17.98-8.05-17.98-17.98v-50.11C132.34,118.22,140.39,110.17,150.32,110.17z M78.45,119.49h8.64v67.83h-8.64V119.49z
	 M123.66,128.15v50.11c0,9.93-8.05,17.98-17.98,17.98h-9.55v-86.07h9.55C115.61,110.17,123.66,118.22,123.66,128.15z"/>
</svg>
