<?xml version="1.0" encoding="utf-8"?>
<!-- Generator: Adobe Illustrator 23.0.4, SVG Export Plug-In . SVG Version: 6.00 Build 0)  -->
<svg version="1.1" id="Layer_1" xmlns="http://www.w3.org/2000/svg" xmlns:xlink="http://www.w3.org/1999/xlink" x="0px" y="0px"
	 viewBox="0 0 256 256" style="enable-background:new 0 0 256 256;" xml:space="preserve">
<style type="text/css">
	.st0{fill-rule:evenodd;clip-rule:evenodd;fill:none;}
	.st1{fill:none;}
	.st2{fill-rule:evenodd;clip-rule:evenodd;fill:url(#SVGID_1_);}
</style>
<path class="st0" d="M84,83.3c0,24.3,12,56.41,44,56.41s44-32.11,44-56.41c0-24.3-19.7-44-44-44C103.7,39.3,84,59,84,83.3z
	 M203.19,58.47l-18.74-18.48l-7.08,7.41l25.82,25.82l36.7-36.7L233.38,30L203.19,58.47z M128,0C57.31,0,0,57.31,0,128
	c0,70.69,57.31,128,128,128c70.69,0,128-57.31,128-128c0-26.4-7.99-50.93-21.69-71.31l-5.04,5.03C242.11,81.25,249,104.09,249,128
	c0,32.32-12.59,62.71-35.44,85.56c-0.38,0.38-0.77,0.76-1.16,1.14c-2.14-43.78-39.11-62.7-84.4-62.7s-82.27,18.92-84.4,62.7
	c-0.39-0.38-0.77-0.76-1.16-1.14C19.59,190.71,7,160.32,7,128c0-32.32,12.59-62.71,35.44-85.56C65.29,19.59,95.68,7,128,7
	c30.31,0,58.93,11.07,81.22,31.3l5.1-4.81C191.56,12.69,161.26,0,128,0z"/>
<rect class="st1" width="256" height="256"/>
<linearGradient id="SVGID_1_" gradientUnits="userSpaceOnUse" x1="0" y1="128" x2="256" y2="128">
	<stop  offset="0.1" style="stop-color:#D8B66B"/>
	<stop  offset="0.1447" style="stop-color:#DAB971"/>
	<stop  offset="0.2032" style="stop-color:#E0C381"/>
	<stop  offset="0.2691" style="stop-color:#EAD39C"/>
	<stop  offset="0.32" style="stop-color:#F3E3B6"/>
	<stop  offset="0.42" style="stop-color:#F3E3B6"/>
	<stop  offset="0.55" style="stop-color:#CFB479"/>
	<stop  offset="0.7" style="stop-color:#CFB479"/>
	<stop  offset="0.78" style="stop-color:#FDEEC4"/>
	<stop  offset="0.9" style="stop-color:#CFB479"/>
</linearGradient>
<path class="st2" d="M84,83.3c0,24.3,12,56.41,44,56.41s44-32.11,44-56.41c0-24.3-19.7-44-44-44C103.7,39.3,84,59,84,83.3z
	 M203.19,58.47l-18.74-18.48l-7.08,7.41l25.82,25.82l36.7-36.7L233.38,30L203.19,58.47z M128,0C57.31,0,0,57.31,0,128
	c0,70.69,57.31,128,128,128c70.69,0,128-57.31,128-128c0-26.4-7.99-50.93-21.69-71.31l-5.04,5.03C242.11,81.25,249,104.09,249,128
	c0,32.32-12.59,62.71-35.44,85.56c-0.38,0.38-0.77,0.76-1.16,1.14c-2.14-43.78-39.11-62.7-84.4-62.7s-82.27,18.92-84.4,62.7
	c-0.39-0.38-0.77-0.76-1.16-1.14C19.59,190.71,7,160.32,7,128c0-32.32,12.59-62.71,35.44-85.56C65.29,19.59,95.68,7,128,7
	c30.31,0,58.93,11.07,81.22,31.3l5.1-4.81C191.56,12.69,161.26,0,128,0z"/>
</svg>
