<?xml version="1.0" encoding="utf-8"?>
<!-- Generator: Adobe Illustrator 23.0.4, SVG Export Plug-In . SVG Version: 6.00 Build 0)  -->
<svg version="1.1" id="Layer_1" xmlns="http://www.w3.org/2000/svg" xmlns:xlink="http://www.w3.org/1999/xlink" x="0px" y="0px"
	 viewBox="0 0 256 256" style="enable-background:new 0 0 256 256;" xml:space="preserve">
<style type="text/css">
	.st0{fill-rule:evenodd;clip-rule:evenodd;fill:url(#SVGID_1_);}
</style>
<linearGradient id="SVGID_1_" gradientUnits="userSpaceOnUse" x1="0" y1="128" x2="256" y2="128">
	<stop  offset="0.1" style="stop-color:#D8B66B"/>
	<stop  offset="0.1447" style="stop-color:#DAB971"/>
	<stop  offset="0.2032" style="stop-color:#E0C381"/>
	<stop  offset="0.2691" style="stop-color:#EAD39C"/>
	<stop  offset="0.32" style="stop-color:#F3E3B6"/>
	<stop  offset="0.42" style="stop-color:#F3E3B6"/>
	<stop  offset="0.55" style="stop-color:#CFB479"/>
	<stop  offset="0.7" style="stop-color:#CFB479"/>
	<stop  offset="0.78" style="stop-color:#FDEEC4"/>
	<stop  offset="0.9" style="stop-color:#CFB479"/>
</linearGradient>
<path class="st0" d="M128,0C57.31,0,0,57.31,0,128l0,0c0,70.69,57.31,128,128,128l0,0c70.69,0,128-57.31,128-128l0,0
	C256,57.31,198.69,0,128,0z M42.44,213.56C19.59,190.71,7,160.32,7,128l0,0c0-32.32,12.59-62.71,35.44-85.56l0,0
	C65.29,19.59,95.68,7,128,7l0,0c32.32,0,62.71,12.59,85.56,35.44l0,0C236.41,65.29,249,95.68,249,128l0,0
	c0,32.32-12.59,62.71-35.44,85.56l0,0C190.71,236.41,160.32,249,128,249l0,0C95.68,249,65.29,236.41,42.44,213.56L42.44,213.56z
	 M211.11,100.08c-0.88-4.02-4.52-6.94-8.66-6.94H53.55c-4.14,0-7.78,2.92-8.66,6.94c-3.52,16.15-3.52,32.53,0,48.68
	c0.88,4.02,4.52,6.94,8.66,6.94h26.54l3.42,7.16h88.98l3.42-7.16h26.54c4.14,0,7.78-2.92,8.66-6.94
	C214.62,132.61,214.62,116.23,211.11,100.08z M91.8,151.75c-2.54-19.17-2.55-37.54-0.03-54.67h72.69
	c2.52,17.13,2.51,35.5-0.03,54.67H91.8z M81.34,151.75h-0.25c-0.32-2.44-0.61-4.87-0.85-7.28h6.75c0.24,2.41,0.51,4.84,0.83,7.28
	h-5.24H81.34z M46.74,135.19h7.52c0.1,1.77,0.23,3.55,0.37,5.34H47.4C47.14,138.75,46.92,136.97,46.74,135.19z M69.28,107.35h6.63
	c-0.15,1.77-0.28,3.55-0.38,5.34h-6.63C68.99,110.89,69.13,109.12,69.28,107.35z M85.95,121.97h-6.77c0.01-1.79,0.05-3.57,0.11-5.34
	h6.77C86,118.4,85.97,120.18,85.95,121.97z M75.24,121.97H68.6c0.01-1.79,0.05-3.57,0.11-5.34h6.64
	C75.29,118.4,75.25,120.18,75.24,121.97z M68.61,125.91h6.64c0.02,1.77,0.06,3.55,0.13,5.34h-6.64
	C68.67,129.46,68.63,127.68,68.61,125.91z M79.19,125.91h6.77c0.02,1.77,0.06,3.55,0.12,5.34h-6.77
	C79.25,129.46,79.21,127.68,79.19,125.91z M86.24,112.69h-6.76c0.1-1.79,0.24-3.57,0.39-5.34h6.76
	C86.47,109.12,86.34,110.89,86.24,112.69z M64.65,121.97h-6.77c0.01-1.79,0.05-3.57,0.11-5.34h6.77
	C64.7,118.4,64.67,120.18,64.65,121.97z M64.66,125.91c0.02,1.77,0.06,3.55,0.13,5.34h-6.77c-0.07-1.79-0.11-3.57-0.13-5.34H64.66z
	 M68.92,135.19h6.63c0.1,1.77,0.23,3.55,0.37,5.34H69.3C69.15,138.74,69.02,136.96,68.92,135.19z M79.51,135.19h6.76
	c0.1,1.77,0.23,3.55,0.37,5.34h-6.76C79.74,138.74,79.61,136.96,79.51,135.19z M87,103.4h-6.75c0.23-2.13,0.5-4.23,0.81-6.32h6.73
	C87.49,99.17,87.22,101.28,87,103.4z M76.28,103.4h-6.62c0.23-2.13,0.5-4.23,0.81-6.32h6.6C76.77,99.17,76.51,101.28,76.28,103.4z
	 M65.7,103.4h-6.75c0.23-2.13,0.5-4.23,0.81-6.32h6.73C66.19,99.17,65.93,101.28,65.7,103.4z M65.32,107.35
	c-0.15,1.77-0.28,3.55-0.38,5.34h-6.76c0.1-1.79,0.24-3.57,0.39-5.34H65.32z M54.23,112.69h-7.39c0.19-1.78,0.43-3.56,0.71-5.34
	h7.06C54.46,109.12,54.33,110.89,54.23,112.69z M54.05,116.63c-0.06,1.77-0.1,3.55-0.11,5.34h-7.71c0.04-1.78,0.13-3.56,0.25-5.34
	H54.05z M53.95,125.91c0.02,1.77,0.06,3.55,0.13,5.34h-7.65c-0.11-1.78-0.18-3.56-0.2-5.34H53.95z M58.21,135.19h6.76
	c0.1,1.77,0.23,3.55,0.37,5.34h-6.76C58.44,138.74,58.31,136.96,58.21,135.19z M65.69,144.47c0.24,2.41,0.51,4.84,0.83,7.28h-6.74
	c-0.32-2.44-0.61-4.87-0.85-7.28H65.69z M69.65,144.47h6.62c0.24,2.41,0.51,4.84,0.83,7.28H70.5
	C70.18,149.31,69.9,146.89,69.65,144.47z M169.61,107.35h6.76c0.15,1.77,0.29,3.55,0.39,5.34h-6.76
	C169.89,110.89,169.76,109.12,169.61,107.35z M180.99,121.97c-0.01-1.79-0.05-3.57-0.11-5.34h6.41c0.06,1.77,0.1,3.55,0.11,5.34
	H180.99z M187.11,112.69h-6.4c-0.1-1.79-0.23-3.57-0.38-5.34h6.39C186.87,109.12,187.01,110.89,187.11,112.69z M170.17,116.63h6.77
	c0.06,1.77,0.1,3.55,0.11,5.34h-6.77C170.26,120.18,170.23,118.4,170.17,116.63z M170.27,125.91h6.77
	c-0.02,1.77-0.06,3.55-0.13,5.34h-6.77C170.21,129.46,170.25,127.68,170.27,125.91z M180.99,125.91h6.41
	c-0.02,1.77-0.06,3.55-0.13,5.34h-6.41C180.93,129.46,180.97,127.68,180.99,125.91z M191.34,125.91h6.77
	c-0.02,1.77-0.06,3.55-0.13,5.34h-6.77C191.28,129.46,191.32,127.68,191.34,125.91z M191.35,121.97c-0.01-1.79-0.05-3.57-0.11-5.34
	H198c0.06,1.77,0.1,3.55,0.11,5.34H191.35z M191.06,112.69c-0.1-1.79-0.23-3.57-0.38-5.34h6.76c0.15,1.77,0.29,3.55,0.39,5.34
	H191.06z M190.3,103.4c-0.23-2.12-0.49-4.23-0.79-6.32h6.73c0.31,2.09,0.58,4.2,0.81,6.32H190.3z M186.34,103.4h-6.39
	c-0.23-2.12-0.49-4.23-0.79-6.32h6.37C185.83,99.17,186.1,101.28,186.34,103.4z M175.98,103.4h-6.75c-0.23-2.12-0.49-4.23-0.79-6.32
	h6.73C175.48,99.17,175.75,101.28,175.98,103.4z M169.96,135.19h6.76c-0.1,1.77-0.23,3.55-0.37,5.34h-6.76
	C169.74,138.74,169.86,136.96,169.96,135.19z M180.68,135.19h6.4c-0.1,1.77-0.23,3.55-0.37,5.34h-6.4
	C180.45,138.74,180.58,136.96,180.68,135.19z M186.35,144.47c-0.24,2.41-0.52,4.84-0.85,7.28h-6.37c0.32-2.44,0.59-4.87,0.83-7.28
	H186.35z M190.31,144.47h6.75c-0.24,2.41-0.52,4.84-0.85,7.28h-6.74C189.79,149.31,190.07,146.89,190.31,144.47z M190.66,140.53
	c0.14-1.79,0.27-3.57,0.37-5.34h6.76c-0.1,1.77-0.23,3.55-0.37,5.34H190.66z M201.74,135.19h7.52c-0.18,1.78-0.4,3.56-0.66,5.34
	h-7.22C201.52,138.74,201.64,136.96,201.74,135.19z M201.93,131.25c0.07-1.79,0.1-3.57,0.12-5.34h7.73
	c-0.02,1.78-0.09,3.56-0.2,5.34H201.93z M202.06,121.97c-0.01-1.79-0.05-3.57-0.11-5.34h7.56c0.13,1.78,0.21,3.56,0.25,5.34H202.06z
	 M201.77,112.69c-0.1-1.79-0.23-3.57-0.38-5.34h7.06c0.28,1.78,0.52,3.56,0.71,5.34H201.77z M207.26,100.91
	c0.18,0.83,0.35,1.66,0.51,2.49h-6.75c-0.23-2.12-0.49-4.23-0.79-6.32h2.22C204.75,97.08,206.77,98.69,207.26,100.91z M53.55,97.08
	h2.22c-0.3,2.09-0.56,4.2-0.79,6.32h-6.75c0.16-0.83,0.33-1.66,0.51-2.49C49.23,98.69,51.25,97.08,53.55,97.08z M48.75,147.92
	c-0.25-1.15-0.48-2.3-0.69-3.45h6.92c0.24,2.41,0.51,4.84,0.83,7.28h-2.26C51.25,151.75,49.23,150.14,48.75,147.92z M86,158.92
	l-1.54-3.22h87.08l-1.54,3.22H86z M173.42,151.75h-5.01c0.32-2.44,0.59-4.87,0.83-7.28h6.75c-0.24,2.41-0.52,4.84-0.85,7.28h-0.48
	H173.42z M202.45,151.75h-2.26c0.32-2.44,0.59-4.87,0.83-7.28h6.92c-0.21,1.15-0.44,2.3-0.69,3.45
	C206.77,150.14,204.75,151.75,202.45,151.75z"/>
</svg>
