<?xml version="1.0" encoding="utf-8"?>
<!-- Generator: Adobe Illustrator 23.0.4, SVG Export Plug-In . SVG Version: 6.00 Build 0)  -->
<svg version="1.1" id="Layer_1" xmlns="http://www.w3.org/2000/svg" xmlns:xlink="http://www.w3.org/1999/xlink" x="0px" y="0px"
	 viewBox="0 0 256 256" style="enable-background:new 0 0 256 256;" xml:space="preserve">
<style type="text/css">
	.st0{fill-rule:evenodd;clip-rule:evenodd;fill:url(#SVGID_1_);}
</style>
<linearGradient id="SVGID_1_" gradientUnits="userSpaceOnUse" x1="1.664595e-06" y1="128" x2="256" y2="128">
	<stop  offset="0.1" style="stop-color:#D8B66B"/>
	<stop  offset="0.1447" style="stop-color:#DAB971"/>
	<stop  offset="0.2032" style="stop-color:#E0C381"/>
	<stop  offset="0.2691" style="stop-color:#EAD39C"/>
	<stop  offset="0.32" style="stop-color:#F3E3B6"/>
	<stop  offset="0.42" style="stop-color:#F3E3B6"/>
	<stop  offset="0.55" style="stop-color:#CFB479"/>
	<stop  offset="0.7" style="stop-color:#CFB479"/>
	<stop  offset="0.78" style="stop-color:#FDEEC4"/>
	<stop  offset="0.9" style="stop-color:#CFB479"/>
</linearGradient>
<path class="st0" d="M128,0C57.31,0,0,57.31,0,128l0,0c0,70.69,57.31,128,128,128l0,0c70.69,0,128-57.31,128-128l0,0
	C256,57.31,198.69,0,128,0z M42.44,213.56C19.59,190.71,7,160.32,7,128l0,0c0-32.32,12.59-62.71,35.44-85.56l0,0
	C65.29,19.59,95.68,7,128,7l0,0c32.32,0,62.71,12.59,85.56,35.44l0,0C236.41,65.29,249,95.68,249,128l0,0
	c0,32.32-12.59,62.71-35.44,85.56l0,0C190.71,236.41,160.32,249,128,249l0,0C95.68,249,65.29,236.41,42.44,213.56L42.44,213.56z
	 M209.87,137.88c1.56,0,2.82-1.26,2.82-2.82v-22.58c0-1.56-1.26-2.82-2.82-2.82h-35.53l17.76-17.76c1.1-1.1,1.1-2.89,0-3.99
	l-15.42-15.42c-1.1-1.1-2.89-1.1-3.99,0c-4.41,4.41-11.56,4.41-15.97,0c-4.41-4.41-4.41-11.56,0-15.97c1.1-1.1,1.1-2.89,0-3.99
	l-12.6-12.6c-1.1-1.1-2.89-1.1-3.99,0l-69.75,69.75H46.13c-1.56,0-2.82,1.26-2.82,2.82v22.58c0,1.56,1.26,2.82,2.82,2.82
	c6.24,0,11.29,5.06,11.29,11.29c0,6.24-5.06,11.29-11.29,11.29c-1.56,0-2.82,1.26-2.82,2.82v22.58c0,1.56,1.26,2.82,2.82,2.82
	h163.73c1.56,0,2.82-1.26,2.82-2.82v-22.58c0-1.56-1.26-2.82-2.82-2.82c-6.24,0-11.29-5.06-11.29-11.29
	C198.57,142.94,203.63,137.88,209.87,137.88z M142.11,45.89l8.77,8.77c-5.44,7.61-3.68,18.19,3.94,23.63
	c5.89,4.21,13.8,4.21,19.69,0l11.6,11.6l-19.76,19.76h-8.95l6.47-6.47c1.1-1.1,1.1-2.89,0-3.99l-31.05-31.05
	c-1.1-1.1-2.89-1.1-3.99,0l-41.52,41.52h-8.95L142.11,45.89z M149.41,109.65H95.29l35.53-35.53l27.06,27.06L149.41,109.65z
	 M193.15,151.98c1.2,7.12,6.78,12.7,13.9,13.9v17.17h-22.58v-11.29h-5.65v11.29H77.19v-2.82h-5.65v2.82H48.96v-17.17
	c9.22-1.55,15.45-10.29,13.9-19.51c-1.2-7.12-6.78-12.7-13.9-13.9V115.3h22.58v8.47h5.65v-8.47h129.85v17.17
	C197.82,134.02,191.6,142.75,193.15,151.98z M178.81,120.94h5.65v11.29h-5.65V120.94z M178.81,137.88h5.65v11.29h-5.65V137.88z
	 M178.81,154.82h5.65v11.29h-5.65V154.82z M71.54,129.41h5.65v11.29h-5.65V129.41z M71.54,146.35h5.65v11.29h-5.65V146.35z
	 M71.54,163.29h5.65v11.29h-5.65V163.29z M167.52,129.41c-3.12,0-5.65-2.53-5.65-5.65c0-1.56-1.26-2.82-2.82-2.82h-62.1
	c-1.56,0-2.82,1.26-2.82,2.82c0,3.12-2.53,5.65-5.65,5.65c-1.56,0-2.82,1.26-2.82,2.82v33.88c0,1.56,1.26,2.82,2.82,2.82
	c3.12,0,5.65,2.53,5.65,5.65c0,1.56,1.26,2.82,2.82,2.82h62.1c1.56,0,2.82-1.26,2.82-2.82c0-3.12,2.53-5.65,5.65-5.65
	c1.56,0,2.82-1.26,2.82-2.82v-33.88C170.34,130.68,169.08,129.41,167.52,129.41z M164.7,163.64c-3.97,1.04-7.08,4.14-8.11,8.11
	H99.41c-1.04-3.97-4.14-7.08-8.11-8.11V134.7c3.97-1.04,7.08-4.14,8.11-8.11h57.17c1.04,3.97,4.14,7.08,8.11,8.11V163.64z"/>
</svg>
